<svg width="22" height="22" viewBox="0 0 22 22" fill="none" xmlns="http://www.w3.org/2000/svg">
<circle cx="11" cy="11" r="10.5" stroke="#FF5758"/>
<path d="M7.37293 8.26408L8.4069 7.23107C8.47983 7.15781 8.56652 7.09968 8.66199 7.06003C8.75746 7.02038 8.85982 6.99998 8.9632 7C9.17387 7 9.37193 7.08252 9.52047 7.23107L10.6331 8.34369C10.7063 8.41663 10.7645 8.50332 10.8041 8.59879C10.8438 8.69426 10.8642 8.79662 10.8641 8.9C10.8641 9.11068 10.7816 9.30874 10.6331 9.45728L9.8195 10.2709C10.0099 10.6906 10.2747 11.0725 10.601 11.3981C10.9265 11.7252 11.3084 11.9909 11.7282 12.1825L12.5418 11.3689C12.6147 11.2957 12.7014 11.2375 12.7969 11.1979C12.8923 11.1582 12.9947 11.1378 13.0981 11.1379C13.3088 11.1379 13.5068 11.2204 13.6554 11.3689L14.7689 12.4806C14.8423 12.5537 14.9005 12.6405 14.9401 12.7362C14.9798 12.8318 15.0001 12.9343 15 13.0379C15 13.2485 14.9175 13.4466 14.7689 13.5951L13.7369 14.6272C13.5 14.865 13.1728 15 12.8369 15C12.7661 15 12.6981 14.9942 12.6311 14.9825C11.3224 14.767 10.0243 14.0709 8.97679 13.0243C7.9302 11.9786 7.23507 10.6816 7.01662 9.36893C6.95061 8.96796 7.08361 8.55534 7.37293 8.26408Z" fill="#FF4445"/>
</svg>
