<svg width="16" height="16" viewBox="0 0 16 16" fill="none" xmlns="http://www.w3.org/2000/svg">
<path d="M8 0C4.672 0 1.96463 2.70737 1.96463 6.03495C1.96463 10.8261 7.35242 15.6392 7.58189 15.8421C7.70189 15.9474 7.85095 16 8 16C8.15495 16 8.30989 15.9432 8.43074 15.8299C8.65937 15.616 14.0354 10.5381 14.0354 6.03537C14.0354 2.70779 11.3272 0 8 0ZM8 8.91284C6.41052 8.91284 5.12252 7.624 5.12252 6.03579C5.12252 4.44758 6.41052 3.15874 8 3.15874C9.58863 3.15874 10.8766 4.44716 10.8766 6.03579C10.8766 7.62442 9.58863 8.91284 8 8.91284Z" fill="#EE4545"/>
</svg>
