<svg width="15" height="15" viewBox="0 0 15 15" fill="none" xmlns="http://www.w3.org/2000/svg">
<path fill-rule="evenodd" clip-rule="evenodd" d="M4.31 0.044C5.092 0.00799999 5.34133 0 7.33333 0C9.32533 0 9.57467 0.00866666 10.356 0.044C11.1373 0.0793333 11.6707 0.204 12.1373 0.384667C12.626 0.569333 13.0693 0.858 13.436 1.23133C13.8093 1.59733 14.0973 2.04 14.2813 2.52933C14.4627 2.996 14.5867 3.52933 14.6227 4.30933C14.6587 5.09267 14.6667 5.342 14.6667 7.33333C14.6667 9.32533 14.658 9.57467 14.6227 10.3567C14.5873 11.1367 14.4627 11.67 14.2813 12.1367C14.0973 12.6261 13.8089 13.0695 13.436 13.436C13.0693 13.8093 12.626 14.0973 12.1373 14.2813C11.6707 14.4627 11.1373 14.5867 10.3573 14.6227C9.57467 14.6587 9.32533 14.6667 7.33333 14.6667C5.34133 14.6667 5.092 14.658 4.31 14.6227C3.53 14.5873 2.99667 14.4627 2.53 14.2813C2.04061 14.0973 1.59721 13.8088 1.23067 13.436C0.857587 13.0698 0.568877 12.6266 0.384667 12.1373C0.204 11.6707 0.08 11.1373 0.044 10.3573C0.00799999 9.574 0 9.32467 0 7.33333C0 5.34133 0.00866666 5.092 0.044 4.31067C0.0793333 3.52933 0.204 2.996 0.384667 2.52933C0.569149 2.04005 0.858079 1.59688 1.23133 1.23067C1.59736 0.857667 2.04031 0.568962 2.52933 0.384667C2.996 0.204 3.52933 0.08 4.30933 0.044H4.31ZM10.2967 1.364C9.52333 1.32867 9.29133 1.32133 7.33333 1.32133C5.37533 1.32133 5.14333 1.32867 4.37 1.364C3.65467 1.39667 3.26667 1.516 3.008 1.61667C2.666 1.75 2.42133 1.908 2.16467 2.16467C1.92136 2.40137 1.73412 2.68952 1.61667 3.008C1.516 3.26667 1.39667 3.65467 1.364 4.37C1.32867 5.14333 1.32133 5.37533 1.32133 7.33333C1.32133 9.29133 1.32867 9.52333 1.364 10.2967C1.39667 11.012 1.516 11.4 1.61667 11.6587C1.734 11.9767 1.92133 12.2653 2.16467 12.502C2.40133 12.7453 2.69 12.9327 3.008 13.05C3.26667 13.1507 3.65467 13.27 4.37 13.3027C5.14333 13.338 5.37467 13.3453 7.33333 13.3453C9.292 13.3453 9.52333 13.338 10.2967 13.3027C11.012 13.27 11.4 13.1507 11.6587 13.05C12.0007 12.9167 12.2453 12.7587 12.502 12.502C12.7453 12.2653 12.9327 11.9767 13.05 11.6587C13.1507 11.4 13.27 11.012 13.3027 10.2967C13.338 9.52333 13.3453 9.29133 13.3453 7.33333C13.3453 5.37533 13.338 5.14333 13.3027 4.37C13.27 3.65467 13.1507 3.26667 13.05 3.008C12.9167 2.666 12.7587 2.42133 12.502 2.16467C12.2653 1.92138 11.9771 1.73414 11.6587 1.61667C11.4 1.516 11.012 1.39667 10.2967 1.364ZM6.39667 9.594C6.91977 9.81175 7.50225 9.84114 8.04462 9.67715C8.58699 9.51315 9.0556 9.16595 9.37041 8.69483C9.68522 8.22371 9.8267 7.65791 9.7707 7.09407C9.71469 6.53023 9.46467 6.00332 9.06333 5.60333C8.80749 5.34765 8.49814 5.15188 8.15756 5.0301C7.81697 4.90832 7.45362 4.86357 7.09366 4.89908C6.73371 4.93458 6.3861 5.04945 6.07587 5.23542C5.76564 5.42139 5.5005 5.67383 5.29954 5.97457C5.09857 6.27531 4.96679 6.61686 4.91368 6.97464C4.86056 7.33242 4.88743 7.69753 4.99236 8.04368C5.09729 8.38983 5.27765 8.70841 5.52048 8.97648C5.76331 9.24456 6.06255 9.45546 6.39667 9.594ZM4.668 4.668C5.01802 4.31798 5.43355 4.04034 5.89087 3.85091C6.34818 3.66148 6.83834 3.56398 7.33333 3.56398C7.82833 3.56398 8.31848 3.66148 8.7758 3.85091C9.23312 4.04034 9.64865 4.31798 9.99867 4.668C10.3487 5.01802 10.6263 5.43355 10.8158 5.89087C11.0052 6.34818 11.1027 6.83834 11.1027 7.33333C11.1027 7.82833 11.0052 8.31848 10.8158 8.7758C10.6263 9.23312 10.3487 9.64865 9.99867 9.99867C9.29178 10.7056 8.33303 11.1027 7.33333 11.1027C6.33364 11.1027 5.37489 10.7056 4.668 9.99867C3.96111 9.29178 3.56398 8.33303 3.56398 7.33333C3.56398 6.33364 3.96111 5.37489 4.668 4.668ZM11.9387 4.12533C12.0254 4.04351 12.0948 3.94512 12.1429 3.83598C12.1909 3.72684 12.2165 3.60918 12.2183 3.48995C12.22 3.37073 12.1978 3.25237 12.153 3.14187C12.1082 3.03138 12.0416 2.93101 11.9573 2.84669C11.873 2.76238 11.7726 2.69584 11.6621 2.65101C11.5516 2.60619 11.4333 2.58398 11.314 2.58572C11.1948 2.58746 11.0772 2.6131 10.968 2.66113C10.8589 2.70916 10.7605 2.7786 10.6787 2.86533C10.5195 3.03402 10.4324 3.25808 10.4358 3.48995C10.4392 3.72183 10.5328 3.94325 10.6968 4.10723C10.8607 4.2712 11.0822 4.36482 11.314 4.3682C11.5459 4.37158 11.77 4.28446 11.9387 4.12533Z" fill="#6C6C6C"/>
</svg>
