<svg width="15" height="15" viewBox="0 0 15 15" fill="none" xmlns="http://www.w3.org/2000/svg">
<path fill-rule="evenodd" clip-rule="evenodd" d="M1.81373e-07 1.22534C1.81373e-07 0.900356 0.129097 0.588688 0.358892 0.358893C0.588687 0.129099 0.900355 1.63354e-06 1.22533 1.63354e-06H13.44C13.6011 -0.000261401 13.7606 0.0312436 13.9094 0.0927128C14.0583 0.154182 14.1936 0.244408 14.3075 0.358226C14.4214 0.472043 14.5118 0.607217 14.5734 0.756008C14.6351 0.904799 14.6668 1.06429 14.6667 1.22534V13.44C14.6668 13.6011 14.6353 13.7606 14.5737 13.9095C14.5122 14.0583 14.4219 14.1936 14.308 14.3075C14.1941 14.4215 14.0589 14.5118 13.9101 14.5735C13.7613 14.6351 13.6017 14.6668 13.4407 14.6667H1.22533C1.06436 14.6667 0.904972 14.635 0.756265 14.5733C0.607557 14.5117 0.472448 14.4214 0.358656 14.3075C0.244865 14.1937 0.154621 14.0585 0.0930817 13.9098C0.0315422 13.761 -8.73971e-05 13.6016 1.81373e-07 13.4407V1.22534ZM5.80533 5.592H7.79133V6.58934C8.078 6.016 8.81133 5.5 9.91333 5.5C12.026 5.5 12.5267 6.642 12.5267 8.73734V12.6187H10.3887V9.21467C10.3887 8.02134 10.102 7.348 9.374 7.348C8.364 7.348 7.944 8.074 7.944 9.21467V12.6187H5.80533V5.592ZM2.13867 12.5273H4.27733V5.5H2.13867V12.5267V12.5273ZM4.58333 3.208C4.58737 3.39112 4.55478 3.57319 4.48749 3.74354C4.4202 3.9139 4.31957 4.06909 4.19149 4.20002C4.06341 4.33095 3.91047 4.43498 3.74164 4.50601C3.57281 4.57703 3.39149 4.61361 3.20833 4.61361C3.02517 4.61361 2.84386 4.57703 2.67503 4.50601C2.5062 4.43498 2.35326 4.33095 2.22518 4.20002C2.0971 4.06909 1.99646 3.9139 1.92917 3.74354C1.86189 3.57319 1.8293 3.39112 1.83333 3.208C1.84125 2.84857 1.98959 2.50653 2.24659 2.25513C2.50359 2.00372 2.84882 1.86295 3.20833 1.86295C3.56785 1.86295 3.91308 2.00372 4.17008 2.25513C4.42708 2.50653 4.57542 2.84857 4.58333 3.208Z" fill="#6C6C6C"/>
</svg>
