<svg width="20" height="15" viewBox="0 0 20 15" fill="none" xmlns="http://www.w3.org/2000/svg">
<path d="M4.52347 14.9212V7.23648L2.14019 5.05614L0.00305176 3.84621V13.5651C0.00305176 14.3155 0.611011 14.9212 1.35921 14.9212H4.52347Z" fill="#4285F4"/>
<path d="M15.3724 14.9212H18.5367C19.2871 14.9212 19.8928 14.3132 19.8928 13.5651V3.84627L17.4722 5.2321L15.3724 7.23647V14.9212Z" fill="#34A853"/>
<path d="M4.52349 7.23649L4.19919 4.23383L4.52349 1.35999L9.94796 5.42838L15.3724 1.35999L15.7352 4.07867L15.3724 7.23649L9.94796 11.3049L4.52349 7.23649Z" fill="#EA4335"/>
<path d="M15.3724 1.35999V7.23649L19.8928 3.84621V2.03803C19.8928 0.360991 17.9784 -0.595041 16.6382 0.410715L15.3724 1.35999Z" fill="#FBBC04"/>
<path d="M0.00305176 3.8462L2.08208 5.40553L4.52347 7.23648V1.35998L3.25767 0.410705C1.91511 -0.595128 0.00305176 0.36098 0.00305176 2.03794V3.84612V3.8462Z" fill="#C5221F"/>
</svg>
