<svg width="19" height="19" viewBox="0 0 19 19" fill="none" xmlns="http://www.w3.org/2000/svg">
<path fill-rule="evenodd" clip-rule="evenodd" d="M15.295 18C15.1446 18 14.9942 17.9536 14.8754 17.8686L10.1017 14.6309L7.53667 16.47C7.33875 16.6168 7.0775 16.6555 6.84 16.5705C6.6025 16.4855 6.42833 16.2923 6.365 16.0527L5.0825 11.1768L0.482917 9.42273C0.19 9.30682 0 9.02864 0 8.71954C0 8.41045 0.182083 8.13227 0.475 8.01636L17.955 1.06182C18.0342 1.02318 18.1133 1.00773 18.2004 1H18.2875C18.4696 1.00773 18.6437 1.085 18.7704 1.21636C18.7862 1.23182 18.7942 1.23955 18.81 1.255C18.9208 1.37864 18.9842 1.53318 18.9921 1.69545C18.9921 1.73409 18.9921 1.78045 18.9921 1.81909C18.9921 1.85 18.9842 1.87318 18.9762 1.90409L16.0233 17.3895C15.9758 17.6368 15.8096 17.8455 15.5721 17.9459C15.4929 17.9845 15.39 18 15.295 18ZM10.5133 13.0932L14.7725 15.9832L17.0683 3.93636L8.77167 11.9109L10.4896 13.0855C10.5054 13.0855 10.5054 13.0932 10.5133 13.0932ZM6.97458 12.4518L7.54458 14.6155L8.77167 13.7268L7.16458 12.6373C7.08542 12.5909 7.02208 12.5214 6.97458 12.4518ZM2.81833 8.70409L5.97708 9.90954C6.20667 9.99454 6.37292 10.1877 6.43625 10.4195L6.84 11.9341C6.85583 11.7641 6.94292 11.6018 7.06958 11.4782L14.9704 3.86682L2.81833 8.70409Z" fill="#4BBCF3"/>
</svg>
