<svg width="19" height="20" viewBox="0 0 19 20" fill="none" xmlns="http://www.w3.org/2000/svg">
<g clip-path="url(#clip0_6_5506)">
<path fill-rule="evenodd" clip-rule="evenodd" d="M17.0696 2.24121C15.4888 0.690942 12.9352 -0.0534939 9.4772 0.00790292C5.9964 0.0769743 3.6632 0.690942 2.1432 1.9419C0.676401 3.14681 -0.00759888 4.9043 -0.00759888 7.48296V10.1153C-0.00759888 13.1622 1.6264 16.5083 4.7424 17.0148C5.0996 17.0762 5.434 16.8306 5.4948 16.4699C5.5556 16.1092 5.3124 15.7715 4.9552 15.7101C2.5916 15.3264 1.3148 12.5405 1.3148 10.1153V7.48296C1.3148 3.7838 2.6828 1.46608 9.5076 1.33561C12.6008 1.26654 14.8352 1.89585 16.15 3.18519C17.2292 4.33638 17.784 5.89432 17.6776 7.48296V10.1153C17.6776 14.1061 15.8916 15.8636 11.3012 16.3778H8.0484C7.8736 16.3778 7.7064 16.4469 7.5848 16.5697L5.2896 18.8644C5.0388 19.1253 5.0464 19.5474 5.3048 19.8007C5.5632 20.054 5.966 20.054 6.2244 19.8007L8.322 17.6978H11.4152C14.0448 17.4062 15.8384 16.7232 17.0772 15.5413C18.3768 14.3057 19.0076 12.5328 19.0076 10.1153V7.48296C19.0988 5.54129 18.4072 3.64566 17.0696 2.24121ZM9.9028 4.32103C10.9592 4.32103 11.97 4.73546 12.7224 5.48757C13.4672 6.232 13.8928 7.24505 13.8852 8.30414C13.8852 8.67252 14.1816 8.96416 14.5388 8.96416C14.5388 8.96416 14.5388 8.96416 14.5464 8.96416C14.9112 8.96416 15.2 8.67252 15.2076 8.31182C15.2076 8.31182 15.2076 8.31182 15.2076 8.30414C15.2076 6.89202 14.6528 5.54129 13.6572 4.55126C12.6616 3.55357 11.3088 2.99332 9.9104 3.001C9.5456 3.001 9.2568 3.30031 9.2568 3.66101C9.2492 4.02939 9.5456 4.32103 9.9028 4.32103ZM9.9028 6.64643C10.8148 6.63876 11.5596 7.38319 11.5672 8.30414C11.5672 8.67252 11.8636 8.97183 12.2284 8.96416C12.5932 8.96416 12.882 8.66485 12.882 8.30414C12.8668 6.6541 11.5368 5.31872 9.9028 5.3264C9.5456 5.31872 9.2416 5.61036 9.234 5.97107C9.234 6.33945 9.5228 6.63876 9.88 6.64643C9.8876 6.64643 9.8952 6.64643 9.9028 6.64643ZM6.9388 7.7746C6.6424 7.98181 6.5588 8.38856 6.764 8.68787C6.764 8.68787 6.764 8.69555 6.7716 8.69555C6.9768 8.99486 7.3872 9.0716 7.6912 8.86439C8.1624 8.61113 8.4512 8.1046 8.4436 7.56738C8.3144 6.99179 8.0484 6.45456 7.6684 6.00176C7.3568 5.49524 6.9236 5.07314 6.3992 4.78918C6.08 4.66638 5.7228 4.66638 5.4036 4.7815C4.75 4.96569 4.2104 5.42617 3.914 6.03246C3.6556 6.63108 3.6632 7.30645 3.9292 7.89739C4.5372 9.41696 5.434 10.7907 6.574 11.9573C7.7444 13.0931 9.12 13.991 10.6248 14.5973C10.9364 14.7278 11.2708 14.7969 11.6128 14.7969C11.9168 14.7969 12.2132 14.7355 12.4944 14.6127C13.0948 14.3134 13.5508 13.7761 13.7408 13.1238C13.8548 12.8015 13.8548 12.4484 13.7332 12.1261C13.4444 11.6042 13.0264 11.1668 12.5172 10.8598C12.0688 10.4761 11.5292 10.2074 10.9516 10.0847C10.412 10.077 9.918 10.3609 9.652 10.8368C9.4468 11.1284 9.5228 11.5351 9.8116 11.7424L9.8192 11.75C10.1232 11.9573 10.526 11.8805 10.7388 11.5812C10.7768 11.5198 10.8224 11.4584 10.8756 11.4047C11.4836 11.6963 12.0308 12.1031 12.4944 12.6019C12.502 12.6326 12.4944 12.671 12.4792 12.7017C12.3956 13.001 12.198 13.2543 11.932 13.4078C11.666 13.5075 11.3696 13.4922 11.1112 13.3694C9.766 12.8322 8.5348 12.034 7.4936 11.021C6.4752 9.98488 5.6772 8.74927 5.1376 7.39854C5.0236 7.14528 5.016 6.84597 5.1148 6.57736C5.2668 6.30875 5.5252 6.10921 5.8216 6.03246C5.852 6.02479 5.89 6.01711 5.9204 6.02479C6.4144 6.47759 6.8172 7.03016 7.1136 7.63645C7.0604 7.69018 7.0072 7.73622 6.9388 7.7746Z" fill="#675DAC"/>
</g>
<defs>
<clipPath id="clip0_6_5506">
<rect width="19" height="20" fill="white"/>
</clipPath>
</defs>
</svg>
