<svg width="19" height="19" viewBox="0 0 19 19" fill="none" xmlns="http://www.w3.org/2000/svg">
<path fill-rule="evenodd" clip-rule="evenodd" d="M19 9.18441C18.9507 14.3496 14.7215 18.4874 9.5563 18.4381C8.02222 18.424 6.50926 18.03 5.16519 17.2911L0 18.9307L1.68185 13.9626C0.802222 12.527 0.344815 10.8663 0.344815 9.18441C0.422222 4.0333 4.66556 -0.0763316 9.81667 0.00107579C14.8552 0.0784832 18.9226 4.14589 19 9.18441ZM9.67593 1.40848C5.36222 1.39441 1.85074 4.87774 1.82963 9.18441C1.82963 10.824 2.35037 12.4285 3.32148 13.7514L2.34333 16.6366L5.35519 15.6796C8.93 18.0863 13.7785 17.1363 16.1852 13.5685C18.5919 10.0007 17.6419 5.14515 14.067 2.73848C12.7722 1.86589 11.2381 1.40145 9.67593 1.40848ZM14.3837 11.3166C14.257 11.197 14.1093 11.1055 13.9474 11.0492C13.7152 10.9437 12.5963 10.3877 12.3852 10.3174C12.2304 10.2048 12.0052 10.24 11.8926 10.3948C11.8856 10.4089 11.8785 10.4159 11.8715 10.43C11.7167 10.6551 11.2804 11.1689 11.1467 11.3166C11.027 11.4644 10.8089 11.4926 10.6541 11.3729C9.97852 11.1055 9.35926 10.7255 8.81741 10.247C8.31778 9.78959 7.88852 9.26182 7.5437 8.67774C7.44519 8.52293 7.48741 8.31885 7.63519 8.22034C7.63519 8.22034 7.64222 8.22034 7.64222 8.2133C7.74778 8.11478 7.87444 7.95293 7.98704 7.81922C8.07852 7.70663 8.15593 7.57996 8.21926 7.43922C8.28259 7.31256 8.27556 7.16478 8.19815 7.04515C8.14185 6.92552 7.68444 5.81367 7.49444 5.35626C7.30444 4.89885 7.10741 4.9833 6.9737 4.9833C6.84 4.9833 6.69222 4.96219 6.53741 4.96219C6.30519 4.96922 6.08 5.07478 5.92519 5.24367C5.40444 5.73626 5.11593 6.41885 5.12296 7.13663C5.19333 7.99515 5.52407 8.81145 6.05889 9.47997C6.17148 9.63478 7.64222 11.9992 9.96444 12.907C12.2867 13.8148 12.2867 13.5122 12.7089 13.477C13.3563 13.3503 13.9122 12.9563 14.25 12.3933C14.4048 12.0555 14.447 11.6826 14.3837 11.3166Z" fill="#2CAB1C"/>
</svg>
