<svg width="23" height="23" viewBox="0 0 23 23" fill="none" xmlns="http://www.w3.org/2000/svg">
<path fill-rule="evenodd" clip-rule="evenodd" d="M23 11.159C22.9404 17.4116 17.8207 22.4205 11.5681 22.3608C9.71111 22.3438 7.87963 21.8668 6.25259 20.9723L0 22.9571L2.03593 16.9431C0.971111 15.2053 0.417407 13.1949 0.417407 11.159C0.511111 4.92343 5.64778 -0.0513858 11.8833 0.0423179C17.9826 0.136022 22.9063 5.05973 23 11.159ZM11.713 1.74602C6.49111 1.72898 2.24037 5.94565 2.21481 11.159C2.21481 13.1438 2.84519 15.086 4.02074 16.6875L2.83667 20.1801L6.48259 19.0216C10.81 21.9349 16.6793 20.7849 19.5926 16.466C22.5059 12.1471 21.3559 6.26935 17.0285 3.35602C15.4611 2.29973 13.6041 1.7375 11.713 1.74602ZM17.4119 13.7401C17.2585 13.5953 17.0796 13.4845 16.8837 13.4164C16.6026 13.2886 15.2481 12.6157 14.9926 12.5305C14.8052 12.3942 14.5326 12.4368 14.3963 12.6242C14.3878 12.6412 14.3793 12.6497 14.3707 12.6668C14.1833 12.9394 13.6552 13.5612 13.4933 13.7401C13.3485 13.919 13.0844 13.9531 12.897 13.8082C12.0793 13.4845 11.3296 13.0245 10.6737 12.4453C10.0689 11.8916 9.54926 11.2527 9.13185 10.5457C9.01259 10.3582 9.0637 10.1112 9.24259 9.99195C9.24259 9.99195 9.25111 9.99195 9.25111 9.98343C9.37889 9.86417 9.53222 9.66824 9.66852 9.50639C9.77926 9.3701 9.87296 9.21676 9.94963 9.04639C10.0263 8.89306 10.0178 8.71417 9.92407 8.56936C9.85593 8.42454 9.30222 7.07861 9.07222 6.52491C8.84222 5.97121 8.6037 6.07343 8.44185 6.07343C8.28 6.07343 8.10111 6.04787 7.9137 6.04787C7.63259 6.05639 7.36 6.18417 7.17259 6.38861C6.54222 6.98491 6.19296 7.81121 6.20148 8.68009C6.28667 9.71935 6.68704 10.7075 7.33444 11.5168C7.47074 11.7042 9.25111 14.5664 12.0622 15.6653C14.8733 16.7642 14.8733 16.3979 15.3844 16.3553C16.1681 16.2019 16.8411 15.7249 17.25 15.0434C17.4374 14.6345 17.4885 14.1831 17.4119 13.7401Z" fill="white"/>
</svg>
