<svg width="200" height="38" viewBox="0 0 200 38" fill="none" xmlns="http://www.w3.org/2000/svg">
<path fill-rule="evenodd" clip-rule="evenodd" d="M16.8905 32.3433H10.2595L6.71479 16.2528L9.80116 1.93694H16.4733L12.72 15.7886L16.8905 32.3433ZM0 32.3433V1.93694H6.67292V32.3433H0ZM23.7713 32.3433H17.6823V9.11605H22.5615L22.6864 12.6632H22.8539C23.2292 9.91861 24.6468 8.77837 26.2318 8.77837C26.732 8.77837 27.2741 8.86241 27.6913 9.11605L27.1492 16.76C26.8158 16.6328 26.3148 16.5488 25.7728 16.5488C25.2726 16.5488 24.3963 16.7176 23.7713 17.2242V32.3433ZM43.4969 16.1263V25.333C43.4969 30.0204 40.7029 32.7658 35.9904 32.7658C31.2778 32.7658 28.4838 30.0204 28.4838 25.333V16.1263C28.4838 11.4389 31.2778 8.69357 35.9904 8.69357C40.7029 8.69357 43.4969 11.4389 43.4969 16.1263ZM37.2412 26.4309V15.0285C37.2412 13.9306 37.0326 13.3393 35.9904 13.3393C34.9474 13.3393 34.7388 13.9306 34.7388 15.0285V26.4309C34.7388 27.5287 34.9474 28.12 35.9904 28.12C37.0326 28.12 37.2412 27.5287 37.2412 26.4309ZM60.3448 32.3433H54.0891V15.7886C54.0891 14.5636 53.7968 14.0995 53.1298 14.0995C52.7545 14.0995 52.2954 14.3524 51.5867 14.8596V32.3433H45.3309V9.11605H51.4199L51.5867 12.1143C52.5459 9.87621 53.7968 8.69357 55.882 8.69357C58.7179 8.69357 60.3448 11.1429 60.3448 14.8596V32.3433ZM77.1927 21.8275H68.3508V26.3044C68.3508 27.6135 68.768 28.0776 69.7273 28.0776C70.6446 28.0776 71.0618 27.7399 71.0618 26.262V23.8967H77.1927V24.8257C77.1927 29.6827 74.9818 32.7658 69.7699 32.7658C64.8899 32.7658 62.1788 30.1052 62.1788 25.2482V16.2111C62.1788 11.3541 64.8899 8.69357 69.7699 8.69357C74.9818 8.69357 77.1927 11.7766 77.1927 16.6328V21.8275ZM71.1037 18.1115V15.2821C71.1037 13.8458 70.6446 13.2969 69.7273 13.2969C68.8099 13.2969 68.3097 13.8882 68.3097 15.1973V18.1115H71.1037ZM94.0398 32.3433H87.7849V15.7886C87.7849 14.5636 87.4925 14.0995 86.8256 14.0995C86.4503 14.0995 85.9912 14.3524 85.2824 14.8596V32.3433H79.0267V9.11605H85.1157L85.2824 12.1143C86.2417 9.87621 87.4925 8.69357 89.5778 8.69357C92.4137 8.69357 94.0398 11.1429 94.0398 14.8596V32.3433ZM114.112 32.4024H100.016V32.2327L106.332 7.41194H100.434V1.9058H114.488V2.0754L107.963 26.8962H114.112V32.4024ZM130.636 21.8557H121.77V26.345C121.77 27.6579 122.187 28.1243 123.149 28.1243C124.07 28.1243 124.488 27.7851 124.488 26.3026V23.9311H130.636V24.8624C130.636 29.7341 128.419 32.8256 123.192 32.8256C118.297 32.8256 115.579 30.1566 115.579 25.2865V16.2224C115.579 11.3515 118.297 8.68324 123.192 8.68324C128.419 8.68324 130.636 11.7755 130.636 16.6464V21.8557ZM124.53 18.1282V15.2911C124.53 13.8509 124.07 13.2997 123.149 13.2997C122.229 13.2997 121.727 13.8933 121.727 15.2055V18.1282H124.53ZM139.214 3.42997C139.214 5.29413 137.582 6.90465 135.617 6.90465C133.651 6.90465 131.978 5.29413 131.978 3.42997C131.978 1.52494 133.651 0 135.617 0C137.582 0 139.214 1.52494 139.214 3.42997ZM132.48 32.4024V9.10649H138.754V32.4024H132.48ZM150.133 27.0651V31.9783C149.338 32.4448 147.75 32.8256 146.161 32.8256C142.898 32.8256 141.141 30.7078 141.141 27.1506V13.7654H139.845V9.10649H141.225L141.644 3.85399H147.332V9.10649H149.925V13.7654H147.332V25.9634C147.332 27.2778 147.791 27.7003 148.586 27.7003C149.213 27.7003 149.757 27.4043 150.133 27.0651ZM166.282 32.4024H160.176L160.008 29.3956C159.047 31.6399 157.791 32.8256 155.7 32.8256C152.856 32.8256 151.225 30.3694 151.225 26.6418V9.10649H157.498V25.7097C157.498 26.9386 157.791 27.4043 158.46 27.4043C158.837 27.4043 159.298 27.1506 160.008 26.6418V9.10649H166.282V32.4024ZM183.184 32.4024H176.909V15.7984C176.909 14.571 176.617 14.1046 175.948 14.1046C175.572 14.1046 175.11 14.3582 174.399 14.867V32.4024H168.125V9.10649H174.233L174.399 12.114C175.362 9.86819 176.617 8.68324 178.708 8.68324C181.553 8.68324 183.184 11.1395 183.184 14.867V32.4024ZM193.811 30.0733V28.5908C192.64 29.8605 191.718 30.9198 189.419 30.9198C186.909 30.9198 185.027 28.802 185.027 25.2017V14.4006C185.027 10.801 186.909 8.68324 189.627 8.68324C191.718 8.68324 192.848 9.74175 193.811 11.0123L194.02 9.10649H200V28.4204C200 34.0961 196.863 37.9085 191.091 37.9085C188.792 37.9085 186.532 37.3156 184.985 36.3412L186.49 32.0639C187.704 32.868 189.126 33.4616 190.925 33.4616C192.932 33.4616 193.811 32.4024 193.811 30.0733ZM193.811 26.0913V13.5117C193.392 13.2573 193.016 13.1301 192.64 13.1301C191.803 13.1301 191.301 13.6805 191.301 15.0359V24.5656C191.301 25.9217 191.803 26.473 192.64 26.473C193.016 26.473 193.392 26.345 193.811 26.0913Z" fill="#FEFEFE"/>
</svg>
