<svg width="15" height="18" viewBox="0 0 15 18" fill="none" xmlns="http://www.w3.org/2000/svg"><path d="M14.9684 8.42907C14.7159 10.1292 13.9583 11.5774 12.7588 12.7738C12.0643 13.4034 11.433 14.0961 10.7385 14.7257C9.72838 15.7962 8.71825 16.9296 7.70812 18C5.56159 15.7962 3.4782 13.9072 1.52107 11.8293C0.384672 10.5699 -0.0572599 8.93281 0.00587329 7.23271C0.0690065 3.58064 2.91 0.432313 6.44546 0.0545136C10.4228 -0.386253 13.832 1.88054 14.8422 5.59558C15.0947 6.35117 14.9684 8.30314 14.9684 8.42907ZM7.51872 9.94027C8.84452 9.94027 9.98091 8.86984 9.98091 7.54754C9.98091 6.22524 8.84452 5.09184 7.58185 5.09184C6.31919 5.09184 5.11966 6.22524 5.11966 7.48457C5.11966 8.80687 6.19292 9.94027 7.51872 9.94027Z" fill="#13AAF7"/></svg>