<svg width="9" height="7" viewBox="0 0 9 7" fill="none" xmlns="http://www.w3.org/2000/svg"><path d="M8.8396 0.9677L8.04654 0.162791C7.9396 0.0542636 7.80594 0 7.65446 0C7.50297 0 7.36931 0.0542636 7.26238 0.162791L3.44852 4.03359L1.74653 2.29716C1.6396 2.18863 1.50594 2.13437 1.35446 2.13437C1.20297 2.13437 1.06931 2.18863 0.962376 2.29716L0.169307 3.10207C0.0534654 3.21059 0 3.34625 0 3.5C0 3.65375 0.0534653 3.78941 0.160396 3.89793L2.26337 6.0323L3.05644 6.83721C3.16337 6.94574 3.29703 7 3.44852 7C3.6 7 3.73366 6.94574 3.84059 6.83721L4.63366 6.0323L8.8396 1.76357C8.94653 1.65504 9 1.51938 9 1.36563C9 1.21189 8.94653 1.07623 8.8396 0.9677Z" fill="#13AAF7"/></svg>