<svg width="12" height="10" viewBox="0 0 12 10" fill="none" xmlns="http://www.w3.org/2000/svg"><path d="M11.7861 1.25114L10.7287 0.21626C10.5861 0.0767254 10.4079 0.00695801 10.2059 0.00695801C10.004 0.00695801 9.82574 0.0767254 9.68317 0.21626L4.59802 5.193L2.32871 2.96045C2.18614 2.82091 2.00792 2.75114 1.80594 2.75114C1.60396 2.75114 1.42574 2.82091 1.28317 2.96045L0.225743 3.99533C0.0712871 4.13486 0 4.30928 0 4.50696C0 4.70463 0.0712871 4.87905 0.213861 5.01859L3.01782 7.76277L4.07525 8.79766C4.21782 8.93719 4.39604 9.00696 4.59802 9.00696C4.8 9.00696 4.97822 8.93719 5.12079 8.79766L6.17822 7.76277L11.7861 2.2744C11.9287 2.13486 12 1.96045 12 1.76277C12 1.5651 11.9287 1.39068 11.7861 1.25114Z"/></svg>