<svg width="470" height="177" viewBox="0 0 470 177" fill="none" xmlns="http://www.w3.org/2000/svg"><path d="M0.5 176.361C37.8333 80.528 183.9 -79.3387 469.5 47.8613" stroke="url(#paint0_linear_302_4482)" stroke-dasharray="2 2"/><path d="M378.796 14.6212C378.048 14.807 377.783 15.7318 378.317 16.2859L385.119 23.3375C385.653 23.8916 386.587 23.6594 386.799 22.9195L389.506 13.5034C389.718 12.7636 389.05 12.071 388.303 12.2568L378.796 14.6212Z" fill="#F5803E"/><path d="M53.0388 102.098C53.7381 101.776 53.8268 100.818 53.1985 100.374L45.2017 94.7135C44.5733 94.2688 43.6992 94.671 43.6282 95.4375L42.7248 105.193C42.6538 105.96 43.4393 106.515 44.1386 106.194L53.0388 102.098Z" fill="#2F63DF"/><defs><linearGradient id="paint0_linear_302_4482" x1="235" y1="176.361" x2="235" y2=".681" gradientUnits="userSpaceOnUse"><stop stop-color="#2F63DF"/><stop offset="1" stop-color="#F5803E"/></linearGradient></defs></svg>