<svg width="470" height="177" viewBox="0 0 470 177" fill="none" xmlns="http://www.w3.org/2000/svg"><path d="M0.5 0.68042C37.8333 96.5138 183.9 256.38 469.5 129.18" stroke="url(#paint0_linear_302_4483)" stroke-dasharray="2 2"/><path d="M42.2237 69.4571C42.3088 70.2221 41.5337 70.7924 40.8286 70.4836L31.8545 66.5528C31.1494 66.2439 31.043 65.2876 31.6631 64.8313L39.5543 59.0249C40.1743 58.5687 41.0557 58.9548 41.1408 59.7199L42.2237 69.4571Z" fill="#2F63DF"/><path d="M371.945 162.135C372.678 162.368 372.884 163.308 372.315 163.827L365.073 170.425C364.504 170.944 363.587 170.652 363.423 169.9L361.329 160.329C361.164 159.577 361.876 158.929 362.609 159.162L371.945 162.135Z" fill="#30CC67"/><defs><linearGradient id="paint0_linear_302_4483" x1="235" y1=".68" x2="235" y2="176.361" gradientUnits="userSpaceOnUse"><stop stop-color="#2F63DF"/><stop offset="1" stop-color="#30CC67"/></linearGradient></defs></svg>