<svg width="22" height="22" viewBox="0 0 22 22" fill="none" xmlns="http://www.w3.org/2000/svg"><path d="M14.0798 4.83988H16.2798C16.5227 4.83988 16.7198 4.64276 16.7198 4.39988V1.4356C16.7198 1.20504 16.5425 1.0132 16.3128 0.996923C15.6127 0.947203 14.2452 0.879883 13.2618 0.879883C10.5598 0.879883 8.79979 2.49908 8.79979 5.4418V8.35988H5.71979C5.47691 8.35988 5.27979 8.557 5.27979 8.79988V11.8799C5.27979 12.1228 5.47691 12.3199 5.71979 12.3199H8.79979V20.6799C8.79979 20.9228 8.99691 21.1199 9.23979 21.1199H12.3198C12.5627 21.1199 12.7598 20.9228 12.7598 20.6799V12.3199H15.9375C16.1619 12.3199 16.3502 12.1514 16.3748 11.9283L16.7171 8.84828C16.7462 8.5878 16.542 8.35988 16.2798 8.35988H12.7598V6.15988C12.7598 5.4308 13.3507 4.83988 14.0798 4.83988Z" fill="#fff"/></svg>