<svg width="1570" height="234" viewBox="0 0 1570 234" fill="none" xmlns="http://www.w3.org/2000/svg"><path d="M1570 203.307V30.0069C1570 13.4069 1556.6 0.00694444 1540 0.00694444H1191C1191 0.00694444 1175 -0.993055 1164 21.0069C1159.7 29.6069 1154.8 35.0069 1150.4 38.4069C1143.1 44.0069 1132.9 44.0069 1125.6 38.4069C1121.2 35.0069 1116.3 29.6069 1112 21.0069C1101 -0.993055 1085 0.00694444 1085 0.00694444H30C13.4 0.00694444 0 13.4069 0 30.0069V203.307C0 219.907 13.4 233.307 30 233.307H1540C1556.6 233.307 1570 219.907 1570 203.307Z" fill="#F9FAFD"/></svg>