<svg width="691" height="136" viewBox="0 0 691 136" fill="none" xmlns="http://www.w3.org/2000/svg">
<g clip-path="url(#clip0_14_140)">
<mask id="mask0_14_140" style="mask-type:luminance" maskUnits="userSpaceOnUse" x="0" y="0" width="691" height="136">
<path d="M691 0H0V136H691V0Z" fill="white"/>
</mask>
<g mask="url(#mask0_14_140)">
<path d="M0 68V59.9119H90.0913V46.4317H2.70274C10.811 19.1718 38.1386 0 68.169 0C103.605 0 133.635 29.9559 133.635 68C133.635 106.044 103.605 136 68.169 136C38.1386 136 13.5137 116.828 2.70274 89.8678H90.0913V76.3877H0V68Z" fill="#13AAF7"/>
</g>
<mask id="mask1_14_140" style="mask-type:luminance" maskUnits="userSpaceOnUse" x="0" y="0" width="691" height="136">
<path d="M691 0H0V136H691V0Z" fill="white"/>
</mask>
<g mask="url(#mask1_14_140)">
<path d="M494.901 100.652C494.901 114.132 503.01 119.824 516.824 119.824H522.229V103.648H516.523C513.821 103.648 511.118 103.648 511.118 98.2555V0H494.901V100.652Z" fill="#13AAF7"/>
</g>
<path d="M538.445 119.824H554.662V35.348H538.445V119.824ZM538.445 19.1718H554.662V0H538.445V19.1718Z" fill="#13AAF7"/>
<mask id="mask2_14_140" style="mask-type:luminance" maskUnits="userSpaceOnUse" x="0" y="0" width="691" height="136">
<path d="M691 0H0V136H691V0Z" fill="white"/>
</mask>
<g mask="url(#mask2_14_140)">
<path d="M579.287 119.824H598.506V48.8282H614.723V35.348H598.506V24.5639C598.506 19.1718 598.506 16.4758 603.912 16.4758H614.723V0H603.912C590.398 0 579.287 8.0881 579.287 24.5639V35.348H571.179V48.8282H579.287V119.824Z" fill="#13AAF7"/>
</g>
<mask id="mask3_14_140" style="mask-type:luminance" maskUnits="userSpaceOnUse" x="0" y="0" width="691" height="136">
<path d="M691 0H0V136H691V0Z" fill="white"/>
</mask>
<g mask="url(#mask3_14_140)">
<path d="M691 84.4758V70.9956C691 49.1278 674.784 35.6476 655.564 35.6476C639.348 35.6476 620.128 46.4317 620.128 79.0837C620.128 114.432 642.05 122.52 658.267 122.52C669.078 122.52 680.189 117.128 688.297 109.04L677.486 98.2555C672.081 103.648 663.973 106.344 658.267 106.344C647.456 106.344 636.345 98.2555 636.345 84.4758H691ZM636.645 70.696C639.348 57.2159 644.753 51.5242 655.864 51.5242C666.675 51.5242 672.381 56.9163 675.084 70.696H636.645Z" fill="#13AAF7"/>
</g>
<mask id="mask4_14_140" style="mask-type:luminance" maskUnits="userSpaceOnUse" x="0" y="0" width="691" height="136">
<path d="M691 0H0V136H691V0Z" fill="white"/>
</mask>
<g mask="url(#mask4_14_140)">
<path d="M230.333 84.4758V70.9956C230.333 49.1278 213.817 35.6476 197.6 35.6476C178.381 35.6476 162.164 46.4317 162.164 79.0837C162.164 114.432 181.384 122.52 200.303 122.52C211.114 122.52 222.225 119.824 230.333 109.04L216.82 98.2555C211.414 103.648 206.009 106.344 197.6 106.344C186.789 106.344 178.381 100.952 178.381 84.4758H230.333ZM178.381 70.696C178.381 57.2159 186.489 51.5242 197.6 51.5242C205.708 51.5242 213.817 56.9163 213.817 70.696H178.381Z" fill="#1D1D1B"/>
</g>
<mask id="mask5_14_140" style="mask-type:luminance" maskUnits="userSpaceOnUse" x="0" y="0" width="691" height="136">
<path d="M691 0H0V136H691V0Z" fill="white"/>
</mask>
<g mask="url(#mask5_14_140)">
<path d="M317.422 35.348V122.52L301.205 111.736C295.8 119.824 287.691 122.52 279.283 122.52C265.769 122.52 249.253 111.736 249.253 92.5639V35.348H265.469V87.1718C265.469 97.9559 273.577 106.344 284.688 106.344C292.797 106.344 300.905 98.2555 300.905 87.1718V35.348H317.422Z" fill="#1D1D1B"/>
</g>
<mask id="mask6_14_140" style="mask-type:luminance" maskUnits="userSpaceOnUse" x="0" y="0" width="691" height="136">
<path d="M691 0H0V136H691V0Z" fill="white"/>
</mask>
<g mask="url(#mask6_14_140)">
<path d="M339.344 35.348L358.563 46.1322C363.969 38.0441 372.077 35.348 380.485 35.348C388.594 35.348 393.999 38.0441 399.705 40.7401L386.191 56.9163C383.488 54.2203 380.786 51.5242 375.38 51.5242C367.272 51.5242 359.164 56.9163 359.164 70.696V122.52H339.344V35.348Z" fill="#1D1D1B"/>
</g>
<mask id="mask7_14_140" style="mask-type:luminance" maskUnits="userSpaceOnUse" x="0" y="0" width="691" height="136">
<path d="M691 0H0V136H691V0Z" fill="white"/>
</mask>
<g mask="url(#mask7_14_140)">
<path d="M399.405 79.0837C399.405 97.6564 401.807 104.546 408.714 112.035C413.819 117.128 421.327 123.119 434.84 123.119C448.354 123.119 455.862 117.128 460.967 112.035C467.874 104.546 470.276 97.6564 470.276 79.0837C470.276 60.511 467.874 53.022 460.967 46.1322C455.862 41.0397 448.354 35.0485 434.84 35.0485C421.327 35.0485 413.819 41.0397 408.714 46.1322C402.107 52.7225 399.405 60.511 399.405 79.0837ZM452.859 79.0837C452.859 91.6652 451.958 95.2599 448.654 99.4537C446.252 102.749 441.147 105.445 435.141 105.445C429.135 105.445 424.03 103.048 420.726 99.4537C418.324 95.2599 416.522 91.9648 416.522 79.0837C416.522 66.2026 418.324 62.9075 420.726 58.7137C424.03 54.5198 429.135 51.8238 435.141 51.8238C441.147 51.8238 446.252 54.2203 448.654 58.7137C451.958 62.9075 452.859 66.2026 452.859 79.0837Z" fill="#1D1D1B"/>
</g>
</g>
<defs>
<clipPath id="clip0_14_140">
<rect width="691" height="136" fill="white"/>
</clipPath>
</defs>
</svg>
