<svg width="4" height="10" viewBox="0 0 4 10" fill="none" xmlns="http://www.w3.org/2000/svg"><path d="M2.97656 1.38867C2.83984 1.52539 2.67188 1.59375 2.47266 1.59375C2.27344 1.59375 2.10742 1.52734 1.97461 1.39453C1.8418 1.26172 1.77539 1.08203 1.77539 0.855469C1.77539 0.636719 1.8418 0.460938 1.97461 0.328125C2.10742 0.195312 2.27344 0.128906 2.47266 0.128906C2.67188 0.128906 2.83984 0.195312 2.97656 0.328125C3.11328 0.460938 3.18164 0.636719 3.18164 0.855469C3.18164 1.07422 3.11328 1.25195 2.97656 1.38867ZM1.88672 2.73633C2.23828 2.73633 2.44727 2.91797 2.51367 3.28125C2.58008 3.64453 2.54688 4.08203 2.41406 4.59375L1.79883 7.3418C1.74414 7.62305 1.7168 7.81641 1.7168 7.92188C1.7168 8.16016 1.80859 8.2793 1.99219 8.2793C2.17969 8.2832 2.47656 8.15625 2.88281 7.89844L2.95312 8.08594C2.75 8.32812 2.47266 8.56641 2.12109 8.80078C1.76953 9.03516 1.47852 9.1543 1.24805 9.1582C0.615234 9.1582 0.439453 8.53711 0.720703 7.29492L1.33008 4.54688C1.38867 4.32422 1.41797 4.11328 1.41797 3.91406C1.42188 3.48047 1.0332 3.50781 0.251953 3.99609L0.181641 3.80273C0.380859 3.56445 0.65625 3.32812 1.00781 3.09375C1.35938 2.85938 1.65234 2.74023 1.88672 2.73633Z" fill="#fff"/></svg>