<svg width="93" height="17" viewBox="0 0 93 17" fill="none" xmlns="http://www.w3.org/2000/svg"><path d="M0 0.0341797H5.00657L7.15705 4.70474L4.63696 9.81212L0 0.0341797Z" fill="#fff"/><path d="M20.229 0.0341797L16.8017 7.56084L14.1808 2.08385H9.30859L14.0464 12.7018H19.2545L25.2691 0.0341797H20.229Z" fill="#fff"/><path d="M14.28 2.08301H9.23985L2.82202 16.1619H7.59339L14.28 2.08301Z" fill="#13AAF7"/><path d="M40.3573 1.54565C41.3317 2.55369 41.8357 3.76333 41.8357 5.20818C41.8357 6.65303 41.3317 7.86267 40.3573 8.87071C39.3828 9.87874 38.1732 10.3828 36.7956 10.3828C35.5187 10.3828 34.4435 9.97955 33.5362 9.17312C32.629 8.36669 32.0578 7.35866 31.8562 6.14901H30.5121V10.1812H28.3953V0.235208H30.5121V4.13294H31.8562C32.0578 2.9905 32.629 2.01607 33.5362 1.20964C34.4435 0.403214 35.5523 0 36.7956 0C38.1732 0.0336012 39.3492 0.537619 40.3573 1.54565ZM38.8452 7.52666C39.4164 6.92184 39.7189 6.11541 39.7189 5.20818C39.7189 4.30095 39.4164 3.49452 38.8452 2.8897C38.274 2.28488 37.602 1.94887 36.7956 1.94887C35.9891 1.94887 35.3171 2.25128 34.7459 2.8897C34.1747 3.49452 33.8723 4.30095 33.8723 5.20818C33.8723 6.11541 34.1747 6.92184 34.7459 7.52666C35.3171 8.13148 35.9891 8.46749 36.7956 8.46749C37.602 8.46749 38.274 8.16508 38.8452 7.52666Z" fill="#13AAF7"/><path d="M50.0685 10.1809H45.5659V0.234985H49.8333C50.7405 0.234985 51.4797 0.503795 52.0509 1.00781C52.6222 1.54543 52.9246 2.15025 52.9246 2.85588C52.9246 3.12469 52.891 3.35989 52.8238 3.5951C52.7566 3.83031 52.6558 4.03192 52.555 4.19992C52.4542 4.36793 52.3197 4.50233 52.2189 4.60314C52.1181 4.70394 52.0173 4.80474 51.9501 4.83835L51.8157 4.90555C51.8493 4.93915 51.9165 4.93915 51.9837 4.97275C52.0509 5.00635 52.1853 5.10715 52.387 5.24156C52.5886 5.37596 52.7566 5.51037 52.891 5.67837C53.0254 5.84638 53.1598 6.04799 53.2942 6.3504C53.4286 6.61921 53.4622 6.92162 53.4622 7.25763C53.4622 8.06406 53.1598 8.73608 52.5214 9.3073C51.8493 9.87852 51.0429 10.1809 50.0685 10.1809ZM49.6653 2.01585H47.7164V4.13272H49.6989C50.0349 4.13272 50.3373 4.03192 50.5389 3.83031C50.7405 3.6287 50.8413 3.3935 50.8413 3.05748C50.8413 2.72147 50.7405 2.48626 50.5389 2.28466C50.3037 2.11665 50.0349 2.01585 49.6653 2.01585ZM47.7164 8.40007H49.9677C50.3709 8.40007 50.6733 8.26567 50.9421 8.03046C51.2109 7.79525 51.3117 7.49284 51.3117 7.12323C51.3117 6.75361 51.1773 6.4512 50.9421 6.21599C50.6733 5.98079 50.3709 5.84638 49.9677 5.84638H47.7164V8.40007Z" fill="#fff"/><path d="M66.0612 10.1809H63.9444V3.86391L59.0722 10.1809H57.2241V0.234985H59.341V6.55201L64.2132 0.234985H66.0612V10.1809Z" fill="#fff"/><path d="M78.6636 0.234985V10.1473H76.5467V2.15025H73.657V3.29269C73.657 4.70394 73.5898 5.87998 73.4218 6.82082C73.2538 7.76165 73.0522 8.50087 72.7498 9.00489C72.4474 9.50891 72.1114 9.87852 71.7417 10.0801C71.3721 10.2817 70.9353 10.3825 70.3977 10.3825C70.1961 10.3825 69.9945 10.3489 69.7593 10.3153C69.5577 10.2817 69.3897 10.2145 69.2889 10.1809L69.1208 10.1137V8.09766C69.3561 8.19846 69.5913 8.23206 69.8265 8.23206C70.1961 8.23206 70.4985 8.13126 70.7337 7.89605C70.9689 7.66084 71.1369 7.19043 71.3049 6.4512C71.4729 5.71198 71.5401 4.63674 71.5401 3.29269V0.234985H78.6636Z" fill="#fff"/><path d="M87.801 0.0341797C88.3386 0.0341797 88.809 0.101382 89.2794 0.235787C89.7499 0.370191 90.1531 0.538197 90.4219 0.739804C90.7243 0.941411 90.9931 1.14302 91.2283 1.31102C91.4635 1.51263 91.6315 1.68064 91.7323 1.81504L91.9003 2.01665L90.5563 3.3607C90.5227 3.32709 90.4891 3.25989 90.4555 3.19269C90.4219 3.12549 90.2875 3.02468 90.1195 2.85668C89.9515 2.68867 89.7835 2.55427 89.5819 2.41986C89.3802 2.28546 89.1114 2.18465 88.809 2.08385C88.473 1.98305 88.1706 1.91585 87.8346 1.91585C86.8938 1.91585 86.1209 2.21826 85.5161 2.85668C84.8777 3.4951 84.5753 4.26793 84.5753 5.17516C84.5753 6.11599 84.8777 6.88882 85.5161 7.49364C86.1545 8.13206 86.9274 8.43447 87.8346 8.43447C88.2042 8.43447 88.5402 8.40087 88.8762 8.30007C89.2122 8.19926 89.481 8.09846 89.6827 7.93045C89.8843 7.79605 90.0859 7.66165 90.2539 7.52724C90.4219 7.39284 90.5563 7.25843 90.6235 7.15763L90.7243 7.02322L92.0011 8.36727C91.9675 8.43447 91.9003 8.50167 91.8331 8.56888C91.7659 8.66968 91.5979 8.80408 91.3291 9.03929C91.0603 9.2745 90.7915 9.47611 90.4891 9.64411C90.1867 9.81212 89.8171 9.98013 89.313 10.1145C88.8426 10.2489 88.3386 10.3161 87.801 10.3161C86.2889 10.3161 85.0121 9.81212 83.9705 8.80409C82.9288 7.79605 82.4248 6.58641 82.4248 5.14156C82.4248 3.73031 82.9288 2.48707 83.9705 1.47903C85.0121 0.538197 86.2889 0.0341797 87.801 0.0341797Z" fill="#fff"/><path d="M29.3328 16.1278H28.3584V13.8429H29.2992C29.5008 13.8429 29.6352 13.9101 29.7696 14.0109C29.9041 14.1453 29.9713 14.2797 29.9713 14.4477C29.9713 14.5485 29.9377 14.6157 29.9041 14.7165C29.8705 14.7837 29.8368 14.8509 29.8032 14.8845L29.736 14.9181C29.736 14.9181 29.7696 14.9181 29.7696 14.9517C29.7696 14.9517 29.8032 14.9853 29.8369 15.0189C29.8705 15.0525 29.9041 15.0861 29.9377 15.1197C29.9713 15.1533 30.0049 15.2205 30.0049 15.2877C30.0385 15.3549 30.0385 15.4222 30.0385 15.4894C30.0385 15.6574 29.9713 15.8254 29.8369 15.9598C29.7024 16.0606 29.5344 16.1278 29.3328 16.1278ZM29.2656 14.1453H28.6944V14.7837H29.2656C29.3664 14.7837 29.4336 14.7501 29.5008 14.6829C29.568 14.6157 29.6016 14.5485 29.6016 14.4477C29.6016 14.3469 29.568 14.2797 29.5008 14.2125C29.4336 14.1789 29.3664 14.1453 29.2656 14.1453ZM28.6944 15.8254H29.3328C29.4336 15.8254 29.5344 15.7918 29.6016 15.7246C29.6688 15.6574 29.7024 15.5566 29.7024 15.4558C29.7024 15.3549 29.6688 15.2541 29.6016 15.1869C29.5344 15.1197 29.4336 15.0861 29.3328 15.0861H28.6944V15.8254Z" fill="#fff"/><path d="M30.5767 16.1278L31.5175 13.8429H31.8871L32.8279 16.1278H32.4583L32.2231 15.523H31.2151L30.9799 16.1278H30.5767ZM31.7191 14.2461L31.3495 15.1869H32.0887L31.7191 14.2461Z" fill="#fff"/><path d="M36.3219 13.8429V16.1278H33.5667V13.8429H33.9363V15.8254H34.7763V13.8429H35.1459V15.8254H35.9859V13.8429H36.3219Z" fill="#fff"/><path d="M39.2457 16.1278H38.8761V14.4813L37.5993 16.1278H37.2969V13.8429H37.6665V15.4894L38.9433 13.8429H39.2457V16.1278Z" fill="#fff"/><path d="M42.201 16.1278H41.2266V13.8429H42.1674C42.369 13.8429 42.5034 13.9101 42.6378 14.0109C42.7722 14.1453 42.8394 14.2797 42.8394 14.4477C42.8394 14.5485 42.8058 14.6157 42.7722 14.7165C42.7386 14.7837 42.705 14.8509 42.6714 14.8845L42.6042 14.9181C42.6042 14.9181 42.6378 14.9181 42.6378 14.9517C42.6378 14.9517 42.6714 14.9853 42.705 15.0189C42.7386 15.0525 42.7722 15.0861 42.8058 15.1197C42.8394 15.1533 42.873 15.2205 42.873 15.2877C42.9066 15.3549 42.9066 15.4222 42.9066 15.4894C42.9066 15.6574 42.8394 15.8254 42.705 15.9598C42.5706 16.0606 42.4026 16.1278 42.201 16.1278ZM42.1338 14.1453H41.5626V14.7837H42.1338C42.2346 14.7837 42.3018 14.7501 42.369 14.6829C42.4362 14.6157 42.4698 14.5485 42.4698 14.4477C42.4698 14.3469 42.4362 14.2797 42.369 14.2125C42.3018 14.1789 42.2346 14.1453 42.1338 14.1453ZM41.5626 15.8254H42.201C42.3018 15.8254 42.4026 15.7918 42.4698 15.7246C42.537 15.6574 42.5706 15.5566 42.5706 15.4558C42.5706 15.3549 42.537 15.2541 42.4698 15.1869C42.4026 15.1197 42.3018 15.0861 42.201 15.0861H41.5626V15.8254Z" fill="#fff"/><path d="M44.0172 15.8248C43.782 15.5896 43.6812 15.3208 43.6812 14.9848C43.6812 14.6487 43.782 14.3799 44.0172 14.1447C44.2524 13.9095 44.5212 13.8087 44.8908 13.8087C45.2268 13.8087 45.5292 13.9095 45.7644 14.1447C45.9996 14.3799 46.1004 14.6487 46.1004 14.9848C46.1004 15.3208 45.9996 15.5896 45.7644 15.8248C45.5292 16.06 45.2604 16.1608 44.8908 16.1608C44.5212 16.1608 44.2524 16.06 44.0172 15.8248ZM44.2524 14.3799C44.0844 14.5479 44.0172 14.7495 44.0172 14.9848C44.0172 15.22 44.0844 15.4216 44.2524 15.5896C44.4204 15.7576 44.622 15.8248 44.8572 15.8248C45.0924 15.8248 45.294 15.7576 45.462 15.5896C45.63 15.4216 45.6972 15.22 45.6972 14.9848C45.6972 14.7495 45.63 14.5479 45.462 14.3799C45.294 14.2119 45.0924 14.1447 44.8572 14.1447C44.622 14.1447 44.4204 14.2119 44.2524 14.3799Z" fill="#fff"/><path d="M47.9816 14.9178C47.9816 14.9178 48.0152 14.9178 48.0152 14.9514C48.0488 14.9514 48.0824 14.985 48.116 15.0186C48.1496 15.0522 48.2168 15.0858 48.2504 15.1194C48.284 15.153 48.3176 15.2202 48.3512 15.2874C48.3848 15.3546 48.3848 15.4218 48.3848 15.5226C48.3848 15.7243 48.3176 15.8587 48.1496 15.9931C47.9816 16.1275 47.78 16.1947 47.5112 16.1947C47.4104 16.1947 47.3096 16.1947 47.2088 16.1611C47.108 16.1275 47.0408 16.0939 46.9736 16.0603C46.9064 16.0267 46.8392 15.9931 46.8056 15.9595C46.7383 15.9259 46.7047 15.8923 46.7047 15.8587L46.6711 15.8251L46.9064 15.5898C46.9064 15.5898 46.9064 15.5898 46.94 15.6235C46.94 15.6235 46.9736 15.6571 47.0072 15.6907C47.0408 15.7243 47.108 15.7579 47.1416 15.7915C47.1752 15.8251 47.2424 15.8251 47.3096 15.8587C47.3768 15.8923 47.444 15.8923 47.5448 15.8923C47.7128 15.8923 47.8472 15.8587 47.9144 15.7915C48.0152 15.7243 48.0488 15.6234 48.0488 15.5226C48.0488 15.4218 48.0152 15.321 47.9144 15.2538C47.8136 15.1866 47.6792 15.153 47.5448 15.153H47.276V14.817H47.5448C47.6792 14.817 47.78 14.7834 47.8472 14.7162C47.9144 14.649 47.948 14.5818 47.948 14.481C47.948 14.3802 47.9144 14.313 47.8472 14.2794C47.78 14.2458 47.6792 14.1786 47.5448 14.1786C47.444 14.1786 47.3432 14.2122 47.276 14.2458C47.1752 14.2794 47.108 14.313 47.0744 14.3802L47.0072 14.4474L46.7719 14.2122L46.8056 14.1786C46.8056 14.1786 46.8392 14.145 46.9064 14.1114C46.9736 14.0778 47.0072 14.0442 47.0744 14.0106C47.1416 13.977 47.2088 13.9434 47.3096 13.9434C47.4104 13.9098 47.4776 13.9098 47.5784 13.9098C47.8136 13.9098 48.0152 13.977 48.1496 14.0778C48.284 14.1786 48.3512 14.3466 48.3512 14.5146C48.3512 14.5818 48.3512 14.649 48.3176 14.7162C48.284 14.7834 48.284 14.817 48.2504 14.8506C48.2168 14.8842 48.1832 14.9178 48.1496 14.9514C48.116 14.985 48.0824 14.985 48.0824 15.0186L47.9816 14.9178Z" fill="#fff"/><path d="M50.4344 14.9517L51.308 13.8429H51.6105V16.1278H51.2408V14.4477L50.4008 15.4894L49.5608 14.4477V16.1278H49.1912V13.8429H49.4936L50.4344 14.9517Z" fill="#fff"/><path d="M52.8531 15.8248C52.6179 15.5896 52.5171 15.3208 52.5171 14.9848C52.5171 14.6487 52.6179 14.3799 52.8531 14.1447C53.0883 13.9095 53.3571 13.8087 53.7267 13.8087C54.0627 13.8087 54.3652 13.9095 54.6004 14.1447C54.8356 14.3799 54.9364 14.6487 54.9364 14.9848C54.9364 15.3208 54.8356 15.5896 54.6004 15.8248C54.3652 16.06 54.0963 16.1608 53.7267 16.1608C53.3571 16.1608 53.0883 16.06 52.8531 15.8248ZM53.0883 14.3799C52.9203 14.5479 52.8531 14.7495 52.8531 14.9848C52.8531 15.22 52.9203 15.4216 53.0883 15.5896C53.2563 15.7576 53.4579 15.8248 53.6931 15.8248C53.9283 15.8248 54.1299 15.7576 54.298 15.5896C54.466 15.4216 54.5332 15.22 54.5332 14.9848C54.5332 14.7495 54.466 14.5479 54.298 14.3799C54.1299 14.2119 53.9283 14.1447 53.6931 14.1447C53.4579 14.1447 53.2563 14.2119 53.0883 14.3799Z" fill="#fff"/><path d="M56.7845 16.1278V15.2877L56.5493 15.0525L55.8101 16.1278H55.3733L56.3141 14.7837L55.4405 13.8429H55.9109L56.7845 14.8173V13.8429H57.1542V14.8173L58.0614 13.8429H58.5318L57.6582 14.7837L58.599 16.1278H58.1286L57.3894 15.0525L57.1542 15.2877V16.1278H56.7845Z" fill="#fff"/><path d="M61.0848 13.8429V16.1278H60.7152V15.1197H59.5727V16.1278H59.2031V13.8429H59.5727V14.8173H60.7152V13.8429H61.0848Z" fill="#fff"/><path d="M62.2955 15.8248C62.0603 15.5896 61.9595 15.3208 61.9595 14.9848C61.9595 14.6487 62.0603 14.3799 62.2955 14.1447C62.5307 13.9095 62.7995 13.8087 63.1691 13.8087C63.5051 13.8087 63.8075 13.9095 64.0427 14.1447C64.278 14.3799 64.3788 14.6487 64.3788 14.9848C64.3788 15.3208 64.278 15.5896 64.0427 15.8248C63.8075 16.06 63.5387 16.1608 63.1691 16.1608C62.7995 16.1608 62.5307 16.06 62.2955 15.8248ZM62.5643 14.3799C62.3963 14.5479 62.3291 14.7495 62.3291 14.9848C62.3291 15.22 62.3963 15.4216 62.5643 15.5896C62.7323 15.7576 62.9339 15.8248 63.1691 15.8248C63.4043 15.8248 63.6059 15.7576 63.7739 15.5896C63.9419 15.4216 64.0091 15.22 64.0091 14.9848C64.0091 14.7495 63.9419 14.5479 63.7739 14.3799C63.6059 14.2119 63.4043 14.1447 63.1691 14.1447C62.9339 14.1447 62.7323 14.2119 62.5643 14.3799Z" fill="#fff"/><path d="M66.2931 13.8087C66.3939 13.8087 66.5283 13.8087 66.6292 13.8423C66.73 13.8759 66.8308 13.9095 66.898 13.9431C66.9652 13.9767 67.0324 14.0439 67.066 14.0775C67.1332 14.1111 67.1668 14.1447 67.1668 14.1783L67.2004 14.2119L66.9652 14.4471C66.9652 14.4471 66.9652 14.4135 66.9316 14.4135C66.9316 14.4135 66.898 14.3799 66.8644 14.3463C66.8308 14.3127 66.7636 14.2791 66.73 14.2455C66.6628 14.2119 66.6292 14.1783 66.5283 14.1783C66.4611 14.1447 66.3603 14.1447 66.2595 14.1447C66.0243 14.1447 65.8227 14.2119 65.6547 14.3799C65.4867 14.5479 65.4195 14.7495 65.4195 14.9848C65.4195 15.22 65.4867 15.4216 65.6547 15.5896C65.8227 15.7576 66.0243 15.8248 66.2595 15.8248C66.3603 15.8248 66.4275 15.8248 66.5283 15.7912C66.5955 15.7576 66.6628 15.724 66.73 15.6904C66.7972 15.6568 66.8308 15.6232 66.8644 15.5896C66.898 15.556 66.9316 15.5224 66.9652 15.4888L66.9988 15.4552L67.234 15.6904C67.234 15.6904 67.2004 15.724 67.2004 15.7576C67.1668 15.7912 67.1332 15.8248 67.0996 15.8584C67.0324 15.9256 66.9652 15.9592 66.898 15.9928C66.8308 16.0264 66.73 16.06 66.6292 16.0936C66.5283 16.1272 66.3939 16.1272 66.2931 16.1272C65.9571 16.1272 65.6547 16.0264 65.4195 15.7912C65.1843 15.556 65.0835 15.2872 65.0835 14.9512C65.0835 14.6151 65.1843 14.3463 65.4195 14.1111C65.6547 13.9095 65.9571 13.8087 66.2931 13.8087Z" fill="#fff"/><path d="M67.7715 13.8429H69.5187V14.1789H68.8467V16.1278H68.4771V14.1789H67.8051V13.8429H67.7715Z" fill="#fff"/><path d="M72.1749 16.1278H71.8053V14.4813L70.5285 16.1278H70.2261V13.8429H70.5957V15.4894L71.8725 13.8429H72.1749V16.1278Z" fill="#fff"/><path d="M75.9367 13.8429V16.1278H75.5671V14.1789H74.7271V14.5485C74.7271 14.8845 74.7271 15.1533 74.6935 15.3886C74.6599 15.6238 74.6263 15.7918 74.559 15.8926C74.4918 15.9934 74.4246 16.0942 74.3574 16.1278C74.2902 16.1614 74.1894 16.195 74.0886 16.195C74.055 16.195 74.0214 16.195 73.9542 16.195C73.9206 16.195 73.887 16.1614 73.8534 16.1614H73.8198V15.8254C73.887 15.859 73.9542 15.859 73.9878 15.859C74.055 15.859 74.0886 15.859 74.1558 15.8254C74.1894 15.7918 74.2566 15.7246 74.2902 15.6574C74.3238 15.5566 74.3574 15.4558 74.391 15.2541C74.4246 15.0861 74.4246 14.8509 74.4246 14.5821V13.9101H75.9367V13.8429Z" fill="#fff"/><path d="M78.861 16.1278H78.4914V14.4813L77.2145 16.1278H76.9121V13.8429H77.2817V15.4894L78.5586 13.8429H78.861V16.1278Z" fill="#fff"/><path d="M80.9789 14.9172C80.9789 14.9172 81.0125 14.9172 81.0125 14.9508C81.0461 14.9508 81.0797 14.9844 81.1133 15.018C81.1469 15.0517 81.2141 15.0853 81.2477 15.1189C81.2813 15.1525 81.3149 15.2197 81.3485 15.2869C81.3821 15.3541 81.3821 15.4213 81.3821 15.5221C81.3821 15.7237 81.3149 15.8581 81.1469 15.9925C80.9789 16.1269 80.7773 16.1941 80.5085 16.1941C80.4077 16.1941 80.3069 16.1941 80.2061 16.1605C80.1053 16.1269 80.0381 16.0933 79.9709 16.0597C79.9037 16.0261 79.8365 15.9925 79.8029 15.9589C79.7357 15.9253 79.7021 15.8917 79.7021 15.8581L79.6685 15.8245L79.9037 15.5893C79.9037 15.5893 79.9037 15.5893 79.9373 15.6229C79.9373 15.6229 79.9709 15.6565 80.0045 15.6901C80.0381 15.7237 80.1053 15.7573 80.1389 15.7909C80.1725 15.8245 80.2397 15.8245 80.3069 15.8581C80.3741 15.8917 80.4413 15.8917 80.5421 15.8917C80.7101 15.8917 80.8445 15.8581 80.9117 15.7909C81.0125 15.7237 81.0461 15.6229 81.0461 15.5221C81.0461 15.4213 81.0125 15.3205 80.9117 15.2533C80.8109 15.1861 80.6765 15.1525 80.5421 15.1525H80.2733V14.8164H80.5421C80.6765 14.8164 80.7773 14.7828 80.8445 14.7156C80.9117 14.6484 80.9453 14.5812 80.9453 14.4804C80.9453 14.3796 80.9117 14.3124 80.8445 14.2788C80.7773 14.2452 80.6429 14.1444 80.5085 14.1444C80.4077 14.1444 80.3069 14.178 80.2397 14.2116C80.1389 14.2452 80.0717 14.2788 80.0381 14.346L79.9709 14.4132L79.7357 14.178L79.7693 14.1444C79.7693 14.1444 79.8029 14.1108 79.8701 14.0772C79.9373 14.0436 79.9709 14.01 80.0381 13.9764C80.1053 13.9428 80.1725 13.9092 80.2733 13.9092C80.3741 13.8756 80.4413 13.8756 80.5421 13.8756C80.7773 13.8756 80.9789 13.9428 81.1133 14.0436C81.2477 14.1444 81.3149 14.3124 81.3149 14.4804C81.3149 14.5476 81.3149 14.6148 81.2813 14.682C81.2477 14.7492 81.2477 14.7828 81.2141 14.8164C81.1805 14.85 81.1469 14.8836 81.1133 14.9172C81.0797 14.9508 81.0461 14.9508 81.0461 14.9844L80.9789 14.9172Z" fill="#fff"/><path d="M84.203 16.1278H83.8334V14.4813L82.5566 16.1278H82.2542V13.8429H82.6238V15.4894L83.9006 13.8429H84.203V16.1278Z" fill="#fff"/><path d="M87.026 13.8429V16.1278H86.6563V15.1197H85.5139V16.1278H85.1443V13.8429H85.5139V14.8173H86.6563V13.8429H87.026Z" fill="#fff"/><path d="M88.0005 16.1278V13.8429H89.4789V14.1789H88.3701V16.1278H88.0005Z" fill="#fff"/><path d="M89.7146 16.1278L90.6554 13.8429H91.025L91.9659 16.1278H91.5963L91.3611 15.523H90.353L90.1178 16.1278H89.7146ZM90.857 14.2461L90.4874 15.1869H91.2267L90.857 14.2461Z" fill="#fff"/></svg>