<svg width="99" height="99" viewBox="0 0 99 99" fill="none" xmlns="http://www.w3.org/2000/svg"><path d="M98.806 50.3357L98.7553 51.5278C98.743 51.819 98.6383 52.0565 98.4414 52.2402C98.2444 52.4239 98.0047 52.5097 97.7223 52.4977C97.4413 52.4858 97.2097 52.3792 97.0277 52.1779C96.847 51.9782 96.7629 51.7334 96.7752 51.4437L96.8114 50.5897L95.6436 50.5401L95.6579 50.202L98.806 50.3357ZM98.4392 51.5143L98.4755 50.6604L97.1276 50.6031L97.0913 51.4571C97.0827 51.6605 97.1372 51.8263 97.2549 51.9545C97.3726 52.0826 97.5332 52.151 97.7366 52.1597C97.9401 52.1683 98.1058 52.1138 98.234 51.9961C98.3622 51.8783 98.4306 51.7178 98.4392 51.5143Z" fill="#1C1C1C"/><path d="M98.5906 54.5896L98.4574 55.5716C98.3958 56.0259 98.1904 56.3898 97.8414 56.6632C97.4924 56.9367 97.1038 57.0443 96.6756 56.9863C96.2474 56.9282 95.9015 56.7209 95.638 56.3643C95.3744 56.0078 95.2735 55.6023 95.3351 55.148L95.4683 54.166L98.5906 54.5896ZM98.1439 55.529L98.2316 54.8824L95.7342 54.5436L95.6465 55.1903C95.5968 55.556 95.6764 55.8795 95.8851 56.1606C96.0939 56.4417 96.3717 56.6058 96.7186 56.6528C97.067 56.7001 97.3792 56.6161 97.6553 56.4007C97.9314 56.1854 98.0942 55.8948 98.1439 55.529Z" fill="#1C1C1C"/><path d="M97.8599 59.4233L97.3875 61.5084L97.0789 61.4384L97.4765 59.6834L96.4244 59.445L96.1063 60.8486L95.7977 60.7787L96.1158 59.375L94.7121 59.057L94.7869 58.727L97.8599 59.4233Z" fill="#1C1C1C"/><path d="M94.5064 69.9273L93.981 70.9986C93.8527 71.2603 93.6614 71.4357 93.4073 71.5248C93.1531 71.6138 92.8991 71.5961 92.6453 71.4716C92.3928 71.3478 92.2236 71.1571 92.1378 70.8997C92.0526 70.6442 92.0739 70.3862 92.2016 70.1258L92.578 69.3584L91.5285 68.8437L91.6775 68.5399L94.5064 69.9273ZM93.697 70.8592L94.0733 70.0918L92.8621 69.4977L92.4857 70.2652C92.396 70.448 92.3793 70.6217 92.4356 70.7864C92.4919 70.951 92.6115 71.0782 92.7943 71.1678C92.9771 71.2575 93.1508 71.2742 93.3155 71.2179C93.4801 71.1616 93.6073 71.042 93.697 70.8592Z" fill="#1C1C1C"/><path d="M92.5972 73.733L92.0807 74.5787C91.8417 74.97 91.5075 75.2207 91.078 75.3309C90.6486 75.441 90.2494 75.3835 89.8806 75.1583C89.5119 74.933 89.2784 74.6042 89.1803 74.1718C89.0822 73.7395 89.1527 73.3276 89.3917 72.9363L89.9082 72.0906L92.5972 73.733ZM91.8107 74.4138L92.1508 73.8568L90 72.5432L89.6598 73.1001C89.4674 73.4152 89.4103 73.7433 89.4885 74.0846C89.5667 74.4259 89.7552 74.6877 90.054 74.8702C90.354 75.0535 90.6737 75.102 91.013 75.0157C91.3524 74.9294 91.6182 74.7288 91.8107 74.4138Z" fill="#1C1C1C"/><path d="M89.9782 77.8699L88.7079 79.5896L88.4534 79.4016L89.5226 77.9541L88.6548 77.3131L87.7997 78.4708L87.5452 78.2828L88.4003 77.1251L87.2427 76.27L87.4437 75.9979L89.9782 77.8699Z" fill="#1C1C1C"/><path d="M82.7013 86.129L81.793 86.9026C81.571 87.0916 81.3258 87.1764 81.0572 87.1569C80.7885 87.1375 80.5626 87.0201 80.3793 86.8049C80.1969 86.5908 80.1176 86.3485 80.1414 86.0782C80.1649 85.8099 80.2871 85.5817 80.508 85.3937L81.1587 84.8395L80.4008 83.9496L80.6584 83.7302L82.7013 86.129ZM81.5878 86.6617L82.2386 86.1075L81.3638 85.0804L80.7131 85.6346C80.5581 85.7666 80.4736 85.9193 80.4597 86.0928C80.4458 86.2663 80.5049 86.4305 80.6369 86.5855C80.7689 86.7405 80.9216 86.825 81.0951 86.8389C81.2686 86.8528 81.4328 86.7937 81.5878 86.6617Z" fill="#1C1C1C"/><path d="M79.3883 88.8918L78.5764 89.46C78.2008 89.7229 77.7941 89.8189 77.3565 89.7479C76.9188 89.6769 76.5761 89.4644 76.3283 89.1104C76.0806 88.7563 75.9983 88.3616 76.0815 87.9261C76.1647 87.4906 76.3941 87.1414 76.7698 86.8785L77.5816 86.3103L79.3883 88.8918ZM78.395 89.2008L78.9296 88.8266L77.4846 86.7618L76.9499 87.136C76.6475 87.3476 76.4638 87.6255 76.3988 87.9695C76.3339 88.3136 76.4018 88.629 76.6025 88.9158C76.8041 89.2039 77.0776 89.3763 77.4231 89.4331C77.7686 89.4899 78.0925 89.4125 78.395 89.2008Z" fill="#1C1C1C"/><path d="M75.3417 91.629L73.4891 92.696L73.3312 92.4218L74.8906 91.5237L74.3521 90.5888L73.105 91.307L72.9471 91.0329L74.1942 90.3146L73.476 89.0674L73.7692 88.8985L75.3417 91.629Z" fill="#1C1C1C"/><path d="M65.3708 96.28L64.2279 96.6225C63.9487 96.7062 63.69 96.6851 63.4519 96.5591C63.2139 96.4332 63.0543 96.2348 62.9731 95.964C62.8924 95.6946 62.9173 95.441 63.0479 95.203C63.1774 94.9669 63.3811 94.8073 63.659 94.724L64.4777 94.4786L64.1422 93.3589L64.4663 93.2618L65.3708 96.28ZM64.1371 96.3194L64.9558 96.0741L64.5686 94.7817L63.7498 95.0271C63.5547 95.0855 63.416 95.1914 63.3334 95.3445C63.2509 95.4977 63.2388 95.6719 63.2973 95.8669C63.3557 96.0619 63.4615 96.2007 63.6147 96.2833C63.7679 96.3658 63.942 96.3779 64.1371 96.3194Z" fill="#1C1C1C"/><path d="M61.2414 97.4714L60.2694 97.6645C59.8197 97.7539 59.4089 97.6779 59.0368 97.4367C58.6648 97.1955 58.4367 96.863 58.3525 96.4391C58.2683 96.0153 58.352 95.6208 58.6035 95.2557C58.8551 94.8906 59.2057 94.6634 59.6554 94.5741L60.6274 94.381L61.2414 97.4714ZM60.2078 97.3542L60.8478 97.227L60.3567 94.7551L59.7167 94.8822C59.3546 94.9542 59.0746 95.1345 58.8765 95.4233C58.6785 95.712 58.6136 96.0281 58.6818 96.3715C58.7503 96.7163 58.9313 96.9843 59.2246 97.1754C59.518 97.3665 59.8457 97.4261 60.2078 97.3542Z" fill="#1C1C1C"/><path d="M56.4416 98.346L54.3161 98.5763L54.282 98.2618L56.0711 98.0679L55.9549 96.9953L54.524 97.1504L54.49 96.8358L55.9208 96.6808L55.7657 95.2499L56.1022 95.2135L56.4416 98.346Z" fill="#1C1C1C"/><path d="M43.4297 98.3792L42.2521 98.1871C41.9644 98.1402 41.7411 98.008 41.5821 97.7906C41.4232 97.5732 41.3664 97.325 41.4119 97.046C41.4572 96.7684 41.5906 96.5512 41.8121 96.3944C42.0319 96.2388 42.2849 96.1843 42.5712 96.231L43.4148 96.3686L43.603 95.2149L43.9369 95.2694L43.4297 98.3792ZM42.3031 97.8748L43.1467 98.0124L43.3638 96.6809L42.5203 96.5433C42.3193 96.5105 42.1482 96.5449 42.0069 96.6466C41.8657 96.7482 41.7787 96.8995 41.7459 97.1005C41.7131 97.3014 41.7476 97.4725 41.8492 97.6138C41.9508 97.755 42.1021 97.842 42.3031 97.8748Z" fill="#1C1C1C"/><path d="M39.1969 97.6479L38.2385 97.396C37.7951 97.2794 37.4589 97.0312 37.2301 96.6515C37.0012 96.2718 36.9417 95.8729 37.0516 95.455C37.1615 95.0371 37.4094 94.719 37.7954 94.5009C38.1814 94.2828 38.5961 94.232 39.0396 94.3486L39.998 94.6005L39.1969 97.6479ZM38.319 97.0899L38.9501 97.2558L39.5908 94.8184L38.9597 94.6525C38.6027 94.5586 38.2719 94.5982 37.9675 94.7711C37.663 94.944 37.4663 95.1997 37.3773 95.5383C37.2879 95.8783 37.3333 96.1985 37.5133 96.4988C37.6934 96.799 37.9619 96.9961 38.319 97.0899Z" fill="#1C1C1C"/><path d="M34.5046 96.3364L32.4919 95.6155L32.5986 95.3176L34.2927 95.9244L34.6565 94.9088L33.3016 94.4234L33.4083 94.1256L34.7632 94.6109L35.2485 93.256L35.5671 93.3701L34.5046 96.3364Z" fill="#1C1C1C"/><path d="M24.5298 91.7522L23.5279 91.1043C23.2832 90.946 23.1315 90.7355 23.073 90.4726C23.0144 90.2097 23.0619 89.9596 23.2154 89.7222C23.3681 89.486 23.5774 89.3404 23.8432 89.2855C24.1069 89.231 24.3606 89.2825 24.6041 89.44L25.3219 89.9041L25.9566 88.9225L26.2408 89.1063L24.5298 91.7522ZM23.6997 90.8386L24.4175 91.3027L25.1501 90.1698L24.4323 89.7057C24.2613 89.5952 24.0908 89.5581 23.9206 89.5947C23.7505 89.6312 23.6101 89.7349 23.4996 89.9059C23.389 90.0769 23.352 90.2474 23.3885 90.4176C23.425 90.5877 23.5288 90.7281 23.6997 90.8386Z" fill="#1C1C1C"/><path d="M20.9439 89.3766L20.1665 88.7619C19.8069 88.4776 19.5982 88.1156 19.5406 87.676C19.4829 87.2364 19.5881 86.8471 19.8561 86.5081C20.1241 86.1692 20.4787 85.977 20.9197 85.9317C21.3608 85.8864 21.7611 86.0059 22.1208 86.2903L22.8981 86.9049L20.9439 89.3766ZM20.3628 88.5137L20.8747 88.9185L22.4378 86.9415L21.9259 86.5368C21.6363 86.3078 21.3174 86.2116 20.9692 86.2482C20.621 86.2847 20.3383 86.4403 20.1212 86.7149C19.9032 86.9907 19.8165 87.3022 19.8613 87.6495C19.9061 87.9967 20.0732 88.2848 20.3628 88.5137Z" fill="#1C1C1C"/><path d="M17.1691 86.2922L15.6141 84.825L15.8312 84.5949L17.1401 85.8298L17.8805 85.0451L16.8337 84.0575L17.0508 83.8273L18.0977 84.815L19.0853 83.7682L19.3314 84.0004L17.1691 86.2922Z" fill="#1C1C1C"/><path d="M8.83976 76.6092L8.21787 75.5909C8.06593 75.3422 8.02058 75.0866 8.08182 74.8244C8.14306 74.5621 8.29432 74.3573 8.53559 74.21C8.77562 74.0634 9.02728 74.0229 9.29058 74.0887C9.55187 74.154 9.7581 74.3104 9.90928 74.5579L10.3548 75.2873L11.3524 74.678L11.5288 74.9668L8.83976 76.6092ZM8.48789 75.426L8.93341 76.1555L10.0848 75.4522L9.63925 74.7228C9.53312 74.549 9.39548 74.4417 9.22634 74.4008C9.05719 74.36 8.88573 74.3926 8.71197 74.4987C8.5382 74.6049 8.43088 74.7425 8.39001 74.9116C8.34913 75.0808 8.38176 75.2522 8.48789 75.426Z" fill="#1C1C1C"/><path d="M6.61557 72.883L6.18251 71.9917C5.98214 71.5793 5.95151 71.1626 6.0906 70.7416C6.22969 70.3207 6.49358 70.0157 6.88226 69.8269C7.27094 69.6381 7.67374 69.619 8.09066 69.7699C8.50758 69.9207 8.81622 70.2023 9.01659 70.6147L9.44965 71.5061L6.61557 72.883ZM6.4671 71.8534L6.75229 72.4404L9.01916 71.339L8.73397 70.7521C8.57265 70.42 8.32725 70.1948 7.99775 70.0764C7.66825 69.958 7.34605 69.9753 7.03115 70.1283C6.71494 70.282 6.50154 70.5249 6.39098 70.8571C6.28041 71.1893 6.30578 71.5214 6.4671 71.8534Z" fill="#1C1C1C"/><path d="M4.58111 68.5318L3.81504 66.5359L4.11044 66.4225L4.75526 68.1025L5.76248 67.716L5.24678 66.3723L5.54218 66.2589L6.05787 67.6026L7.40152 67.0869L7.52277 67.4028L4.58111 68.5318Z" fill="#1C1C1C"/><path d="M1.52804 57.8717L1.37219 56.6888C1.33411 56.3998 1.39621 56.1478 1.55849 55.9329C1.72077 55.718 1.94206 55.592 2.22235 55.5551C2.50119 55.5184 2.74764 55.5834 2.96169 55.7502C3.17411 55.9158 3.29925 56.1424 3.33714 56.4299L3.44879 57.2773L4.60772 57.1246L4.65192 57.4601L1.52804 57.8717ZM1.68588 56.6475L1.79753 57.4949L3.1351 57.3187L3.02345 56.4713C2.99685 56.2694 2.91452 56.1155 2.77645 56.0096C2.63839 55.9037 2.46842 55.864 2.26655 55.8906C2.06468 55.9172 1.91079 55.9995 1.80487 56.1376C1.69895 56.2757 1.65929 56.4456 1.68588 56.6475Z" fill="#1C1C1C"/><path d="M1.00786 53.649L0.969626 52.6588C0.951936 52.2007 1.09138 51.8068 1.38797 51.4772C1.68456 51.1477 2.04876 50.9746 2.48056 50.9579C2.91237 50.9412 3.28883 51.0857 3.60995 51.3914C3.93107 51.6972 4.10047 52.0791 4.11816 52.5372L4.15639 53.5275L1.00786 53.649ZM1.2858 52.6466L1.31098 53.2987L3.82936 53.2015L3.80418 52.5494C3.78994 52.1805 3.65576 51.8756 3.40165 51.6348C3.14754 51.3939 2.84557 51.2802 2.49573 51.2937C2.14443 51.3073 1.85139 51.444 1.61661 51.7037C1.38182 51.9634 1.27155 52.2777 1.2858 52.6466Z" fill="#1C1C1C"/><path d="M0.893066 48.6481L1.00027 46.5128L1.31628 46.5287L1.22604 48.326L2.30354 48.3801L2.37571 46.9427L2.69172 46.9585L2.61955 48.396L4.05695 48.4681L4.03998 48.8061L0.893066 48.6481Z" fill="#1C1C1C"/><path d="M2.39438 37.659L2.72822 36.5135C2.80978 36.2337 2.96811 36.0281 3.20322 35.8967C3.43833 35.7654 3.6916 35.7392 3.96302 35.8183C4.23304 35.897 4.43241 36.0558 4.56113 36.2948C4.68885 36.5319 4.71214 36.7896 4.63099 37.0681L4.39183 37.8887L5.51409 38.2158L5.41941 38.5406L2.39438 37.659ZM3.03198 36.6021L2.79283 37.4227L4.08807 37.8002L4.32722 36.9796C4.38419 36.7841 4.37082 36.6101 4.28712 36.4575C4.20342 36.3049 4.06382 36.2002 3.86834 36.1432C3.67286 36.0862 3.49884 36.0996 3.34628 36.1833C3.19372 36.267 3.08896 36.4066 3.03198 36.6021Z" fill="#1C1C1C"/><path d="M3.62213 33.5703L3.98759 32.6492C4.15668 32.223 4.44348 31.9192 4.84801 31.7377C5.25253 31.5562 5.65563 31.5452 6.0573 31.7045C6.45897 31.8639 6.74483 32.1483 6.9149 32.5577C7.08497 32.9672 7.08546 33.385 6.91637 33.8112L6.55091 34.7323L3.62213 33.5703ZM4.28169 32.7659L4.04102 33.3725L6.38364 34.3019L6.62431 33.6953C6.76044 33.3522 6.76101 33.0191 6.626 32.6961C6.49099 32.373 6.26078 32.1469 5.93536 32.0178C5.60858 31.8882 5.28531 31.8946 4.96554 32.0373C4.64578 32.1799 4.41783 32.4227 4.28169 32.7659Z" fill="#1C1C1C"/><path d="M5.41764 29.2105L6.37328 27.2981L6.65632 27.4395L5.85193 29.0493L6.81701 29.5315L7.46033 28.2441L7.74336 28.3855L7.10005 29.673L8.38747 30.3163L8.23622 30.619L5.41764 29.2105Z" fill="#1C1C1C"/><path d="M11.129 19.828L11.8926 18.9112C12.0792 18.6873 12.3065 18.562 12.5745 18.5355C12.8425 18.509 13.0851 18.5862 13.3024 18.7672C13.5185 18.9472 13.6378 19.1724 13.6604 19.4428C13.6827 19.7112 13.6011 19.9568 13.4155 20.1797L12.8685 20.8365L13.7666 21.5846L13.5501 21.8446L11.129 19.828ZM12.1358 19.1137L11.5887 19.7705L12.6253 20.6339L13.1724 19.9772C13.3027 19.8207 13.36 19.6559 13.3442 19.4826C13.3284 19.3093 13.2422 19.1575 13.0858 19.0272C12.9293 18.8968 12.7645 18.8396 12.5912 18.8554C12.4179 18.8712 12.2661 18.9573 12.1358 19.1137Z" fill="#1C1C1C"/><path d="M13.9668 16.4751L14.67 15.7769C14.9954 15.4539 15.3798 15.2901 15.8231 15.2855C16.2664 15.2809 16.6403 15.4319 16.9448 15.7386C17.2492 16.0453 17.3976 16.4203 17.3897 16.8635C17.3819 17.3068 17.2153 17.69 16.8899 18.013L16.1867 18.7112L13.9668 16.4751ZM14.8929 16.0015L14.4298 16.4613L16.2054 18.2498L16.6685 17.79C16.9305 17.53 17.0642 17.2249 17.0696 16.8748C17.075 16.5247 16.9544 16.2255 16.7078 15.977C16.4601 15.7275 16.1612 15.6042 15.8111 15.6071C15.4609 15.6099 15.1549 15.7414 14.8929 16.0015Z" fill="#1C1C1C"/><path d="M17.4885 13.0759L19.1312 11.7076L19.3337 11.9507L17.951 13.1025L18.6414 13.9314L19.7473 13.0103L19.9498 13.2534L18.8439 14.1745L19.7651 15.2804L19.5051 15.4969L17.4885 13.0759Z" fill="#1C1C1C"/><path d="M26.5046 6.76369L27.5719 6.23038C27.8327 6.10008 28.0911 6.07656 28.3472 6.15982C28.6034 6.24308 28.7946 6.41116 28.921 6.66406C29.0467 6.91565 29.0656 7.16983 28.9778 7.42661C28.8906 7.68142 28.7173 7.87365 28.4578 8.00329L27.6932 8.38535L28.2157 9.43102L27.913 9.58227L26.5046 6.76369ZM27.7133 6.51342L26.9487 6.89548L27.5518 8.10232L28.3164 7.72026C28.4985 7.62924 28.6171 7.5012 28.6722 7.33613C28.7273 7.17106 28.7093 6.99745 28.6183 6.81531C28.5273 6.63317 28.3992 6.51457 28.2342 6.4595C28.0691 6.40443 27.8955 6.4224 27.7133 6.51342Z" fill="#1C1C1C"/><path d="M30.2639 4.91163L31.1877 4.55308C31.6151 4.38719 32.0329 4.3908 32.4411 4.56393C32.8493 4.73706 33.1315 5.02506 33.2879 5.42791C33.4442 5.83076 33.4301 6.23376 33.2456 6.63691C33.0611 7.04007 32.7552 7.32459 32.3277 7.49048L31.4039 7.84903L30.2639 4.91163ZM31.3022 4.84805L30.6938 5.08416L31.6057 7.43368L32.2141 7.19756C32.5582 7.064 32.8028 6.83787 32.9478 6.51919C33.0928 6.2005 33.1019 5.87797 32.9753 5.55159C32.8481 5.22385 32.6234 4.99126 32.3014 4.85384C31.9794 4.71642 31.6463 4.71449 31.3022 4.84805Z" fill="#1C1C1C"/><path d="M35.0322 3.1467L37.087 2.55628L37.1744 2.86038L35.4448 3.35735L35.7427 4.39425L37.126 3.9968L37.2134 4.3009L35.8301 4.69835L36.2276 6.08159L35.9024 6.17504L35.0322 3.1467Z" fill="#1C1C1C"/><path d="M43.6867 1.23574L44.8751 1.13005C45.1655 1.10423 45.4146 1.17693 45.6225 1.34815C45.8304 1.51938 45.9468 1.74579 45.9719 2.02739C45.9968 2.30754 45.9214 2.55101 45.7457 2.75782C45.5713 2.96305 45.3396 3.0785 45.0507 3.10419L44.1993 3.17991L44.3029 4.34426L43.9658 4.37423L43.6867 1.23574ZM44.9032 1.44521L44.0518 1.52093L44.1713 2.86475L45.0227 2.78903C45.2255 2.771 45.3827 2.69525 45.4944 2.56178C45.6061 2.42832 45.6529 2.26018 45.6348 2.05737C45.6168 1.85456 45.5411 1.69732 45.4076 1.58565C45.2741 1.47399 45.106 1.42718 44.9032 1.44521Z" fill="#1C1C1C"/><path d="M48.1594 0.870117L49.1504 0.877768C49.6088 0.881307 49.9958 1.03884 50.3113 1.35037C50.6268 1.66189 50.7828 2.03372 50.7795 2.46583C50.7762 2.89795 50.6144 3.26732 50.2941 3.57393C49.9739 3.88055 49.5845 4.03209 49.126 4.02855L48.1351 4.0209L48.1594 0.870117ZM49.1479 1.19416L48.4953 1.18913L48.4759 3.70932L49.1285 3.71435C49.4976 3.7172 49.8083 3.59728 50.0607 3.3546C50.3131 3.11191 50.4406 2.81552 50.4433 2.46543C50.446 2.11388 50.3231 1.81483 50.0745 1.56827C49.8259 1.32172 49.517 1.19701 49.1479 1.19416Z" fill="#1C1C1C"/><path d="M53.2465 0.982755L55.3745 1.18853L55.344 1.50347L53.5528 1.33026L53.449 2.40411L54.8815 2.54263L54.8511 2.85757L53.4185 2.71905L53.28 4.15157L52.9432 4.11901L53.2465 0.982755Z" fill="#1C1C1C"/><path d="M64.0917 2.96346L65.2208 3.34883C65.4967 3.44298 65.6949 3.61047 65.8155 3.85129C65.9361 4.0921 65.9507 4.34629 65.8594 4.61385C65.7685 4.88003 65.6009 5.072 65.3564 5.18977C65.1137 5.30663 64.8552 5.31821 64.5807 5.22453L63.7717 4.94846L63.3942 6.05475L63.0739 5.94545L64.0917 2.96346ZM65.1186 3.64827L64.3097 3.3722L63.8739 4.64901L64.6829 4.92508C64.8756 4.99085 65.05 4.98538 65.2062 4.90867C65.3624 4.83196 65.4734 4.69726 65.5391 4.50456C65.6049 4.31186 65.5994 4.13741 65.5227 3.98122C65.446 3.82502 65.3113 3.71404 65.1186 3.64827Z" fill="#1C1C1C"/><path d="M68.0839 4.35515L68.9877 4.76151C69.4059 4.94952 69.6965 5.24965 69.8597 5.66189C70.0229 6.07414 70.0159 6.47733 69.8387 6.87146C69.6615 7.26558 69.3645 7.53842 68.9479 7.68998C68.5312 7.84153 68.1138 7.8233 67.6956 7.63529L66.7918 7.22893L68.0839 4.35515ZM68.8579 5.05009L68.2627 4.78248L67.2293 7.08111L67.8245 7.34871C68.1611 7.50008 68.4939 7.51557 68.8226 7.39517C69.1514 7.27477 69.3876 7.05491 69.5312 6.7356C69.6753 6.41496 69.6833 6.09172 69.5552 5.76589C69.427 5.44006 69.1946 5.20146 68.8579 5.05009Z" fill="#1C1C1C"/><path d="M72.5968 6.46597L74.4612 7.51241L74.3063 7.78833L72.737 6.90751L72.209 7.84829L73.464 8.55274L73.3091 8.82865L72.0541 8.12421L71.3497 9.37923L71.0546 9.21361L72.5968 6.46597Z" fill="#1C1C1C"/><path d="M81.689 12.6284L82.5686 13.4345C82.7835 13.6315 82.8979 13.8644 82.9117 14.1334C82.9255 14.4023 82.8369 14.641 82.6459 14.8495C82.4559 15.0568 82.2253 15.1654 81.954 15.1751C81.6849 15.1848 81.4434 15.0917 81.2296 14.8957L80.5994 14.3182L79.8097 15.1801L79.5602 14.9515L81.689 12.6284ZM82.3548 13.6678L81.7247 13.0903L80.8132 14.085L81.4434 14.6624C81.5935 14.8 81.7554 14.865 81.9293 14.8574C82.1031 14.8498 82.2589 14.771 82.3964 14.6209C82.534 14.4707 82.599 14.3088 82.5914 14.1349C82.5838 13.9611 82.505 13.8054 82.3548 13.6678Z" fill="#1C1C1C"/><path d="M84.7017 15.4178L85.3685 16.1508C85.6771 16.49 85.824 16.8811 85.8092 17.3243C85.7945 17.7674 85.6273 18.1343 85.3077 18.4251C84.988 18.7159 84.6069 18.8477 84.1644 18.8206C83.7219 18.7935 83.3463 18.6103 83.0378 18.2712L82.3709 17.5381L84.7017 15.4178ZM85.1345 16.3638L84.6953 15.881L82.8311 17.577L83.2702 18.0597C83.5186 18.3328 83.8176 18.4796 84.1671 18.5003C84.5166 18.521 84.8208 18.4135 85.0798 18.1779C85.3399 17.9414 85.4761 17.6481 85.4885 17.2982C85.5009 16.9483 85.3829 16.6368 85.1345 16.3638Z" fill="#1C1C1C"/><path d="M87.9582 19.0948L89.2534 20.7957L89.0017 20.9874L87.9115 19.5557L87.0531 20.2093L87.925 21.3543L87.6733 21.546L86.8014 20.401L85.6564 21.2729L85.4514 21.0036L87.9582 19.0948Z" fill="#1C1C1C"/><path d="M93.9028 28.4348L94.388 29.5248C94.5066 29.7912 94.5185 30.0504 94.4239 30.3025C94.3293 30.5547 94.1529 30.7383 93.8946 30.8532C93.6377 30.9676 93.3829 30.9752 93.1303 30.876C92.8796 30.7775 92.6953 30.5958 92.5774 30.3308L92.2298 29.55L91.1618 30.0253L91.0242 29.7162L93.9028 28.4348ZM94.099 29.6535L93.7514 28.8727L92.5188 29.4213L92.8664 30.2022C92.9492 30.3882 93.0718 30.5124 93.2343 30.5747C93.3968 30.6371 93.571 30.6269 93.757 30.5441C93.943 30.4613 94.0672 30.3387 94.1296 30.1762C94.192 30.0138 94.1818 29.8395 94.099 29.6535Z" fill="#1C1C1C"/><path d="M95.6063 32.3369L95.9228 33.2759C96.0693 33.7104 96.0468 34.1276 95.8555 34.5275C95.6641 34.9275 95.3637 35.1965 94.9542 35.3345C94.5447 35.4725 94.1428 35.4403 93.7484 35.2378C93.3539 35.0353 93.0835 34.7169 92.937 34.2824L92.6205 33.3433L95.6063 32.3369ZM95.623 33.377L95.4146 32.7586L93.0263 33.5636L93.2348 34.182C93.3527 34.5318 93.5676 34.7863 93.8794 34.9456C94.1912 35.1048 94.513 35.1285 94.8448 35.0166C95.1779 34.9043 95.4204 34.6904 95.5722 34.3749C95.724 34.0594 95.7409 33.7268 95.623 33.377Z" fill="#1C1C1C"/><path d="M97.1422 37.149L97.6384 39.2286L97.3307 39.302L96.913 37.5516L95.8636 37.802L96.1976 39.2019L95.8899 39.2754L95.5558 37.8755L94.1559 38.2095L94.0774 37.8804L97.1422 37.149Z" fill="#1C1C1C"/></svg>