<svg width="24" height="18" viewBox="0 0 24 18" fill="none" xmlns="http://www.w3.org/2000/svg"><path d="M16.8201 2.95794C16.4673 2.60062 15.8645 2.60062 15.492 2.97779C15.3058 3.16638 15.2077 3.40955 15.2077 3.66266C15.2077 3.92072 15.3058 4.1639 15.4871 4.34256L15.5312 4.38722C15.737 4.59566 15.737 4.92816 15.5312 5.1366C15.3303 5.34008 15.0068 5.34504 14.801 5.14653L13.7032 4.03487C13.3307 3.65769 12.7279 3.65769 12.3554 4.03487C11.978 4.417 11.978 5.02742 12.3505 5.40459L13.4434 6.51129C13.5463 6.61551 13.5953 6.74951 13.5953 6.88846C13.5953 7.02742 13.5463 7.16142 13.4434 7.26563C13.2376 7.47407 12.9092 7.47407 12.7034 7.26563L10.5666 5.10186C10.1941 4.72469 9.59128 4.72469 9.21881 5.10186C8.84144 5.484 8.84144 6.09442 9.21391 6.47159L11.3507 8.63536C11.4536 8.73958 11.5026 8.87357 11.5026 9.01253C11.5026 9.15149 11.4536 9.28548 11.3507 9.3897C11.1449 9.59814 10.8165 9.59814 10.6107 9.3897L5.37649 4.07953C5.19026 3.89094 4.94521 3.79665 4.70507 3.79665C4.46002 3.79665 4.21988 3.89094 4.03364 4.07953C3.65627 4.46166 3.65627 5.07209 4.02874 5.44926L11.8751 13.3947C12.0123 13.5336 12.0613 13.7421 12.0025 13.9306C11.9388 14.1192 11.782 14.2582 11.586 14.288L6.34197 15.1217C5.70486 15.216 5.22947 15.7669 5.22947 16.412C5.22947 16.7048 5.46471 16.9431 5.75387 16.9431H15.6145C16.8691 16.9431 18.0552 16.4468 18.9422 15.5485L20.5889 13.881C21.476 12.9828 21.9661 11.7867 21.9661 10.5163C21.9661 9.33015 21.5299 8.19367 20.7458 7.31526L16.8201 2.95794Z" fill="#fff"/><path d="M17.5747 2.2284C16.7955 1.43932 15.531 1.43932 14.7469 2.23336C14.4969 2.48646 14.3303 2.78919 14.2421 3.10681C13.4579 2.50135 12.3307 2.56091 11.6103 3.29043C11.3603 3.54354 11.1937 3.84627 11.1055 4.16388C10.3214 3.55842 9.19414 3.61798 8.47371 4.34751C8.22866 4.59565 8.06203 4.88845 7.97381 5.2011L6.12127 3.32517C5.34202 2.54105 4.07268 2.54105 3.28854 3.3351C2.50929 4.12418 2.50929 5.40458 3.28854 6.19366L10.4047 13.3996L6.18498 14.0696C5.04306 14.2334 4.1854 15.2408 4.1854 16.4071C4.1854 17.2805 4.89114 17.9951 5.7537 17.9951H15.6143C17.1483 17.9951 18.5941 17.3897 19.6821 16.288L21.3288 14.6205C22.4119 13.5237 23.0098 12.0597 23.0098 10.5063C23.0098 9.05718 22.4805 7.66761 21.515 6.59068L17.5747 2.2284ZM20.579 13.881L18.9323 15.5485C18.0452 16.4468 16.8641 16.943 15.6045 16.943H5.7488C5.45964 16.943 5.2244 16.7048 5.2244 16.412C5.2244 15.7669 5.69979 15.216 6.33691 15.1217L11.5809 14.288C11.7769 14.2582 11.9338 14.1192 11.9975 13.9306C12.0563 13.742 12.0073 13.5336 11.87 13.3947L4.02857 5.44428C3.6561 5.06711 3.6561 4.45669 4.03348 4.07455C4.21971 3.88597 4.46476 3.79168 4.7049 3.79168C4.94995 3.79168 5.19009 3.88597 5.37633 4.07455L10.6056 9.36984C10.8114 9.57828 11.1398 9.57828 11.3456 9.36984C11.4486 9.26562 11.4976 9.13163 11.4976 8.99267C11.4976 8.85371 11.4486 8.71972 11.3456 8.6155L9.20884 6.45172C8.83637 6.07455 8.83637 5.46413 9.21374 5.082C9.58621 4.70483 10.189 4.70483 10.5615 5.082L12.6983 7.24577C12.9041 7.45421 13.2325 7.45421 13.4383 7.24577C13.5413 7.14155 13.5903 7.00756 13.5903 6.8686C13.5903 6.72964 13.5413 6.59565 13.4383 6.49143L12.3454 5.38473C11.973 5.00756 11.973 4.39713 12.3503 4.015C12.7228 3.63783 13.3256 3.63783 13.6981 4.015L14.7959 5.12666C15.0017 5.32517 15.3252 5.32021 15.5261 5.11674C15.732 4.9083 15.732 4.57579 15.5261 4.36736L15.482 4.32269C15.3007 4.13907 15.2027 3.89589 15.2027 3.64279C15.2027 3.38473 15.3007 3.14651 15.4869 2.95793C15.8594 2.58076 16.4622 2.58572 16.8151 2.93808L20.7309 7.2954C21.5199 8.17381 21.9512 9.31029 21.9512 10.4964C21.9561 11.7867 21.466 12.9778 20.579 13.881Z" fill="#282828"/><path d="M8.98828 2.80893C8.22864 1.10174 6.54272 0 4.70488 0C2.11229 0 0 2.13896 0 4.76427C0 6.62531 1.088 8.33251 2.77392 9.10174C2.84253 9.13151 2.91605 9.1464 2.98956 9.1464C3.1905 9.1464 3.37673 9.03226 3.46495 8.83375C3.58257 8.56576 3.46495 8.2531 3.2052 8.13399C1.89175 7.53846 1.0439 6.2134 1.0439 4.76427C1.0439 2.7196 2.6857 1.05707 4.70488 1.05707C6.13595 1.05707 7.44449 1.91563 8.0326 3.24566C8.15022 3.51365 8.45898 3.63275 8.72363 3.50868C8.98828 3.38958 9.1059 3.07692 8.98828 2.80893Z" fill="#13AAF7"/></svg>