<svg width="26" height="22" viewBox="0 0 26 22" fill="none" xmlns="http://www.w3.org/2000/svg"><path d="M7.28024 4.29688C6.76024 4.29688 6.41357 3.95312 6.41357 3.4375V0.859375C6.41357 0.34375 6.76024 0 7.28024 0C7.80024 0 8.14691 0.34375 8.14691 0.859375V3.4375C8.14691 3.86719 7.71357 4.29688 7.28024 4.29688Z" fill="#33D27A"/><path d="M18.7202 4.29688C18.2002 4.29688 17.8535 3.95312 17.8535 3.4375V0.859375C17.8535 0.34375 18.2002 0 18.7202 0C19.2402 0 19.5868 0.34375 19.5868 0.859375V3.4375C19.5868 3.86719 19.2402 4.29688 18.7202 4.29688Z" fill="#33D27A"/><path d="M21.6667 22H4.33333C1.90667 22 0 20.1094 0 17.7031V6.875C0 4.46875 1.90667 2.57812 4.33333 2.57812H21.6667C24.0933 2.57812 26 4.46875 26 6.875V17.7031C26 20.0234 24.0933 22 21.6667 22ZM4.33333 4.29688C2.86 4.29688 1.73333 5.41406 1.73333 6.875V17.7031C1.73333 19.1641 2.86 20.2812 4.33333 20.2812H21.6667C23.14 20.2812 24.2667 19.1641 24.2667 17.7031V6.875C24.2667 5.41406 23.14 4.29688 21.6667 4.29688H4.33333Z" fill="#99EDCB"/><path d="M7.28014 13.1484H4.68014C4.16014 13.1484 3.81348 12.8047 3.81348 12.2891C3.81348 11.7734 4.16014 11.4297 4.68014 11.4297H7.28014C7.80014 11.4297 8.14681 11.7734 8.14681 12.2891C8.14681 12.8047 7.71348 13.1484 7.28014 13.1484Z" fill="#33D27A"/><path d="M7.28014 9.45312H4.68014C4.16014 9.45312 3.81348 9.10938 3.81348 8.59375C3.81348 8.07812 4.16014 7.73438 4.68014 7.73438H7.28014C7.80014 7.73438 8.14681 8.07812 8.14681 8.59375C8.14681 9.10938 7.71348 9.45312 7.28014 9.45312Z" fill="#33D27A"/><path d="M7.28014 16.9297H4.68014C4.16014 16.9297 3.81348 16.5859 3.81348 16.0703C3.81348 15.5547 4.16014 15.2109 4.68014 15.2109H7.28014C7.80014 15.2109 8.14681 15.5547 8.14681 16.0703C8.14681 16.5859 7.71348 16.9297 7.28014 16.9297Z" fill="#33D27A"/><path d="M14.3002 13.1484H11.7002C11.1802 13.1484 10.8335 12.8047 10.8335 12.2891C10.8335 11.7734 11.1802 11.4297 11.7002 11.4297H14.3002C14.8202 11.4297 15.1668 11.7734 15.1668 12.2891C15.1668 12.8047 14.7335 13.1484 14.3002 13.1484Z" fill="#33D27A"/><path d="M14.3002 9.45312H11.7002C11.1802 9.45312 10.8335 9.10938 10.8335 8.59375C10.8335 8.07812 11.1802 7.73438 11.7002 7.73438H14.3002C14.8202 7.73438 15.1668 8.07812 15.1668 8.59375C15.1668 9.10938 14.7335 9.45312 14.3002 9.45312Z" fill="#33D27A"/><path d="M14.3002 16.9297H11.7002C11.1802 16.9297 10.8335 16.5859 10.8335 16.0703C10.8335 15.5547 11.1802 15.2109 11.7002 15.2109H14.3002C14.8202 15.2109 15.1668 15.5547 15.1668 16.0703C15.1668 16.5859 14.7335 16.9297 14.3002 16.9297Z" fill="#33D27A"/><path d="M21.3202 13.1484H18.7202C18.2002 13.1484 17.8535 12.8047 17.8535 12.2891C17.8535 11.7734 18.2002 11.4297 18.7202 11.4297H21.3202C21.8402 11.4297 22.1868 11.7734 22.1868 12.2891C22.1868 12.8047 21.7535 13.1484 21.3202 13.1484Z" fill="#33D27A"/><path d="M21.3202 9.45312H18.7202C18.2002 9.45312 17.8535 9.10938 17.8535 8.59375C17.8535 8.07812 18.2002 7.73438 18.7202 7.73438H21.3202C21.8402 7.73438 22.1868 8.07812 22.1868 8.59375C22.1868 9.10938 21.7535 9.45312 21.3202 9.45312Z" fill="#33D27A"/><path d="M21.3202 16.9297H18.7202C18.2002 16.9297 17.8535 16.5859 17.8535 16.0703C17.8535 15.5547 18.2002 15.2109 18.7202 15.2109H21.3202C21.8402 15.2109 22.1868 15.5547 22.1868 16.0703C22.1868 16.5859 21.7535 16.9297 21.3202 16.9297Z" fill="#33D27A"/></svg>