<svg width="26" height="18" viewBox="0 0 26 18" fill="none" xmlns="http://www.w3.org/2000/svg"><g clip-path="url(#clip0_46_992)"><path d="M25.9999 9.04153C25.9999 12.4425 23.3187 15.1798 19.9874 15.1798H12.1062C11.6187 15.1798 11.2124 14.765 11.2124 14.2673C11.2124 13.7696 11.6187 13.3549 12.1062 13.3549H19.9874C22.2624 13.3549 24.1312 11.4471 24.1312 9.12448C24.1312 6.8019 22.2624 4.89407 19.9874 4.89407H19.0124L20.2312 6.13831C20.5562 6.4701 20.5562 7.1337 20.2312 7.4655C19.9874 7.4655 19.7437 7.54845 19.4999 7.54845C19.2562 7.54845 19.0124 7.4655 18.8499 7.2996L16.0874 4.47932C15.7624 4.14752 15.7624 3.48393 16.0874 3.15213L18.8499 0.331856C19.1749 5.85094e-05 19.8249 5.85094e-05 20.1499 0.331856C20.4749 0.663653 20.4749 1.32725 20.1499 1.65904L18.9312 2.90328H19.9062C23.3187 2.82034 25.9999 5.64061 25.9999 9.04153Z" fill="#3C7BE6"/><path d="M9.9125 13.5208L7.15 10.7005C6.825 10.3687 6.175 10.3687 5.85 10.7005C5.525 11.0323 5.525 11.6959 5.85 12.0277L7.06875 13.2719H6.0125C3.7375 13.2719 1.86875 11.3641 1.86875 9.04151C1.86875 6.71893 3.7375 4.8111 6.0125 4.8111H13.8938C14.3813 4.8111 14.7875 4.39635 14.7875 3.89866C14.7875 3.40096 14.3813 2.98621 13.8938 2.98621H6.0125C2.68125 2.82031 0 5.64059 0 9.04151C0 12.4424 2.68125 15.1798 6.0125 15.1798H6.9875L5.76875 16.424C5.44375 16.7558 5.44375 17.4194 5.76875 17.7512C5.93125 17.9171 6.175 18 6.41875 18C6.6625 18 6.90625 17.9171 7.06875 17.7512L9.83125 14.9309C10.3188 14.5162 10.3187 13.9355 9.9125 13.5208Z" fill="#AACAF5"/></g><defs><clipPath id="clip0_46_992"><path fill="#fff" d="M0 0H26V18H0z"/></clipPath></defs></svg>