<svg width="26" height="25" viewBox="0 0 26 25" fill="none" xmlns="http://www.w3.org/2000/svg"><path d="M23.6364 5.64516H21.1939C21.2727 5.8871 21.2727 6.20968 21.2727 6.45161C21.2727 9.1129 19.1455 11.2903 16.5455 11.2903C13.9455 11.2903 11.8182 9.1129 11.8182 6.45161C11.8182 6.20968 11.8182 5.8871 11.897 5.64516H8.03636L7.01212 2.74194C6.46061 1.04839 4.96364 0 3.30909 0H0.787879C0.315151 0 0 0.322581 0 0.806452C0 1.29032 0.315151 1.6129 0.787879 1.6129H3.30909C4.25455 1.6129 5.2 2.25806 5.51515 3.22581L6.30303 5.64516L8.27273 11.371L10.3212 17.4194C10.8727 19.0323 12.3697 20.1613 14.0242 20.1613H18.1212C18.5939 20.1613 18.9091 19.8387 18.9091 19.3548C18.9091 18.871 18.5939 18.5484 18.1212 18.5484H14.103C13.0788 18.5484 12.2121 17.9032 11.8182 16.9355H20.3273C22.5333 16.9355 24.503 15.3226 24.9758 13.1452L25.9212 8.62903C26.1576 7.33871 25.3697 6.04839 24.1091 5.72581C23.9515 5.64516 23.7939 5.64516 23.6364 5.64516ZM24.4242 8.22581L23.4788 12.7419C23.1636 14.2742 21.8242 15.3226 20.3273 15.3226H11.3455L9.7697 10.8065L8.50909 7.25806H10.2424C10.4 8.70968 11.0303 10.0806 12.1333 11.0484C14.6545 13.5484 18.5939 13.4677 21.0364 10.9677C21.9818 10 22.6121 8.62903 22.7697 7.25806H23.5576C23.7939 7.25806 24.0303 7.33871 24.1879 7.58064C24.4242 7.74193 24.4242 7.98387 24.4242 8.22581Z" fill="#F5803E"/><path d="M10.2425 20.1614C8.90315 20.1614 7.87891 21.2098 7.87891 22.5807C7.87891 23.9517 8.90315 25.0001 10.2425 25.0001C11.5819 25.0001 12.6062 23.9517 12.6062 22.5807C12.6062 21.2098 11.5819 20.1614 10.2425 20.1614ZM10.2425 23.3872C9.76982 23.3872 9.45466 23.0646 9.45466 22.5807C9.45466 22.0969 9.76982 21.7743 10.2425 21.7743C10.7153 21.7743 11.0304 22.0969 11.0304 22.5807C11.0304 23.0646 10.7153 23.3872 10.2425 23.3872Z" fill="#F5803E"/><path d="M21.2728 20.1614C19.9334 20.1614 18.9092 21.2098 18.9092 22.5807C18.9092 23.9517 19.9334 25.0001 21.2728 25.0001C22.6122 25.0001 23.6365 23.9517 23.6365 22.5807C23.6365 21.2098 22.6122 20.1614 21.2728 20.1614ZM21.2728 23.3872C20.8001 23.3872 20.4849 23.0646 20.4849 22.5807C20.4849 22.0969 20.8001 21.7743 21.2728 21.7743C21.7455 21.7743 22.0607 22.0969 22.0607 22.5807C22.0607 23.0646 21.7455 23.3872 21.2728 23.3872Z" fill="#F5803E"/><path d="M16.5452 0C13.0786 0 10.2422 2.90323 10.2422 6.45161C10.2422 10 13.0786 12.9032 16.5452 12.9032C20.0119 12.9032 22.8482 10 22.8482 6.45161C22.8482 2.90323 20.0119 0 16.5452 0Z" fill="#FACCB1"/><path d="M18.5154 5.64528H17.3335V4.4356C17.3335 3.95173 17.0184 3.62915 16.5457 3.62915C16.0729 3.62915 15.7578 3.95173 15.7578 4.4356V5.64528H14.576C14.1032 5.64528 13.7881 5.96786 13.7881 6.45173C13.7881 6.9356 14.1032 7.25818 14.576 7.25818H15.7578V8.46786C15.7578 8.95173 16.0729 9.27431 16.5457 9.27431C17.0184 9.27431 17.3335 8.95173 17.3335 8.46786V7.25818H18.5154C18.9881 7.25818 19.3032 6.9356 19.3032 6.45173C19.3032 5.96786 18.9881 5.64528 18.5154 5.64528Z" fill="#fff"/></svg>