<svg width="26" height="26" viewBox="0 0 26 26" fill="none" xmlns="http://www.w3.org/2000/svg"><path d="M11.0156 26C4.91563 26 0.015625 21.1 0.015625 15C0.015625 8.9 4.91563 4 11.0156 4C11.6156 4 12.0156 4.4 12.0156 5V14H21.0156C21.6156 14 22.0156 14.4 22.0156 15C22.0156 21.1 17.1156 26 11.0156 26ZM10.0156 6.1C5.11562 6.6 1.51562 11.1 2.11562 16C2.71562 20.9 7.11562 24.5 12.0156 23.9C16.2156 23.4 19.5156 20.1 19.9156 16H12.0156C10.9156 16 10.0156 15.1 10.0156 14V6.1Z" fill="#E9ADBC"/><path d="M24.8159 12H15.8159C14.7159 12 13.8159 11.1 13.8159 10V1C13.8159 0.4 14.2159 0 14.8159 0C20.9159 0 25.8159 4.9 25.8159 11C25.8159 11.6 25.4159 12 24.8159 12ZM15.8159 10H23.7159C23.2159 5.8 19.9159 2.5 15.8159 2.1V10Z" fill="#E63757"/></svg>