<svg width="25" height="25" viewBox="0 0 25 25" fill="none" xmlns="http://www.w3.org/2000/svg"><path d="M12 24.0146C5.4 24.0146 0 18.6146 0 12.0146C0 11.4896 0 10.9646 0.075 10.4396C0.15 9.98965 0.525 9.76465 0.975 9.76465C1.425 9.76465 1.65 10.2146 1.65 10.5896C1.5 11.1146 1.5 11.5646 1.5 12.0146C1.5 17.7896 6.225 22.5146 12 22.5146C16.2 22.5146 19.95 20.0396 21.6 16.2146C21.75 15.8396 22.2 15.6896 22.575 15.8396C22.95 15.9896 23.1 16.4396 22.95 16.8146C21.075 21.2396 16.8 24.0146 12 24.0146Z" fill="#F5803E"/><path d="M23.1747 14.2645H23.0997C22.7247 14.1895 22.4247 13.8145 22.4247 13.4395C22.4997 12.9895 22.4997 12.4646 22.4997 12.0145C22.4997 6.23955 17.7747 1.51455 11.9997 1.51455C7.79967 1.51455 4.04967 3.98955 2.39967 7.81455C2.24967 8.18955 1.79967 8.33955 1.42467 8.18955C1.04967 8.03955 0.899668 7.58955 1.04967 7.21455C3.67467 1.13955 10.7997 -1.63545 16.8747 0.98955C21.8247 3.16455 24.6747 8.26455 23.9997 13.5896C23.8497 14.0395 23.5497 14.2645 23.1747 14.2645Z" fill="#F5803E"/><path d="M12 4.51465C11.55 4.51465 11.25 4.21465 11.25 3.76465C11.25 3.31465 11.55 3.01465 12 3.01465C12.45 3.01465 12.75 3.31465 12.75 3.76465C12.75 4.21465 12.45 4.51465 12 4.51465Z" fill="#F5803E"/><path d="M17.8496 6.91455C17.3996 6.91455 17.0996 6.61455 17.0996 6.16455C17.0996 5.71455 17.3996 5.41455 17.8496 5.41455C18.2996 5.41455 18.5996 5.71455 18.5996 6.16455C18.5996 6.61455 18.2996 6.91455 17.8496 6.91455Z" fill="#F5803E"/><path d="M20.25 12.7646C19.8 12.7646 19.5 12.4646 19.5 12.0146C19.5 11.5646 19.8 11.2646 20.25 11.2646C20.7 11.2646 21 11.5646 21 12.0146C21 12.4646 20.7 12.7646 20.25 12.7646Z" fill="#F5803E"/><path d="M17.8496 18.6147C17.3996 18.6147 17.0996 18.3147 17.0996 17.8647C17.0996 17.4147 17.3996 17.1147 17.8496 17.1147C18.2996 17.1147 18.5996 17.4147 18.5996 17.8647C18.5996 18.3147 18.2996 18.6147 17.8496 18.6147Z" fill="#F5803E"/><path d="M12 21.0146C11.55 21.0146 11.25 20.7146 11.25 20.2646C11.25 19.8146 11.55 19.5146 12 19.5146C12.45 19.5146 12.75 19.8146 12.75 20.2646C12.75 20.7146 12.45 21.0146 12 21.0146Z" fill="#F5803E"/><path d="M6.15039 18.6147C5.70039 18.6147 5.40039 18.3147 5.40039 17.8647C5.40039 17.4147 5.70039 17.1147 6.15039 17.1147C6.60039 17.1147 6.90039 17.4147 6.90039 17.8647C6.90039 18.3147 6.60039 18.6147 6.15039 18.6147Z" fill="#F5803E"/><path d="M3.75 12.7646C3.3 12.7646 3 12.4646 3 12.0146C3 11.5646 3.3 11.2646 3.75 11.2646C4.2 11.2646 4.5 11.5646 4.5 12.0146C4.5 12.4646 4.2 12.7646 3.75 12.7646Z" fill="#F5803E"/><path d="M6.15039 6.91455C5.70039 6.91455 5.40039 6.61455 5.40039 6.16455C5.40039 5.71455 5.70039 5.41455 6.15039 5.41455C6.60039 5.41455 6.90039 5.71455 6.90039 6.16455C6.90039 6.61455 6.60039 6.91455 6.15039 6.91455Z" fill="#F5803E"/><path d="M9.75 15.0146C9.3 15.0146 9 14.7146 9 14.2646C9 14.0396 9.075 13.8896 9.225 13.7396L11.25 11.7146V6.76465C11.25 6.31465 11.55 6.01465 12 6.01465C12.45 6.01465 12.75 6.31465 12.75 6.76465V12.0146C12.75 12.2396 12.675 12.3896 12.525 12.5396L10.275 14.7896C10.125 14.9396 9.975 15.0146 9.75 15.0146Z" fill="#FACCB1"/></svg>