<svg width="20" height="22" viewBox="0 0 20 22" fill="none" xmlns="http://www.w3.org/2000/svg"><path d="M10.714 22H9.28544C8.07115 22 7.14258 21.1062 7.14258 19.9375V11.6875C7.14258 10.5187 8.07115 9.625 9.28544 9.625H10.714C11.9283 9.625 12.8569 10.5187 12.8569 11.6875V15.8125C12.8569 16.225 12.5711 16.5 12.1426 16.5C11.714 16.5 11.4283 16.225 11.4283 15.8125V11.6875C11.4283 11.275 11.1426 11 10.714 11H9.28544C8.85686 11 8.57115 11.275 8.57115 11.6875V19.9375C8.57115 20.35 8.85686 20.625 9.28544 20.625H10.714C11.1426 20.625 11.4283 20.35 11.4283 19.9375V18.5625C11.4283 18.15 11.714 17.875 12.1426 17.875C12.5711 17.875 12.8569 18.15 12.8569 18.5625V19.9375C12.8569 21.1062 11.9283 22 10.714 22Z" fill="#30CC67"/><path d="M3.57143 22H2.14286C0.928571 22 0 21.1062 0 19.9375V15.8125C0 14.6437 0.928571 13.75 2.14286 13.75H3.57143C4.78571 13.75 5.71429 14.6437 5.71429 15.8125V19.9375C5.71429 21.1062 4.78571 22 3.57143 22ZM2.14286 15.125C1.71429 15.125 1.42857 15.4 1.42857 15.8125V19.9375C1.42857 20.35 1.71429 20.625 2.14286 20.625H3.57143C4 20.625 4.28571 20.35 4.28571 19.9375V15.8125C4.28571 15.4 4 15.125 3.57143 15.125H2.14286Z" fill="#30CC67"/><path d="M17.8566 22H16.428C15.2137 22 14.2852 21.1062 14.2852 19.9375V8.9375C14.2852 7.76875 15.2137 6.875 16.428 6.875H17.8566C19.0709 6.875 19.9994 7.76875 19.9994 8.9375V11.6875C19.9994 12.1 19.7137 12.375 19.2852 12.375C18.8566 12.375 18.5709 12.1 18.5709 11.6875V8.9375C18.5709 8.525 18.2852 8.25 17.8566 8.25H16.428C15.9994 8.25 15.7137 8.525 15.7137 8.9375V19.9375C15.7137 20.35 15.9994 20.625 16.428 20.625H17.8566C18.2852 20.625 18.5709 20.35 18.5709 19.9375V14.4375C18.5709 14.025 18.8566 13.75 19.2852 13.75C19.7137 13.75 19.9994 14.025 19.9994 14.4375V19.9375C19.9994 21.1062 19.0709 22 17.8566 22Z" fill="#30CC67"/><path d="M2.8577 11C1.64342 11 0.714844 10.1063 0.714844 8.9375C0.714844 7.76875 1.64342 6.875 2.8577 6.875C4.07199 6.875 5.00056 7.76875 5.00056 8.9375C5.00056 10.1063 4.07199 11 2.8577 11ZM2.8577 8.25C2.42913 8.25 2.14342 8.525 2.14342 8.9375C2.14342 9.35 2.42913 9.625 2.8577 9.625C3.28627 9.625 3.57199 9.35 3.57199 8.9375C3.57199 8.525 3.28627 8.25 2.8577 8.25Z" fill="#8AECBF"/><path d="M10.0003 6.875C8.78599 6.875 7.85742 5.98125 7.85742 4.8125C7.85742 3.64375 8.78599 2.75 10.0003 2.75C11.2146 2.75 12.1431 3.64375 12.1431 4.8125C12.1431 5.98125 11.2146 6.875 10.0003 6.875ZM10.0003 4.125C9.57171 4.125 9.28599 4.4 9.28599 4.8125C9.28599 5.225 9.57171 5.5 10.0003 5.5C10.4289 5.5 10.7146 5.225 10.7146 4.8125C10.7146 4.4 10.4289 4.125 10.0003 4.125Z" fill="#8AECBF"/><path d="M17.1429 4.125C15.9286 4.125 15 3.23125 15 2.0625C15 0.89375 15.9286 0 17.1429 0C18.3571 0 19.2857 0.89375 19.2857 2.0625C19.2857 3.23125 18.3571 4.125 17.1429 4.125ZM17.1429 1.375C16.7143 1.375 16.4286 1.65 16.4286 2.0625C16.4286 2.475 16.7143 2.75 17.1429 2.75C17.5714 2.75 17.8571 2.475 17.8571 2.0625C17.8571 1.65 17.5714 1.375 17.1429 1.375Z" fill="#8AECBF"/><path d="M4.07171 8.93743C3.64314 8.93743 3.35742 8.59368 3.35742 8.24993C3.35742 7.97493 3.50028 7.76868 3.71456 7.63118L8.42885 4.94993C8.78599 4.74368 9.21457 4.88118 9.35742 5.22493C9.50028 5.49993 9.42885 5.91243 9.14314 6.11868L4.42885 8.79993C4.35742 8.86868 4.21456 8.93743 4.07171 8.93743Z" fill="#8AECBF"/><path d="M11.3569 5.01885C10.9283 5.01885 10.6426 4.74385 10.6426 4.33135C10.6426 4.05635 10.7854 3.78135 11.0711 3.7126L15.5711 1.99385C15.9283 1.85635 16.3569 1.99385 16.4997 2.3376C16.6426 2.68135 16.4997 3.09385 16.1426 3.23135L11.6426 4.9501C11.4997 4.9501 11.4283 5.01885 11.3569 5.01885Z" fill="#8AECBF"/></svg>