<svg width="22" height="22" viewBox="0 0 22 22" fill="none" xmlns="http://www.w3.org/2000/svg"><path d="M15.125 10.3125H6.875C6.4625 10.3125 6.1875 10.0375 6.1875 9.625C6.1875 9.2125 6.4625 8.9375 6.875 8.9375H15.125C15.5375 8.9375 15.8125 9.2125 15.8125 9.625C15.8125 10.0375 15.5375 10.3125 15.125 10.3125Z" fill="#E9ADBC"/><path d="M12.375 13.0625H6.875C6.4625 13.0625 6.1875 12.7875 6.1875 12.375C6.1875 11.9625 6.4625 11.6875 6.875 11.6875H12.375C12.7875 11.6875 13.0625 11.9625 13.0625 12.375C13.0625 12.7875 12.7875 13.0625 12.375 13.0625Z" fill="#E9ADBC"/><path d="M21.3125 16.5H18.5625V4.8125C18.5625 4.60625 18.4937 4.46875 18.3563 4.33125L18.15 4.125H18.5625C19.3188 4.125 19.9375 4.74375 19.9375 5.5V14.4375C19.9375 14.85 20.2125 15.125 20.625 15.125C21.0375 15.125 21.3125 14.85 21.3125 14.4375V5.5C21.3125 3.9875 20.075 2.75 18.5625 2.75H16.775L14.2313 0.20625C14.0938 0.06875 13.9563 0 13.75 0H5.5C4.33125 0 3.4375 0.89375 3.4375 2.0625V2.75C1.925 2.75 0.6875 3.9875 0.6875 5.5V16.5C0.275 16.5 0 16.775 0 17.1875V18.5625C0 20.4875 1.5125 22 3.4375 22H4.8125C5.225 22 5.5 21.725 5.5 21.3125C5.5 20.9 5.225 20.625 4.8125 20.625H3.4375C2.26875 20.625 1.375 19.7313 1.375 18.5625V17.875H20.625V18.5625C20.625 19.7313 19.7313 20.625 18.5625 20.625H7.5625C7.15 20.625 6.875 20.9 6.875 21.3125C6.875 21.725 7.15 22 7.5625 22H18.5625C20.4875 22 22 20.4875 22 18.5625V17.1875C22 16.775 21.725 16.5 21.3125 16.5ZM14.4375 2.3375L16.0187 3.91875L16.225 4.125H14.4375V2.3375ZM2.0625 5.5C2.0625 4.74375 2.68125 4.125 3.4375 4.125V16.5H2.0625V5.5ZM4.8125 16.5V2.0625C4.8125 1.65 5.0875 1.375 5.5 1.375H13.0625V4.8125C13.0625 5.225 13.3375 5.5 13.75 5.5H17.1875V16.5H4.8125Z" fill="#E63757"/></svg>