<svg width="20" height="24" viewBox="0 0 20 24" fill="none" xmlns="http://www.w3.org/2000/svg"><path d="M14.6154 24H2.30769C1 24 0 23.025 0 21.75V5.25C0 3.975 1 3 2.30769 3H3.84615C4.30769 3 4.61538 3.3 4.61538 3.75C4.61538 4.2 4.30769 4.5 3.84615 4.5H2.30769C1.84615 4.5 1.53846 4.8 1.53846 5.25V21.75C1.53846 22.2 1.84615 22.5 2.30769 22.5H14.6154C15.0769 22.5 15.3846 22.2 15.3846 21.75V8.85C15.3846 8.625 15.3077 8.475 15.1538 8.325L11.4615 4.725C11.3077 4.575 11.0769 4.5 10.9231 4.5H6.92308C6.46154 4.5 6.15385 4.2 6.15385 3.75C6.15385 3.3 6.46154 3 6.92308 3H10.9231C11.5385 3 12.1538 3.225 12.5385 3.675L16.2308 7.275C16.6923 7.725 16.9231 8.25 16.9231 8.85V21.75C16.9231 23.025 15.9231 24 14.6154 24Z" fill="#2F63DF"/><path d="M19.231 14.25C18.7695 14.25 18.4618 13.95 18.4618 13.5V5.85C18.4618 5.625 18.3848 5.475 18.231 5.325L14.5387 1.725C14.3848 1.575 14.1541 1.5 14.0002 1.5H5.38484C4.9233 1.5 4.61561 1.8 4.61561 2.25V3.75C4.61561 4.2 4.30792 4.5 3.84638 4.5C3.38484 4.5 3.07715 4.2 3.07715 3.75V2.25C3.07715 0.975 4.07715 0 5.38484 0H14.0002C14.6156 0 15.231 0.225 15.6156 0.675L19.3079 4.275C19.7695 4.725 20.0002 5.25 20.0002 5.85V13.5C20.0002 13.95 19.6925 14.25 19.231 14.25Z" fill="#2F63DF"/><path d="M17.6925 21H16.154C15.6925 21 15.3848 20.7 15.3848 20.25C15.3848 19.8 15.6925 19.5 16.154 19.5H17.6925C18.154 19.5 18.4617 19.2 18.4617 18.75V16.5C18.4617 16.05 18.7694 15.75 19.2309 15.75C19.6925 15.75 20.0002 16.05 20.0002 16.5V18.75C20.0002 20.025 19.0002 21 17.6925 21Z" fill="#2F63DF"/><path d="M15.3849 9H11.5388C11.0772 9 10.7695 8.7 10.7695 8.25V4.5C10.7695 4.05 11.0772 3.75 11.5388 3.75C12.0003 3.75 12.308 4.05 12.308 4.5V7.5H15.3849C15.8465 7.5 16.1541 7.8 16.1541 8.25C16.1541 8.7 15.8465 9 15.3849 9Z" fill="#2F63DF"/><path d="M7.69265 17.25C7.46188 17.25 7.30803 17.175 7.15418 17.025L4.84649 14.775C4.5388 14.475 4.5388 14.025 4.84649 13.725C5.15418 13.425 5.61572 13.425 5.92341 13.725L7.69265 15.45L11.0003 12.225C11.308 11.925 11.7696 11.925 12.0773 12.225C12.385 12.525 12.385 12.975 12.0773 13.275L8.23111 17.025C8.07726 17.175 7.92341 17.25 7.69265 17.25Z" fill="#9BBDF2"/></svg>