<svg width="15" height="25" viewBox="0 0 15 25" fill="none" xmlns="http://www.w3.org/2000/svg"><path d="M11.7681 18.5372L9.81688 10.7321L11.2428 8.93096C11.543 8.63076 11.4679 8.10542 11.1678 7.88027C10.8676 7.58008 10.3422 7.65513 10.1171 7.95532L8.6161 9.75649H6.36464L4.93871 7.95532C4.71357 7.65513 4.18823 7.58008 3.88803 7.80523C3.58784 8.03037 3.51279 8.55571 3.73793 8.85591L5.16386 10.6571L3.21259 18.5372C2.98745 19.2877 3.21259 20.1132 3.81298 20.6385L6.96503 23.7906C7.26522 24.0908 7.71551 24.0908 8.01571 23.7906L11.1678 20.6385C11.6931 20.1132 11.9182 19.2877 11.7681 18.5372ZM10.1171 19.5879L7.49037 22.2146L4.86366 19.5879C4.71357 19.4378 4.63852 19.1376 4.63852 18.8374L6.58978 11.2575H8.39095L10.2672 18.8374C10.3422 19.1376 10.2672 19.3627 10.1171 19.5879Z" fill="#9BBDF2"/><path d="M14.6949 1.65107L12.4434 0.150097C12.2933 0.0750486 12.1433 0 11.9932 0H2.98732C2.83722 0 2.68712 0 2.53702 0.150097L0.285565 1.65107C0.0604188 1.80117 -0.0896785 2.17641 0.0604188 2.47661L0.585759 3.97758C0.660808 4.35282 1.1111 4.57797 1.48634 4.42787C1.86159 4.27777 2.08673 3.90253 1.93663 3.45224L1.63644 2.55165L2.91227 1.72612L6.43955 5.25341L3.43761 8.25535L2.98732 6.60428C2.83722 6.15399 2.46198 5.92884 2.08673 6.00389C1.63644 6.15399 1.41129 6.52923 1.48634 6.90448L2.23683 9.90642C2.31188 10.1316 2.53702 10.3567 2.76217 10.4318C2.83722 10.4318 2.91227 10.4318 2.98732 10.4318C3.21246 10.4318 3.36256 10.3567 3.51266 10.2066L7.49023 6.30409L11.4678 10.2817C11.6179 10.4318 11.768 10.5068 11.9932 10.5068C12.0682 10.5068 12.1433 10.5068 12.1433 10.5068C12.3684 10.4318 12.5935 10.2817 12.6686 9.98147L14.9201 2.47661C15.0701 2.17641 14.9201 1.80117 14.6949 1.65107ZM4.78848 1.50097H10.192L7.49023 4.20272L4.78848 1.50097ZM11.6179 8.3304L8.54092 5.25341L12.0682 1.72612L13.344 2.55165L11.6179 8.3304Z" fill="#2F63DF"/></svg>