<svg width="88" height="87" viewBox="0 0 88 87" fill="none" xmlns="http://www.w3.org/2000/svg"><path d="M20.0312 27.1875C12.4188 27.1875 6.4375 21.2062 6.4375 13.5938C6.4375 5.98125 12.4188 0 20.0312 0C27.6437 0 33.625 5.98125 33.625 13.5938C33.625 21.2062 27.6437 27.1875 20.0312 27.1875ZM20.0312 5.4375C15.4094 5.4375 11.875 8.97188 11.875 13.5938C11.875 18.2156 15.4094 21.75 20.0312 21.75C24.6531 21.75 28.1875 18.2156 28.1875 13.5938C28.1875 8.97188 24.6531 5.4375 20.0312 5.4375Z" fill="#F5803E"/><path d="M11.8749 43.5002H6.43745C5.07807 43.5002 3.99057 42.6845 3.7187 41.3252L0.999947 27.7314C0.728072 26.6439 1.27182 25.2845 2.35932 24.7408L12.1468 19.847C13.5062 19.3033 15.1374 19.847 15.6812 21.2064C16.2249 22.5658 15.6812 24.197 14.3218 24.7408L6.43745 28.8189L8.61245 38.0627H11.8749C13.5062 38.0627 14.5937 39.1502 14.5937 40.7814C14.5937 42.4127 13.5062 43.5002 11.8749 43.5002Z" fill="#F5803E"/><path d="M33.625 43.5002H22.75C21.1187 43.5002 20.0312 42.4127 20.0312 40.7814C20.0312 39.1502 21.1187 38.0627 22.75 38.0627H31.45L33.3531 28.8189L25.4688 24.7408C24.1094 24.197 23.5656 22.5658 24.1094 21.2064C24.6531 19.847 26.2844 19.3033 27.6438 19.847L37.4312 24.7408C38.5187 25.2845 39.0625 26.372 38.7906 27.7314L36.0719 41.3252C36.0719 42.6845 34.9844 43.5002 33.625 43.5002Z" fill="#F5803E"/><path d="M68.9688 70.6875C61.3563 70.6875 55.375 64.7062 55.375 57.0938C55.375 49.4813 61.3563 43.5 68.9688 43.5C76.5812 43.5 82.5625 49.4813 82.5625 57.0938C82.5625 64.7062 76.5812 70.6875 68.9688 70.6875ZM68.9688 48.9375C64.3469 48.9375 60.8125 52.4719 60.8125 57.0938C60.8125 61.7156 64.3469 65.25 68.9688 65.25C73.5906 65.25 77.125 61.7156 77.125 57.0938C77.125 52.4719 73.5906 48.9375 68.9688 48.9375Z" fill="#F5803E"/><path d="M60.8124 87.0002H55.3749C54.0156 87.0002 52.9281 86.1846 52.6562 84.8252L49.9374 71.2315C49.6656 70.144 50.2093 68.7846 51.2968 68.2408L61.0843 63.3471C62.4437 62.5315 64.0749 63.0752 64.6187 64.4346C65.4343 65.794 64.8906 67.4252 63.5312 67.969L55.6468 72.0471L57.5499 81.2908H60.8124C62.4437 81.2908 63.5312 82.3783 63.5312 84.0096C63.5312 85.6408 62.4437 87.0002 60.8124 87.0002Z" fill="#F5803E"/><path d="M82.5625 87.0002H71.6875C70.0562 87.0002 68.9688 85.9127 68.9688 84.2814C68.9688 82.6502 70.0562 81.5627 71.6875 81.5627H80.3875L82.2906 72.3189L74.4062 68.2408C73.0469 67.697 72.5031 66.0658 73.0469 64.7064C73.5906 63.347 75.2219 62.8033 76.5812 63.347L86.3687 68.2408C87.4562 68.7845 88 69.872 87.7281 71.2314L85.0094 84.8252C85.0094 86.1845 83.9219 87.0002 82.5625 87.0002Z" fill="#F5803E"/><path d="M68.9688 38.0625C67.3375 38.0625 66.25 36.975 66.25 35.3438V29.9062C66.25 22.2937 60.2688 16.3125 52.6562 16.3125H47.2188C45.5875 16.3125 44.5 15.225 44.5 13.5938C44.5 11.9625 45.5875 10.875 47.2188 10.875H52.6562C63.2594 10.875 71.6875 19.3031 71.6875 29.9062V35.3438C71.6875 36.975 70.6 38.0625 68.9688 38.0625Z" fill="#FACCB1"/><path d="M47.2187 21.75C46.4031 21.75 45.8594 21.4781 45.3156 20.9344L39.8781 15.4969C38.7906 14.4094 38.7906 12.7781 39.8781 11.6906L45.3156 6.25313C46.4031 5.16563 48.0344 5.16563 49.1219 6.25313C50.2094 7.34063 50.2094 8.97188 49.1219 10.0594L45.5875 13.5938L49.1219 17.1281C50.2094 18.2156 50.2094 19.8469 49.1219 20.9344C48.5781 21.4781 48.0344 21.75 47.2187 21.75Z" fill="#FACCB1"/><path d="M36.3438 76.125H30.9062C23.2938 76.125 17.3125 70.1437 17.3125 62.5312V51.6562C17.3125 50.025 18.4 48.9375 20.0312 48.9375C21.6625 48.9375 22.75 50.025 22.75 51.6562V62.5312C22.75 67.1531 26.2844 70.6875 30.9062 70.6875H36.3438C37.975 70.6875 39.0625 71.775 39.0625 73.4062C39.0625 75.0375 37.975 76.125 36.3438 76.125Z" fill="#FACCB1"/><path d="M36.3438 81.5625C34.7125 81.5625 33.625 80.475 33.625 78.8438C33.625 78.0281 33.8969 77.4844 34.4406 76.9406L37.975 73.4063L34.4406 69.8719C33.3531 68.7844 33.3531 67.1531 34.4406 66.0656C35.5281 64.9781 37.1594 64.9781 38.2469 66.0656L43.6844 71.5031C44.7719 72.5906 44.7719 74.2219 43.6844 75.3094L38.2469 80.7469C37.7031 81.2906 37.1594 81.5625 36.3438 81.5625Z" fill="#FACCB1"/></svg>