<svg width="269" height="83" viewBox="0 0 269 83" fill="none" xmlns="http://www.w3.org/2000/svg"><path d="M268.938 -17.4957C268.965 -16.8324 268.984 -16.1675 268.993 -15.501L268.493 -15.494C268.498 -15.1631 268.5 -14.8317 268.5 -14.5C268.5 -14.1683 268.498 -13.837 268.493 -13.5061L268.993 -13.4992C268.984 -12.8326 268.965 -12.1677 268.938 -11.5044L268.438 -11.5252C268.411 -10.8666 268.374 -10.2096 268.329 -9.55436L268.828 -9.51974C268.781 -8.85445 268.726 -8.19092 268.662 -7.52921L268.164 -7.57771C268.1 -6.92051 268.027 -6.26511 267.945 -5.6116L268.441 -5.5493C268.358 -4.88961 268.266 -4.23183 268.165 -3.576L267.671 -3.652C267.571 -2.99905 267.461 -2.34805 267.343 -1.69907L267.835 -1.60944C267.716 -0.95594 267.588 -0.304482 267.451 0.344872L266.962 0.241768C266.826 0.887825 266.681 1.53179 266.527 2.17361L267.013 2.29004C266.858 2.93626 266.695 3.58031 266.523 4.22211L266.04 4.09254C265.869 4.72963 265.689 5.3645 265.501 5.9971L265.981 6.1396C265.791 6.77612 265.593 7.41033 265.387 8.04218L264.912 7.88699C264.707 8.51455 264.494 9.13978 264.272 9.7626L264.743 9.93025C264.521 10.5549 264.29 11.1772 264.051 11.7969L263.585 11.6171C263.347 12.2328 263.102 12.8461 262.848 13.4568L263.31 13.6486C263.055 14.2613 262.793 14.8714 262.522 15.479L262.066 15.2756C261.798 15.8776 261.522 16.477 261.238 17.0739L261.689 17.2886C261.404 17.889 261.11 18.4868 260.809 19.0818L260.363 18.8561C260.066 19.4428 259.762 20.027 259.449 20.6084L259.89 20.8449C259.576 21.4299 259.254 22.0121 258.925 22.5916L258.491 22.3447C258.165 22.9178 257.832 23.4883 257.492 24.0559L257.921 24.3129C257.58 24.8811 257.233 25.4465 256.878 26.009L256.455 25.7422C256.102 26.3015 255.742 26.8579 255.375 27.4115L255.792 27.6878C255.426 28.2386 255.054 28.7865 254.675 29.3315L254.265 29.046C253.888 29.5877 253.504 30.1265 253.114 30.6623L253.518 30.9567C253.128 31.493 252.73 32.0264 252.327 32.5567L251.929 32.2538C251.53 32.7772 251.125 33.2977 250.713 33.8152L251.105 34.1264C250.691 34.6466 250.271 35.1638 249.844 35.6779L249.46 35.3587C249.039 35.8651 248.613 36.3685 248.181 36.8689L248.559 37.1958C248.126 37.6971 247.686 38.1953 247.241 38.6903L246.869 38.3559C246.427 38.8479 245.978 39.3367 245.524 39.8224L245.889 40.1641C245.438 40.6461 244.981 41.1251 244.518 41.6009L244.16 41.2524C243.699 41.726 243.233 42.1965 242.761 42.6638L243.113 43.019C242.642 43.4857 242.165 43.9493 241.683 44.4097L241.338 44.048C240.862 44.5024 240.38 44.9538 239.894 45.4019L240.232 45.7697C239.743 46.2199 239.249 46.6669 238.749 47.1106L238.417 46.7368C237.925 47.1741 237.427 47.6083 236.924 48.0392L237.25 48.4188C236.747 48.8497 236.24 49.2774 235.727 49.7018L235.408 49.3167C234.898 49.7393 234.382 50.1587 233.862 50.5748L234.174 50.9653C233.658 51.3775 233.138 51.7865 232.613 52.1922L232.307 51.7966C231.785 52.2002 231.258 52.6005 230.726 52.9977L231.026 53.3982C230.493 53.7963 229.955 54.191 229.413 54.5824L229.12 54.177C228.587 54.5618 228.05 54.9434 227.508 55.3217L227.794 55.7316C227.25 56.1114 226.702 56.4879 226.149 56.8611L225.87 56.4467C225.321 56.817 224.769 57.1839 224.212 57.5475L224.485 57.9662C223.932 58.3273 223.375 58.6852 222.814 59.0397L222.547 58.6169C221.987 58.9701 221.424 59.32 220.857 59.6665L221.117 60.0932C220.551 60.4391 219.981 60.7817 219.407 61.1209L219.152 60.6904C218.585 61.0253 218.015 61.3569 217.44 61.6852L217.688 62.1194C217.111 62.4488 216.531 62.775 215.947 63.0977L215.705 62.66C215.126 62.9796 214.544 63.2958 213.958 63.6086L214.194 64.0497C213.611 64.3611 213.024 64.6692 212.434 64.974L212.204 64.5297C211.616 64.8334 211.024 65.1337 210.429 65.4306L210.652 65.8781C210.059 66.174 209.462 66.4667 208.862 66.7559L208.645 66.3055C208.051 66.5915 207.454 66.8743 206.854 67.1536L207.065 67.6069C206.462 67.8872 205.857 68.1642 205.248 68.4377L205.043 67.9816C204.44 68.2524 203.834 68.52 203.224 68.7841L203.423 69.2428C202.817 69.5058 202.207 69.7654 201.594 70.0216L201.401 69.5603C200.79 69.8156 200.176 70.0676 199.559 70.3161L199.746 70.7799C199.131 71.0279 198.512 71.2726 197.891 71.5137L197.71 71.0476C197.095 71.286 196.478 71.5211 195.858 71.7527L196.033 72.2211C195.411 72.4535 194.786 72.6825 194.159 72.908L193.99 72.4375C193.366 72.6615 192.74 72.882 192.112 73.0991L192.275 73.5717C191.65 73.7874 191.023 73.9998 190.393 74.2087L190.236 73.7341C189.608 73.9424 188.977 74.1472 188.344 74.3486L188.495 74.8251C187.862 75.0268 187.225 75.225 186.586 75.4197L186.44 74.9414C185.81 75.1334 185.178 75.322 184.543 75.5072L184.683 75.9872C184.046 76.1729 183.407 76.3552 182.766 76.534L182.632 76.0524C181.992 76.2307 181.35 76.4056 180.706 76.5769L180.834 77.0601C180.196 77.2299 179.556 77.3963 178.913 77.5592L178.79 77.0746C178.149 77.237 177.507 77.3959 176.862 77.5514L176.979 78.0375C176.332 78.1934 175.683 78.3459 175.032 78.4949L174.92 78.0075C174.277 78.1547 173.632 78.2985 172.984 78.4388L173.09 78.9275C172.443 79.0677 171.794 79.2046 171.143 79.3379L171.042 78.8481C170.393 78.9811 169.742 79.1106 169.088 79.2366L169.183 79.7276C168.532 79.8533 167.878 79.9755 167.223 80.0942L167.134 79.6022C166.485 79.7198 165.834 79.834 165.181 79.9447L165.265 80.4377C164.61 80.5488 163.953 80.6563 163.295 80.7604L163.217 80.2665C162.562 80.3701 161.905 80.4703 161.246 80.5669L161.319 81.0616C160.665 81.1575 160.009 81.25 159.352 81.339L159.285 80.8435C158.63 80.9322 157.973 81.0175 157.314 81.0993L157.375 81.5955C156.715 81.6776 156.053 81.7561 155.389 81.8311L155.333 81.3343C154.677 81.4084 154.02 81.4791 153.361 81.5463L153.412 82.0437C152.753 82.1109 152.093 82.1747 151.431 82.2349L151.385 81.737C150.725 81.7971 150.064 81.8537 149.4 81.9069L149.44 82.4053C148.779 82.4583 148.115 82.5078 147.451 82.5538L147.416 82.055C146.758 82.1006 146.099 82.1427 145.438 82.1814L145.467 82.6805C144.805 82.7193 144.141 82.7546 143.475 82.7864L143.451 82.2869C142.788 82.3186 142.123 82.3468 141.457 82.3715L141.476 82.8711C140.815 82.8956 140.154 82.9166 139.491 82.9341L139.478 82.4343C138.817 82.4518 138.155 82.4658 137.492 82.4763L137.5 82.9762C136.835 82.9868 136.169 82.9938 135.502 82.9973L135.499 82.4974C135.166 82.4991 134.833 82.5 134.5 82.5C134.167 82.5 133.834 82.4991 133.501 82.4974L133.498 82.9974C132.831 82.9938 132.165 82.9868 131.5 82.9762L131.508 82.4763C130.845 82.4658 130.183 82.4518 129.522 82.4343L129.509 82.9341C128.846 82.9166 128.185 82.8956 127.525 82.8711L127.543 82.3715C126.877 82.3468 126.212 82.3186 125.549 82.2869L125.525 82.7864C124.859 82.7546 124.195 82.7193 123.533 82.6805L123.562 82.1814C122.901 82.1427 122.242 82.1006 121.584 82.055L121.549 82.5538C120.885 82.5078 120.221 82.4583 119.56 82.4053L119.6 81.9069C118.937 81.8537 118.275 81.7971 117.615 81.737L117.569 82.235C116.907 82.1747 116.247 82.1109 115.588 82.0437L115.639 81.5463C114.98 81.4791 114.323 81.4084 113.667 81.3343L113.611 81.8311C112.947 81.7561 112.285 81.6776 111.625 81.5955L111.686 81.0993C111.027 81.0175 110.37 80.9322 109.715 80.8435L109.648 81.339C108.991 81.25 108.335 81.1575 107.681 81.0616L107.754 80.5669C107.095 80.4703 106.438 80.3701 105.783 80.2665L105.705 80.7604C105.047 80.6563 104.39 80.5488 103.735 80.4377L103.819 79.9447C103.166 79.834 102.515 79.7198 101.866 79.6022L101.777 80.0942C101.122 79.9755 100.468 79.8533 99.817 79.7276L99.9117 79.2366C99.2584 79.1106 98.6071 78.9811 97.9578 78.8481L97.8575 79.3379C97.2063 79.2046 96.5571 79.0677 95.91 78.9275L96.0159 78.4388C95.3684 78.2985 94.723 78.1547 94.0796 78.0075L93.9681 78.4949C93.3169 78.3459 92.6679 78.1934 92.0211 78.0375L92.1383 77.5514C91.4934 77.3959 90.8506 77.237 90.2101 77.0746L90.0872 77.5592C89.4444 77.3963 88.8039 77.2299 88.1656 77.0601L88.2941 76.5769C87.6498 76.4055 87.0079 76.2307 86.3683 76.0524L86.2341 76.534C85.5926 76.3552 84.9535 76.1729 84.3167 75.9872L84.4568 75.5072C83.822 75.322 83.1896 75.1334 82.5597 74.9414L82.4139 75.4197C81.7749 75.225 81.1384 75.0267 80.5045 74.8251L80.656 74.3486C80.0229 74.1472 79.3923 73.9423 78.7643 73.7341L78.6069 74.2087C77.977 73.9998 77.3497 73.7874 76.725 73.5717L76.8882 73.0991C76.2595 72.882 75.6335 72.6614 75.0103 72.4375L74.8412 72.908C74.2136 72.6825 73.5887 72.4535 72.9667 72.2211L73.1417 71.7527C72.5217 71.5211 71.9045 71.286 71.2901 71.0476L71.1092 71.5137C70.4878 71.2725 69.8692 71.0279 69.2536 70.7799L69.4404 70.3161C68.8236 70.0676 68.2097 69.8156 67.5988 69.5602L67.406 70.0215C66.7932 69.7654 66.1834 69.5058 65.5767 69.2428L65.7755 68.784C65.1662 68.5199 64.5599 68.2524 63.9569 67.9815L63.752 68.4376C63.1432 68.1641 62.5376 67.8872 61.9353 67.6069L62.1463 67.1536C61.546 66.8742 60.949 66.5915 60.3553 66.3054L60.1383 66.7559C59.5381 66.4666 58.9412 66.174 58.3479 65.878L58.571 65.4306C57.9757 65.1337 57.3839 64.8333 56.7957 64.5297L56.5663 64.974C55.976 64.6692 55.3892 64.3611 54.8061 64.0497L55.0416 63.6086C54.4558 63.2958 53.8736 62.9796 53.2952 62.66L53.0534 63.0977C52.4692 62.7749 51.8886 62.4488 51.3119 62.1193L51.56 61.6852C50.9854 61.3569 50.4146 61.0253 49.8476 60.6904L49.5933 61.1209C49.0191 60.7817 48.4488 60.4391 47.8825 60.0932L48.1432 59.6665C47.5759 59.3199 47.0126 58.9701 46.4534 58.6169L46.1864 59.0396C45.6251 58.6851 45.0679 58.3273 44.5148 57.9662L44.7882 57.5475C44.2313 57.1839 43.6786 56.8169 43.1303 56.4467L42.8505 56.8611C42.2978 56.4879 41.7495 56.1114 41.2055 55.7316L41.4917 55.3216C40.9499 54.9433 40.4125 54.5618 39.8796 54.177L39.5869 54.5824C39.0448 54.191 38.5073 53.7962 37.9744 53.3982L38.2736 52.9976C37.7419 52.6005 37.2149 52.2001 36.6926 51.7965L36.3869 52.1922C35.8618 51.7865 35.3416 51.3775 34.8261 50.9653L35.1383 50.5748C34.6179 50.1586 34.1024 49.7393 33.5919 49.3166L33.2731 49.7018C32.7604 49.2773 32.2527 48.8497 31.7501 48.4188L32.0755 48.0392C31.5728 47.6082 31.0752 47.1741 30.5828 46.7367L30.2508 47.1106C29.7512 46.6669 29.2568 46.2199 28.7678 45.7697L29.1064 45.4019C28.6196 44.9537 28.1382 44.5024 27.6622 44.048L27.3169 44.4096C26.8347 43.9492 26.3579 43.4857 25.8868 43.019L26.2386 42.6637C25.7669 42.1964 25.3008 41.7259 24.8404 41.2524L24.4819 41.6009C24.0193 41.125 23.5624 40.6461 23.1114 40.164L23.4764 39.8224C23.0219 39.3367 22.5734 38.8478 22.1308 38.3559L21.7591 38.6903C21.3137 38.1952 20.8743 37.697 20.4411 37.1958L20.8194 36.8688C20.3869 36.3684 19.9606 35.865 19.5404 35.3586L19.1556 35.6779C18.7291 35.1638 18.3089 34.6466 17.8952 34.1264L18.2866 33.8152C17.875 33.2977 17.4698 32.7772 17.0712 32.2538L16.6734 32.5567C16.2695 32.0264 15.8722 31.493 15.4816 30.9567L15.8858 30.6623C15.4955 30.1264 15.112 29.5877 14.7353 29.046L14.3248 29.3315C13.9458 28.7865 13.5736 28.2386 13.2084 27.6878L13.6251 27.4115C13.258 26.8579 12.898 26.3014 12.5451 25.7422L12.1223 26.009C11.7674 25.4465 11.4196 24.8811 11.0791 24.3129L11.508 24.0559C11.1679 23.4883 10.835 22.9178 10.5095 22.3447L10.0747 22.5916C9.74564 22.0121 9.42406 21.4299 9.11005 20.8449L9.55059 20.6084C9.23846 20.027 8.93387 19.4428 8.63691 18.8561L8.19079 19.0818C7.88963 18.4868 7.59625 17.889 7.31074 17.2886L7.76229 17.0739C7.47847 16.477 7.20249 15.8776 6.93442 15.2756L6.47766 15.479C6.20713 14.8714 5.94461 14.2613 5.69017 13.6486L6.15194 13.4569C5.8983 12.8461 5.65276 12.2328 5.41542 11.6171L4.94888 11.7969C4.70999 11.1772 4.47933 10.555 4.25699 9.93029L4.72805 9.76263C4.50637 9.13982 4.29304 8.5146 4.08813 7.88703L3.61282 8.04222C3.40652 7.41039 3.2087 6.77618 3.01945 6.13965L3.49872 5.99715C3.31064 5.36456 3.13109 4.72969 2.96016 4.09261L2.47724 4.22218C2.30505 3.58038 2.14154 2.93633 1.98681 2.2901L2.47307 2.17368C2.31939 1.53186 2.17444 0.887894 2.03829 0.241844L1.54904 0.34494C1.4122 -0.304405 1.2842 -0.955864 1.16512 -1.60936L1.65702 -1.69899C1.53877 -2.34797 1.42939 -2.99896 1.32897 -3.65192L0.834779 -3.5759C0.733914 -4.23173 0.642023 -4.88952 0.559196 -5.54921L1.0553 -5.6115C0.97325 -6.26501 0.900157 -6.9204 0.836113 -7.5776L0.33847 -7.52911C0.273986 -8.19082 0.218611 -8.85434 0.172435 -9.51963L0.671235 -9.55425C0.625755 -10.2095 0.589262 -10.8665 0.561842 -11.5251L0.0622749 -11.5043C0.0346633 -12.1676 0.0161894 -12.8325 0.00694146 -13.499L0.506893 -13.506C0.502301 -13.8369 0.5 -14.1683 0.5 -14.5C0.5 -14.8317 0.502301 -15.163 0.506892 -15.4939L0.00693972 -15.5008C0.0161866 -16.1674 0.0346594 -16.8323 0.0622702 -17.4956L0.561837 -17.4748C0.589256 -18.1334 0.625749 -18.7904 0.671228 -19.4456L0.172427 -19.4803C0.218602 -20.1456 0.273976 -20.8091 0.338459 -21.4708L0.836102 -21.4223C0.900146 -22.0795 0.973238 -22.7349 1.05529 -23.3884L0.559184 -23.4507C0.64201 -24.1104 0.733901 -24.7682 0.834767 -25.424L1.32896 -25.348C1.42938 -26.001 1.53876 -26.6519 1.65701 -27.3009L1.16511 -27.3906C1.28418 -28.0441 1.41218 -28.6955 1.54902 -29.3449L2.03828 -29.2418C2.17442 -29.8878 2.31938 -30.5318 2.47305 -31.1736L1.98679 -31.29C2.14153 -31.9363 2.30503 -32.5803 2.47723 -33.2221L2.96015 -33.0925C3.13108 -33.7296 3.31062 -34.3645 3.4987 -34.9971L3.01944 -35.1396C3.20869 -35.7761 3.40651 -36.4103 3.61281 -37.0422L4.08811 -36.887C4.29302 -37.5145 4.50636 -38.1398 4.72803 -38.7626L4.25698 -38.9303C4.47931 -39.5549 4.70997 -40.1772 4.94887 -40.7969L5.41541 -40.6171C5.65275 -41.2328 5.89829 -41.8461 6.15193 -42.4568L5.69016 -42.6486C5.9446 -43.2613 6.20712 -43.8714 6.47765 -44.479L6.93441 -44.2756C7.20248 -44.8776 7.47847 -45.477 7.76228 -46.0739L7.31073 -46.2886C7.59625 -46.889 7.88963 -47.4868 8.19079 -48.0818L8.63691 -47.8561C8.93387 -48.4428 9.23846 -49.027 9.55059 -49.6084L9.11005 -49.8449C9.42406 -50.4299 9.74564 -51.0121 10.0747 -51.5916L10.5095 -51.3447C10.835 -51.9178 11.1679 -52.4883 11.508 -53.0559L11.0791 -53.3129C11.4196 -53.8811 11.7674 -54.4465 12.1223 -55.009L12.5452 -54.7422C12.898 -55.3015 13.258 -55.8579 13.6251 -56.4115L13.2084 -56.6878C13.5736 -57.2386 13.9458 -57.7865 14.3248 -58.3315L14.7353 -58.046C15.112 -58.5877 15.4955 -59.1265 15.8858 -59.6623L15.4816 -59.9567C15.8722 -60.493 16.2695 -61.0264 16.6735 -61.5567L17.0712 -61.2538C17.4699 -61.7772 17.875 -62.2977 18.2866 -62.8152L17.8953 -63.1264C18.309 -63.6466 18.7291 -64.1638 19.1557 -64.6779L19.5405 -64.3587C19.9606 -64.8651 20.3869 -65.3685 20.8194 -65.8689L20.4411 -66.1958C20.8744 -66.6971 21.3137 -67.1953 21.7591 -67.6903L22.1309 -67.3559C22.5734 -67.8479 23.022 -68.3367 23.4765 -68.8225L23.1114 -69.1641C23.5625 -69.6461 24.0193 -70.1251 24.4819 -70.6009L24.8404 -70.2524C25.3008 -70.726 25.7669 -71.1965 26.2387 -71.6638L25.8868 -72.019C26.358 -72.4857 26.8347 -72.9493 27.317 -73.4097L27.6622 -73.048C28.1382 -73.5024 28.6197 -73.9538 29.1065 -74.4019L28.7678 -74.7698C29.2569 -75.2199 29.7512 -75.6669 30.2508 -76.1106L30.5829 -75.7368C31.0753 -76.1741 31.5729 -76.6083 32.0756 -77.0392L31.7502 -77.4188C32.2528 -77.8497 32.7605 -78.2774 33.2731 -78.7018L33.592 -78.3167C34.1025 -78.7393 34.618 -79.1587 35.1384 -79.5748L34.8261 -79.9653C35.3416 -80.3775 35.8619 -80.7865 36.3869 -81.1922L36.6927 -80.7966C37.215 -81.2002 37.742 -81.6005 38.2736 -81.9977L37.9744 -82.3982C38.5073 -82.7963 39.0449 -83.191 39.587 -83.5824L39.8797 -83.177C40.4126 -83.5618 40.95 -83.9434 41.4918 -84.3217L41.2056 -84.7316C41.7495 -85.1114 42.2979 -85.4879 42.8506 -85.8611L43.1304 -85.4467C43.6787 -85.817 44.2314 -86.1839 44.7883 -86.5476L44.5149 -86.9662C45.068 -87.3273 45.6252 -87.6852 46.1865 -88.0397L46.4535 -87.6169C47.0126 -87.9701 47.5759 -88.32 48.1432 -88.6665L47.8826 -89.0932C48.4489 -89.4391 49.0192 -89.7817 49.5934 -90.1209L49.8477 -89.6904C50.4146 -90.0253 50.9854 -90.3569 51.5601 -90.6852L51.312 -91.1194C51.8887 -91.4488 52.4692 -91.775 53.0535 -92.0977L53.2953 -91.6601C53.8737 -91.9796 54.4558 -92.2958 55.0416 -92.6086L54.8061 -93.0497C55.3893 -93.3611 55.9761 -93.6692 56.5664 -93.974L56.7958 -93.5297C57.384 -93.8334 57.9758 -94.1337 58.5711 -94.4306L58.3479 -94.8781C58.9413 -95.174 59.5381 -95.4667 60.1383 -95.7559L60.3554 -95.3055C60.949 -95.5915 61.546 -95.8743 62.1463 -96.1536L61.9354 -96.6069C62.5377 -96.8872 63.1433 -97.1642 63.7521 -97.4377L63.957 -96.9816C64.56 -97.2524 65.1662 -97.52 65.7756 -97.7841L65.5767 -98.2428C66.1834 -98.5058 66.7932 -98.7654 67.4061 -99.0216L67.5989 -98.5603C68.2097 -98.8156 68.8236 -99.0676 69.4405 -99.3161L69.2537 -99.7799C69.8693 -100.028 70.4878 -100.273 71.1093 -100.514L71.2902 -100.048C71.9046 -100.286 72.5218 -100.521 73.1418 -100.753L72.9668 -101.221C73.5888 -101.454 74.2136 -101.682 74.8412 -101.908L75.0103 -101.437C75.6336 -101.661 76.2596 -101.882 76.8883 -102.099L76.7251 -102.572C77.3497 -102.787 77.977 -103 78.607 -103.209L78.7644 -102.734C79.3923 -102.942 80.0229 -103.147 80.6561 -103.349L80.5045 -103.825C81.1385 -104.027 81.775 -104.225 82.414 -104.42L82.5597 -103.941C83.1897 -104.133 83.822 -104.322 84.4568 -104.507L84.3168 -104.987C84.9535 -105.173 85.5926 -105.355 86.2341 -105.534L86.3684 -105.052C87.0079 -105.231 87.6499 -105.406 88.2941 -105.577L88.1656 -106.06C88.8039 -106.23 89.4445 -106.396 90.0873 -106.559L90.2101 -106.075C90.8507 -106.237 91.4934 -106.396 92.1383 -106.551L92.0211 -107.037C92.668 -107.193 93.317 -107.346 93.9681 -107.495L94.0796 -107.008C94.723 -107.155 95.3684 -107.299 96.0159 -107.439L95.91 -107.927C96.5571 -108.068 97.2063 -108.205 97.8575 -108.338L97.9578 -107.848C98.6071 -107.981 99.2584 -108.111 99.9117 -108.237L99.817 -108.728C100.468 -108.853 101.122 -108.975 101.777 -109.094L101.866 -108.602C102.515 -108.72 103.166 -108.834 103.819 -108.945L103.735 -109.438C104.39 -109.549 105.047 -109.656 105.705 -109.76L105.783 -109.267C106.438 -109.37 107.095 -109.47 107.754 -109.567L107.681 -110.062C108.335 -110.158 108.991 -110.25 109.648 -110.339L109.715 -109.843C110.37 -109.932 111.027 -110.018 111.686 -110.099L111.625 -110.596C112.285 -110.678 112.947 -110.756 113.611 -110.831L113.667 -110.334C114.323 -110.408 114.98 -110.479 115.639 -110.546L115.588 -111.044C116.247 -111.111 116.907 -111.175 117.569 -111.235L117.615 -110.737C118.275 -110.797 118.936 -110.854 119.6 -110.907L119.56 -111.405C120.221 -111.458 120.885 -111.508 121.549 -111.554L121.584 -111.055C122.242 -111.101 122.901 -111.143 123.562 -111.181L123.533 -111.681C124.195 -111.719 124.859 -111.755 125.525 -111.786L125.549 -111.287C126.212 -111.319 126.877 -111.347 127.543 -111.371L127.524 -111.871C128.185 -111.896 128.846 -111.917 129.509 -111.934L129.522 -111.434C130.183 -111.452 130.845 -111.466 131.508 -111.476L131.5 -111.976C132.165 -111.987 132.831 -111.994 133.498 -111.997L133.501 -111.497C133.834 -111.499 134.167 -111.5 134.5 -111.5C134.833 -111.5 135.166 -111.499 135.499 -111.497L135.502 -111.997C136.169 -111.994 136.835 -111.987 137.5 -111.976L137.492 -111.476C138.155 -111.466 138.817 -111.452 139.478 -111.434L139.491 -111.934C140.154 -111.917 140.815 -111.896 141.475 -111.871L141.457 -111.371C142.123 -111.347 142.788 -111.319 143.451 -111.287L143.475 -111.786C144.141 -111.755 144.804 -111.719 145.467 -111.681L145.438 -111.181C146.099 -111.143 146.758 -111.101 147.416 -111.055L147.451 -111.554C148.115 -111.508 148.779 -111.458 149.44 -111.405L149.4 -110.907C150.063 -110.854 150.725 -110.797 151.385 -110.737L151.431 -111.235C152.093 -111.175 152.753 -111.111 153.412 -111.044L153.361 -110.546C154.02 -110.479 154.677 -110.408 155.333 -110.334L155.389 -110.831C156.053 -110.756 156.715 -110.678 157.375 -110.596L157.314 -110.099C157.973 -110.018 158.63 -109.932 159.285 -109.843L159.352 -110.339C160.009 -110.25 160.665 -110.158 161.319 -110.062L161.246 -109.567C161.905 -109.47 162.562 -109.37 163.217 -109.267L163.295 -109.76C163.953 -109.656 164.61 -109.549 165.264 -109.438L165.181 -108.945C165.834 -108.834 166.485 -108.72 167.134 -108.602L167.223 -109.094C167.878 -108.975 168.532 -108.853 169.183 -108.728L169.088 -108.237C169.742 -108.111 170.393 -107.981 171.042 -107.848L171.143 -108.338C171.794 -108.205 172.443 -108.068 173.09 -107.927L172.984 -107.439C173.632 -107.299 174.277 -107.155 174.92 -107.008L175.032 -107.495C175.683 -107.346 176.332 -107.193 176.979 -107.037L176.862 -106.551C177.507 -106.396 178.149 -106.237 178.79 -106.075L178.913 -106.559C179.556 -106.396 180.196 -106.23 180.834 -106.06L180.706 -105.577C181.35 -105.406 181.992 -105.231 182.632 -105.052L182.766 -105.534C183.407 -105.355 184.047 -105.173 184.683 -104.987L184.543 -104.507C185.178 -104.322 185.81 -104.133 186.44 -103.941L186.586 -104.42C187.225 -104.225 187.862 -104.027 188.496 -103.825L188.344 -103.349C188.977 -103.147 189.608 -102.942 190.236 -102.734L190.393 -103.209C191.023 -103 191.65 -102.787 192.275 -102.572L192.112 -102.099C192.74 -101.882 193.366 -101.661 193.99 -101.437L194.159 -101.908C194.786 -101.682 195.411 -101.453 196.033 -101.221L195.858 -100.753C196.478 -100.521 197.096 -100.286 197.71 -100.048L197.891 -100.514C198.512 -100.273 199.131 -100.028 199.746 -99.7799L199.56 -99.3161C200.176 -99.0676 200.79 -98.8156 201.401 -98.5602L201.594 -99.0215C202.207 -98.7654 202.817 -98.5058 203.423 -98.2428L203.224 -97.784C203.834 -97.5199 204.44 -97.2524 205.043 -96.9815L205.248 -97.4376C205.857 -97.1641 206.462 -96.8872 207.065 -96.6069L206.854 -96.1536C207.454 -95.8742 208.051 -95.5915 208.645 -95.3054L208.862 -95.7559C209.462 -95.4666 210.059 -95.174 210.652 -94.878L210.429 -94.4306C211.024 -94.1337 211.616 -93.8333 212.204 -93.5297L212.434 -93.9739C213.024 -93.6692 213.611 -93.3611 214.194 -93.0497L213.958 -92.6086C214.544 -92.2958 215.126 -91.9796 215.705 -91.66L215.947 -92.0977C216.531 -91.7749 217.111 -91.4488 217.688 -91.1193L217.44 -90.6852C218.015 -90.3569 218.585 -90.0253 219.152 -89.6904L219.407 -90.1209C219.981 -89.7817 220.551 -89.4391 221.117 -89.0932L220.857 -88.6665C221.424 -88.3199 221.987 -87.9701 222.547 -87.6169L222.814 -88.0396C223.375 -87.6851 223.932 -87.3273 224.485 -86.9662L224.212 -86.5475C224.769 -86.1839 225.321 -85.8169 225.87 -85.4467L226.149 -85.8611C226.702 -85.4879 227.251 -85.1114 227.794 -84.7316L227.508 -84.3216C228.05 -83.9433 228.587 -83.5618 229.12 -83.177L229.413 -83.5824C229.955 -83.191 230.493 -82.7962 231.026 -82.3982L230.726 -81.9976C231.258 -81.6005 231.785 -81.2001 232.307 -80.7965L232.613 -81.1922C233.138 -80.7864 233.658 -80.3775 234.174 -79.9653L233.862 -79.5748C234.382 -79.1586 234.898 -78.7393 235.408 -78.3166L235.727 -78.7018C236.24 -78.2774 236.747 -77.8497 237.25 -77.4188L236.924 -77.0392C237.427 -76.6082 237.925 -76.1741 238.417 -75.7367L238.749 -76.1106C239.249 -75.6669 239.743 -75.2199 240.232 -74.7697L239.894 -74.4018C240.38 -73.9537 240.862 -73.5024 241.338 -73.048L241.683 -73.4096C242.165 -72.9493 242.642 -72.4857 243.113 -72.019L242.761 -71.6637C243.233 -71.1964 243.699 -70.7259 244.16 -70.2524L244.518 -70.6009C244.981 -70.125 245.438 -69.6461 245.889 -69.164L245.524 -68.8224C245.978 -68.3367 246.427 -67.8478 246.869 -67.3559L247.241 -67.6903C247.686 -67.1952 248.126 -66.697 248.559 -66.1958L248.181 -65.8688C248.613 -65.3684 249.039 -64.865 249.46 -64.3586L249.844 -64.6779C250.271 -64.1638 250.691 -63.6466 251.105 -63.1264L250.713 -62.8152C251.125 -62.2977 251.53 -61.7772 251.929 -61.2537L252.327 -61.5567C252.73 -61.0264 253.128 -60.493 253.518 -59.9567L253.114 -59.6623C253.505 -59.1264 253.888 -58.5877 254.265 -58.046L254.675 -58.3315C255.054 -57.7865 255.426 -57.2386 255.792 -56.6878L255.375 -56.4115C255.742 -55.8579 256.102 -55.3014 256.455 -54.7422L256.878 -55.009C257.233 -54.4465 257.58 -53.8811 257.921 -53.3129L257.492 -53.0559C257.832 -52.4883 258.165 -51.9178 258.491 -51.3447L258.925 -51.5916C259.254 -51.0121 259.576 -50.4299 259.89 -49.8449L259.449 -49.6084C259.762 -49.027 260.066 -48.4428 260.363 -47.8561L260.809 -48.0818C261.11 -47.4868 261.404 -46.889 261.689 -46.2886L261.238 -46.0739C261.522 -45.477 261.798 -44.8776 262.066 -44.2756L262.522 -44.479C262.793 -43.8714 263.055 -43.2613 263.31 -42.6486L262.848 -42.4569C263.102 -41.8461 263.347 -41.2328 263.585 -40.6171L264.051 -40.7969C264.29 -40.1772 264.521 -39.555 264.743 -38.9303L264.272 -38.7626C264.494 -38.1398 264.707 -37.5146 264.912 -36.887L265.387 -37.0422C265.593 -36.4104 265.791 -35.7762 265.981 -35.1396L265.501 -34.9972C265.689 -34.3646 265.869 -33.7297 266.04 -33.0926L266.523 -33.2222C266.695 -32.5804 266.858 -31.9363 267.013 -31.2901L266.527 -31.1737C266.681 -30.5319 266.826 -29.8879 266.962 -29.2418L267.451 -29.3449C267.588 -28.6956 267.716 -28.0441 267.835 -27.3906L267.343 -27.301C267.461 -26.652 267.571 -26.001 267.671 -25.3481L268.165 -25.4241C268.266 -24.7683 268.358 -24.1105 268.441 -23.4508L267.945 -23.3885C268.027 -22.735 268.1 -22.0796 268.164 -21.4224L268.662 -21.4709C268.726 -20.8092 268.781 -20.1457 268.828 -19.4804L268.329 -19.4457C268.374 -18.7905 268.411 -18.1335 268.438 -17.4749L268.938 -17.4957Z" stroke="#EEF2F5" stroke-dasharray="2 2"/></svg>