<svg width="269" height="83" viewBox="0 0 269 83" fill="none" xmlns="http://www.w3.org/2000/svg"><path d="M268.938 100.496C268.965 99.8324 268.984 99.1675 268.993 98.501L268.493 98.494C268.498 98.1631 268.5 97.8317 268.5 97.5C268.5 97.1683 268.498 96.837 268.493 96.5061L268.993 96.4992C268.984 95.8326 268.965 95.1677 268.938 94.5044L268.438 94.5252C268.411 93.8666 268.374 93.2096 268.329 92.5544L268.828 92.5197C268.781 91.8545 268.726 91.1909 268.662 90.5292L268.164 90.5777C268.1 89.9205 268.027 89.2651 267.945 88.6116L268.441 88.5493C268.358 87.8896 268.266 87.2318 268.165 86.576L267.671 86.652C267.571 85.999 267.461 85.3481 267.343 84.6991L267.835 84.6094C267.716 83.9559 267.588 83.3045 267.451 82.6551L266.962 82.7582C266.826 82.1122 266.681 81.4682 266.527 80.8264L267.013 80.71C266.858 80.0637 266.695 79.4197 266.523 78.7779L266.04 78.9075C265.869 78.2704 265.689 77.6355 265.501 77.0029L265.981 76.8604C265.791 76.2239 265.593 75.5897 265.387 74.9578L264.912 75.113C264.707 74.4855 264.494 73.8602 264.272 73.2374L264.743 73.0697C264.521 72.4451 264.29 71.8228 264.051 71.2031L263.585 71.3829C263.347 70.7672 263.102 70.1539 262.848 69.5432L263.31 69.3514C263.055 68.7387 262.793 68.1286 262.522 67.521L262.066 67.7244C261.798 67.1224 261.522 66.523 261.238 65.9261L261.689 65.7114C261.404 65.111 261.11 64.5132 260.809 63.9182L260.363 64.1439C260.066 63.5572 259.762 62.973 259.449 62.3916L259.89 62.1551C259.576 61.5701 259.254 60.9879 258.925 60.4084L258.491 60.6553C258.165 60.0822 257.832 59.5117 257.492 58.9441L257.921 58.6871C257.58 58.1189 257.233 57.5535 256.878 56.991L256.455 57.2578C256.102 56.6985 255.742 56.1421 255.375 55.5885L255.792 55.3122C255.426 54.7614 255.054 54.2135 254.675 53.6685L254.265 53.954C253.888 53.4123 253.504 52.8735 253.114 52.3377L253.518 52.0433C253.128 51.507 252.73 50.9736 252.327 50.4433L251.929 50.7462C251.53 50.2228 251.125 49.7023 250.713 49.1848L251.105 48.8736C250.691 48.3534 250.271 47.8362 249.844 47.3221L249.46 47.6413C249.039 47.1349 248.613 46.6315 248.181 46.1311L248.559 45.8042C248.126 45.3029 247.686 44.8047 247.241 44.3097L246.869 44.6441C246.427 44.1521 245.978 43.6633 245.524 43.1776L245.889 42.8359C245.438 42.3539 244.981 41.8749 244.518 41.3991L244.16 41.7476C243.699 41.274 243.233 40.8035 242.761 40.3362L243.113 39.981C242.642 39.5143 242.165 39.0507 241.683 38.5903L241.338 38.952C240.862 38.4976 240.38 38.0462 239.894 37.5981L240.232 37.2303C239.743 36.7801 239.249 36.3331 238.749 35.8894L238.417 36.2632C237.925 35.8259 237.427 35.3917 236.924 34.9608L237.25 34.5812C236.747 34.1503 236.24 33.7226 235.727 33.2982L235.408 33.6833C234.898 33.2607 234.382 32.8413 233.862 32.4252L234.174 32.0347C233.658 31.6225 233.138 31.2135 232.613 30.8078L232.307 31.2034C231.785 30.7998 231.258 30.3995 230.726 30.0023L231.026 29.6018C230.493 29.2037 229.955 28.809 229.413 28.4176L229.12 28.823C228.587 28.4382 228.05 28.0566 227.508 27.6783L227.794 27.2684C227.25 26.8886 226.702 26.5121 226.149 26.1389L225.87 26.5533C225.321 26.183 224.769 25.8161 224.212 25.4525L224.485 25.0338C223.932 24.6727 223.375 24.3148 222.814 23.9603L222.547 24.3831C221.987 24.0299 221.424 23.68 220.857 23.3335L221.117 22.9068C220.551 22.5609 219.981 22.2183 219.407 21.8791L219.152 22.3096C218.585 21.9747 218.015 21.6431 217.44 21.3148L217.688 20.8806C217.111 20.5512 216.531 20.225 215.947 19.9023L215.705 20.34C215.126 20.0204 214.544 19.7042 213.958 19.3914L214.194 18.9503C213.611 18.6389 213.024 18.3308 212.434 18.026L212.204 18.4703C211.616 18.1666 211.024 17.8663 210.429 17.5694L210.652 17.1219C210.059 16.826 209.462 16.5333 208.862 16.2441L208.645 16.6945C208.051 16.4085 207.454 16.1257 206.854 15.8464L207.065 15.3931C206.462 15.1128 205.857 14.8358 205.248 14.5623L205.043 15.0184C204.44 14.7476 203.834 14.48 203.224 14.2159L203.423 13.7572C202.817 13.4942 202.207 13.2346 201.594 12.9784L201.401 13.4397C200.79 13.1844 200.176 12.9324 199.559 12.6839L199.746 12.2201C199.131 11.9721 198.512 11.7274 197.891 11.4863L197.71 11.9524C197.095 11.714 196.478 11.4789 195.858 11.2473L196.033 10.7789C195.411 10.5465 194.786 10.3175 194.159 10.092L193.99 10.5625C193.366 10.3385 192.74 10.118 192.112 9.90088L192.275 9.42827C191.65 9.21255 191.023 9.00021 190.393 8.79131L190.236 9.2659C189.608 9.05763 188.977 8.85278 188.344 8.65137L188.495 8.1749C187.862 7.97324 187.225 7.77501 186.586 7.58028L186.44 8.05856C185.81 7.86659 185.178 7.67801 184.543 7.49283L184.683 7.01283C184.046 6.8271 183.407 6.64481 182.766 6.46597L182.632 6.9476C181.992 6.7693 181.35 6.59444 180.706 6.42307L180.834 5.93987C180.196 5.77008 179.556 5.6037 178.913 5.44075L178.79 5.92542C178.149 5.76305 177.507 5.6041 176.862 5.44859L176.979 4.96252C176.332 4.80658 175.683 4.65408 175.032 4.5051L174.92 4.99249C174.277 4.84529 173.632 4.70149 172.984 4.56116L173.09 4.07251C172.443 3.93225 171.794 3.79543 171.143 3.66206L171.042 4.1519C170.393 4.01894 169.742 3.8894 169.088 3.76338L169.183 3.27243C168.532 3.14674 167.878 3.02452 167.223 2.90578L167.134 3.39777C166.485 3.28015 165.834 3.16597 165.181 3.05525L165.265 2.56229C164.61 2.45125 163.953 2.34367 163.295 2.23959L163.217 2.73346C162.562 2.62985 161.905 2.52972 161.246 2.43309L161.319 1.93839C160.665 1.84248 160.009 1.75003 159.352 1.66104L159.285 2.15651C158.63 2.06776 157.973 1.98247 157.314 1.90065L157.375 1.40446C156.715 1.32242 156.053 1.24388 155.389 1.16885L155.333 1.6657C154.677 1.59158 154.02 1.5209 153.361 1.45372L153.412 0.956299C152.753 0.889084 152.093 0.825333 151.431 0.76506L151.385 1.263C150.725 1.2029 150.064 1.14626 149.4 1.09314L149.44 0.594742C148.779 0.541733 148.115 0.492188 147.451 0.446167L147.416 0.944977C146.758 0.899399 146.099 0.857269 145.438 0.818604L145.467 0.319458C144.805 0.280701 144.141 0.245407 143.475 0.213638L143.451 0.713074C142.788 0.681381 142.123 0.653198 141.457 0.628525L141.476 0.12886C140.815 0.104416 140.154 0.0834198 139.491 0.0658875L139.478 0.56572C138.817 0.548233 138.155 0.534225 137.492 0.523712L137.5 0.0237732C136.835 0.0132294 136.169 0.00617981 135.502 0.00265503L135.499 0.50264C135.166 0.500885 134.833 0.5 134.5 0.5C134.167 0.5 133.834 0.500885 133.501 0.50264L133.498 0.00263977C132.831 0.00616455 132.165 0.0132294 131.5 0.0237732L131.508 0.523712C130.845 0.534225 130.183 0.548233 129.522 0.565704L129.509 0.0658875C128.846 0.0834198 128.185 0.104416 127.525 0.12886L127.543 0.628525C126.877 0.653183 126.212 0.681381 125.549 0.713074L125.525 0.213638C124.859 0.245407 124.195 0.280701 123.533 0.319458L123.562 0.818604C122.901 0.857254 122.242 0.899384 121.584 0.944962L121.549 0.446167C120.885 0.492188 120.221 0.541718 119.56 0.594727L119.6 1.09314C118.937 1.14626 118.275 1.20288 117.615 1.26299L117.569 0.765045C116.907 0.825317 116.247 0.889069 115.588 0.956284L115.639 1.4537C114.98 1.5209 114.323 1.59157 113.667 1.66568L113.611 1.16885C112.947 1.24388 112.285 1.32242 111.625 1.40446L111.686 1.90065C111.027 1.98247 110.37 2.06776 109.715 2.15651L109.648 1.66103C108.991 1.75002 108.335 1.84248 107.681 1.93839L107.754 2.43309C107.095 2.52972 106.438 2.62985 105.783 2.73346L105.705 2.23959C105.047 2.34367 104.39 2.45125 103.735 2.56229L103.819 3.05525C103.166 3.16597 102.515 3.28015 101.866 3.39777L101.777 2.90578C101.122 3.02452 100.468 3.14674 99.817 3.27243L99.9117 3.76338C99.2584 3.88942 98.6071 4.01894 97.9578 4.1519L97.8575 3.66206C97.2063 3.79543 96.5571 3.93225 95.91 4.07251L96.0159 4.56116C95.3684 4.70149 94.723 4.84529 94.0796 4.99249L93.9681 4.5051C93.3169 4.6541 92.6679 4.80656 92.0211 4.96252L92.1383 5.44861C91.4934 5.6041 90.8506 5.76305 90.2101 5.92542L90.0872 5.44075C89.4444 5.6037 88.8039 5.7701 88.1656 5.93988L88.2941 6.42307C87.6498 6.59445 87.0079 6.7693 86.3683 6.94762L86.2341 6.46599C85.5926 6.64482 84.9535 6.82712 84.3167 7.01285L84.4568 7.49284C83.822 7.67802 83.1896 7.86661 82.5597 8.05858L82.4139 7.58029C81.7749 7.77504 81.1384 7.97325 80.5045 8.17491L80.656 8.65138C80.0229 8.8528 79.3923 9.05766 78.7643 9.26591L78.6069 8.79134C77.977 9.00024 77.3497 9.21257 76.725 9.42828L76.8882 9.90089C76.2595 10.118 75.6335 10.3386 75.0103 10.5625L74.8412 10.092C74.2136 10.3175 73.5887 10.5465 72.9667 10.7789L73.1417 11.2473C72.5217 11.4789 71.9045 11.714 71.2901 11.9524L71.1092 11.4863C70.4878 11.7275 69.8692 11.9721 69.2536 12.2201L69.4404 12.6839C68.8236 12.9324 68.2097 13.1844 67.5988 13.4398L67.406 12.9785C66.7932 13.2346 66.1834 13.4942 65.5767 13.7572L65.7755 14.216C65.1662 14.4801 64.5599 14.7476 63.9569 15.0185L63.752 14.5624C63.1432 14.8359 62.5376 15.1128 61.9353 15.3931L62.1463 15.8464C61.546 16.1258 60.949 16.4085 60.3553 16.6946L60.1383 16.2441C59.5381 16.5334 58.9412 16.826 58.3479 17.122L58.571 17.5694C57.9757 17.8663 57.3839 18.1667 56.7957 18.4703L56.5663 18.026C55.976 18.3308 55.3892 18.6389 54.8061 18.9503L55.0416 19.3914C54.4558 19.7042 53.8736 20.0204 53.2952 20.34L53.0534 19.9023C52.4692 20.2251 51.8886 20.5512 51.3119 20.8807L51.56 21.3148C50.9854 21.6431 50.4146 21.9747 49.8476 22.3096L49.5933 21.8791C49.0191 22.2183 48.4488 22.5609 47.8825 22.9068L48.1432 23.3335C47.5759 23.6801 47.0126 24.0299 46.4534 24.3831L46.1864 23.9604C45.6251 24.3149 45.0679 24.6727 44.5148 25.0338L44.7882 25.4525C44.2313 25.8161 43.6786 26.1831 43.1303 26.5533L42.8505 26.1389C42.2978 26.5121 41.7495 26.8886 41.2055 27.2684L41.4917 27.6784C40.9499 28.0567 40.4125 28.4382 39.8796 28.823L39.5869 28.4176C39.0448 28.809 38.5073 29.2038 37.9744 29.6018L38.2736 30.0024C37.7419 30.3995 37.2149 30.7999 36.6926 31.2035L36.3869 30.8078C35.8618 31.2135 35.3416 31.6225 34.8261 32.0347L35.1383 32.4252C34.6179 32.8414 34.1024 33.2607 33.5919 33.6834L33.2731 33.2982C32.7604 33.7227 32.2527 34.1503 31.7501 34.5812L32.0755 34.9608C31.5728 35.3918 31.0752 35.8259 30.5828 36.2633L30.2508 35.8894C29.7512 36.3331 29.2568 36.7801 28.7678 37.2303L29.1064 37.5981C28.6196 38.0463 28.1382 38.4976 27.6622 38.952L27.3169 38.5904C26.8347 39.0508 26.3579 39.5143 25.8868 39.981L26.2386 40.3363C25.7669 40.8036 25.3008 41.2741 24.8404 41.7476L24.4819 41.3991C24.0193 41.875 23.5624 42.3539 23.1114 42.836L23.4764 43.1776C23.0219 43.6633 22.5734 44.1522 22.1308 44.6441L21.7591 44.3097C21.3137 44.8048 20.8743 45.303 20.4411 45.8042L20.8194 46.1312C20.3869 46.6316 19.9606 47.135 19.5404 47.6414L19.1556 47.3221C18.7291 47.8362 18.3089 48.3534 17.8952 48.8736L18.2866 49.1848C17.875 49.7023 17.4698 50.2228 17.0712 50.7462L16.6734 50.4433C16.2695 50.9736 15.8722 51.507 15.4816 52.0433L15.8858 52.3377C15.4955 52.8736 15.112 53.4123 14.7353 53.954L14.3248 53.6685C13.9458 54.2135 13.5736 54.7614 13.2084 55.3122L13.6251 55.5885C13.258 56.1421 12.898 56.6986 12.5451 57.2578L12.1223 56.991C11.7674 57.5535 11.4196 58.1189 11.0791 58.6871L11.508 58.9441C11.1679 59.5117 10.835 60.0822 10.5095 60.6553L10.0747 60.4084C9.74564 60.9879 9.42406 61.5701 9.11005 62.1551L9.55059 62.3916C9.23846 62.973 8.93387 63.5572 8.63691 64.1439L8.19079 63.9182C7.88963 64.5132 7.59625 65.111 7.31074 65.7114L7.76229 65.9261C7.47847 66.523 7.20249 67.1224 6.93442 67.7244L6.47766 67.521C6.20713 68.1286 5.94461 68.7387 5.69017 69.3514L6.15194 69.5431C5.8983 70.1539 5.65276 70.7672 5.41542 71.3829L4.94888 71.2031C4.70999 71.8228 4.47933 72.445 4.25699 73.0697L4.72805 73.2374C4.50637 73.8602 4.29304 74.4854 4.08813 75.113L3.61282 74.9578C3.40652 75.5896 3.2087 76.2238 3.01945 76.8604L3.49872 77.0028C3.31064 77.6354 3.13109 78.2703 2.96016 78.9074L2.47724 78.7778C2.30505 79.4196 2.14154 80.0637 1.98681 80.7099L2.47307 80.8263C2.31939 81.4681 2.17444 82.1121 2.03829 82.7582L1.54904 82.6551C1.4122 83.3044 1.2842 83.9559 1.16512 84.6094L1.65702 84.699C1.53877 85.348 1.42939 85.999 1.32897 86.6519L0.834779 86.5759C0.733914 87.2317 0.642023 87.8895 0.559196 88.5492L1.0553 88.6115C0.97325 89.265 0.900157 89.9204 0.836113 90.5776L0.33847 90.5291C0.273986 91.1908 0.218611 91.8543 0.172435 92.5196L0.671235 92.5543C0.625755 93.2095 0.589262 93.8665 0.561842 94.5251L0.0622749 94.5043C0.0346633 95.1676 0.0161894 95.8325 0.00694146 96.499L0.506893 96.506C0.502301 96.8369 0.5 97.1683 0.5 97.5C0.5 97.8317 0.502301 98.163 0.506892 98.4939L0.00693972 98.5008C0.0161866 99.1674 0.0346594 99.8323 0.0622702 100.496L0.561837 100.475C0.589256 101.133 0.625749 101.79 0.671228 102.446L0.172427 102.48C0.218602 103.146 0.273976 103.809 0.338459 104.471L0.836102 104.422C0.900146 105.079 0.973238 105.735 1.05529 106.388L0.559184 106.451C0.64201 107.11 0.733901 107.768 0.834767 108.424L1.32896 108.348C1.42938 109.001 1.53876 109.652 1.65701 110.301L1.16511 110.391C1.28418 111.044 1.41218 111.696 1.54902 112.345L2.03828 112.242C2.17442 112.888 2.31938 113.532 2.47305 114.174L1.98679 114.29C2.14153 114.936 2.30503 115.58 2.47723 116.222L2.96015 116.093C3.13108 116.73 3.31062 117.365 3.4987 117.997L3.01944 118.14C3.20869 118.776 3.40651 119.41 3.61281 120.042L4.08811 119.887C4.29302 120.515 4.50636 121.14 4.72803 121.763L4.25698 121.93C4.47931 122.555 4.70997 123.177 4.94887 123.797L5.41541 123.617C5.65275 124.233 5.89829 124.846 6.15193 125.457L5.69016 125.649C5.9446 126.261 6.20712 126.871 6.47765 127.479L6.93441 127.276C7.20248 127.878 7.47847 128.477 7.76228 129.074L7.31073 129.289C7.59625 129.889 7.88963 130.487 8.19079 131.082L8.63691 130.856C8.93387 131.443 9.23846 132.027 9.55059 132.608L9.11005 132.845C9.42406 133.43 9.74564 134.012 10.0747 134.592L10.5095 134.345C10.835 134.918 11.1679 135.488 11.508 136.056L11.0791 136.313C11.4196 136.881 11.7674 137.446 12.1223 138.009L12.5452 137.742C12.898 138.301 13.258 138.858 13.6251 139.411L13.2084 139.688C13.5736 140.239 13.9458 140.787 14.3248 141.332L14.7353 141.046C15.112 141.588 15.4955 142.126 15.8858 142.662L15.4816 142.957C15.8722 143.493 16.2695 144.026 16.6735 144.557L17.0712 144.254C17.4699 144.777 17.875 145.298 18.2866 145.815L17.8953 146.126C18.309 146.647 18.7291 147.164 19.1557 147.678L19.5405 147.359C19.9606 147.865 20.3869 148.368 20.8194 148.869L20.4411 149.196C20.8744 149.697 21.3137 150.195 21.7591 150.69L22.1309 150.356C22.5734 150.848 23.022 151.337 23.4765 151.822L23.1114 152.164C23.5625 152.646 24.0193 153.125 24.4819 153.601L24.8404 153.252C25.3008 153.726 25.7669 154.196 26.2387 154.664L25.8868 155.019C26.358 155.486 26.8347 155.949 27.317 156.41L27.6622 156.048C28.1382 156.502 28.6197 156.954 29.1065 157.402L28.7678 157.77C29.2569 158.22 29.7512 158.667 30.2508 159.111L30.5829 158.737C31.0753 159.174 31.5729 159.608 32.0756 160.039L31.7502 160.419C32.2528 160.85 32.7605 161.277 33.2731 161.702L33.592 161.317C34.1025 161.739 34.618 162.159 35.1384 162.575L34.8261 162.965C35.3416 163.378 35.8619 163.786 36.3869 164.192L36.6927 163.797C37.215 164.2 37.742 164.601 38.2736 164.998L37.9744 165.398C38.5073 165.796 39.0449 166.191 39.587 166.582L39.8797 166.177C40.4126 166.562 40.95 166.943 41.4918 167.322L41.2056 167.732C41.7495 168.111 42.2979 168.488 42.8506 168.861L43.1304 168.447C43.6787 168.817 44.2314 169.184 44.7883 169.548L44.5149 169.966C45.068 170.327 45.6252 170.685 46.1865 171.04L46.4535 170.617C47.0126 170.97 47.5759 171.32 48.1432 171.667L47.8826 172.093C48.4489 172.439 49.0192 172.782 49.5934 173.121L49.8477 172.69C50.4146 173.025 50.9854 173.357 51.5601 173.685L51.312 174.119C51.8887 174.449 52.4692 174.775 53.0535 175.098L53.2953 174.66C53.8737 174.98 54.4558 175.296 55.0416 175.609L54.8061 176.05C55.3893 176.361 55.9761 176.669 56.5664 176.974L56.7958 176.53C57.384 176.833 57.9758 177.134 58.5711 177.431L58.3479 177.878C58.9413 178.174 59.5381 178.467 60.1383 178.756L60.3554 178.305C60.949 178.592 61.546 178.874 62.1463 179.154L61.9354 179.607C62.5377 179.887 63.1433 180.164 63.7521 180.438L63.957 179.982C64.56 180.252 65.1662 180.52 65.7756 180.784L65.5767 181.243C66.1834 181.506 66.7932 181.765 67.4061 182.022L67.5989 181.56C68.2097 181.816 68.8236 182.068 69.4405 182.316L69.2537 182.78C69.8693 183.028 70.4878 183.273 71.1093 183.514L71.2902 183.048C71.9046 183.286 72.5218 183.521 73.1418 183.753L72.9668 184.221C73.5888 184.454 74.2136 184.682 74.8412 184.908L75.0103 184.437C75.6336 184.661 76.2596 184.882 76.8883 185.099L76.7251 185.572C77.3497 185.787 77.977 186 78.607 186.209L78.7644 185.734C79.3923 185.942 80.0229 186.147 80.6561 186.349L80.5045 186.825C81.1385 187.027 81.775 187.225 82.414 187.42L82.5597 186.941C83.1897 187.133 83.822 187.322 84.4568 187.507L84.3168 187.987C84.9535 188.173 85.5926 188.355 86.2341 188.534L86.3684 188.052C87.0079 188.231 87.6499 188.406 88.2941 188.577L88.1656 189.06C88.8039 189.23 89.4445 189.396 90.0873 189.559L90.2101 189.075C90.8507 189.237 91.4934 189.396 92.1383 189.551L92.0211 190.037C92.668 190.193 93.317 190.346 93.9681 190.495L94.0796 190.008C94.723 190.155 95.3684 190.299 96.0159 190.439L95.91 190.927C96.5571 191.068 97.2063 191.205 97.8575 191.338L97.9578 190.848C98.6071 190.981 99.2584 191.111 99.9117 191.237L99.817 191.728C100.468 191.853 101.122 191.975 101.777 192.094L101.866 191.602C102.515 191.72 103.166 191.834 103.819 191.945L103.735 192.438C104.39 192.549 105.047 192.656 105.705 192.76L105.783 192.267C106.438 192.37 107.095 192.47 107.754 192.567L107.681 193.062C108.335 193.158 108.991 193.25 109.648 193.339L109.715 192.843C110.37 192.932 111.027 193.018 111.686 193.099L111.625 193.596C112.285 193.678 112.947 193.756 113.611 193.831L113.667 193.334C114.323 193.408 114.98 193.479 115.639 193.546L115.588 194.044C116.247 194.111 116.907 194.175 117.569 194.235L117.615 193.737C118.275 193.797 118.936 193.854 119.6 193.907L119.56 194.405C120.221 194.458 120.885 194.508 121.549 194.554L121.584 194.055C122.242 194.101 122.901 194.143 123.562 194.181L123.533 194.681C124.195 194.719 124.859 194.755 125.525 194.786L125.549 194.287C126.212 194.319 126.877 194.347 127.543 194.371L127.524 194.871C128.185 194.896 128.846 194.917 129.509 194.934L129.522 194.434C130.183 194.452 130.845 194.466 131.508 194.476L131.5 194.976C132.165 194.987 132.831 194.994 133.498 194.997L133.501 194.497C133.834 194.499 134.167 194.5 134.5 194.5C134.833 194.5 135.166 194.499 135.499 194.497L135.502 194.997C136.169 194.994 136.835 194.987 137.5 194.976L137.492 194.476C138.155 194.466 138.817 194.452 139.478 194.434L139.491 194.934C140.154 194.917 140.815 194.896 141.475 194.871L141.457 194.371C142.123 194.347 142.788 194.319 143.451 194.287L143.475 194.786C144.141 194.755 144.804 194.719 145.467 194.681L145.438 194.181C146.099 194.143 146.758 194.101 147.416 194.055L147.451 194.554C148.115 194.508 148.779 194.458 149.44 194.405L149.4 193.907C150.063 193.854 150.725 193.797 151.385 193.737L151.431 194.235C152.093 194.175 152.753 194.111 153.412 194.044L153.361 193.546C154.02 193.479 154.677 193.408 155.333 193.334L155.389 193.831C156.053 193.756 156.715 193.678 157.375 193.596L157.314 193.099C157.973 193.018 158.63 192.932 159.285 192.843L159.352 193.339C160.009 193.25 160.665 193.158 161.319 193.062L161.246 192.567C161.905 192.47 162.562 192.37 163.217 192.267L163.295 192.76C163.953 192.656 164.61 192.549 165.264 192.438L165.181 191.945C165.834 191.834 166.485 191.72 167.134 191.602L167.223 192.094C167.878 191.975 168.532 191.853 169.183 191.728L169.088 191.237C169.742 191.111 170.393 190.981 171.042 190.848L171.143 191.338C171.794 191.205 172.443 191.068 173.09 190.927L172.984 190.439C173.632 190.299 174.277 190.155 174.92 190.008L175.032 190.495C175.683 190.346 176.332 190.193 176.979 190.037L176.862 189.551C177.507 189.396 178.149 189.237 178.79 189.075L178.913 189.559C179.556 189.396 180.196 189.23 180.834 189.06L180.706 188.577C181.35 188.406 181.992 188.231 182.632 188.052L182.766 188.534C183.407 188.355 184.047 188.173 184.683 187.987L184.543 187.507C185.178 187.322 185.81 187.133 186.44 186.941L186.586 187.42C187.225 187.225 187.862 187.027 188.496 186.825L188.344 186.349C188.977 186.147 189.608 185.942 190.236 185.734L190.393 186.209C191.023 186 191.65 185.787 192.275 185.572L192.112 185.099C192.74 184.882 193.366 184.661 193.99 184.437L194.159 184.908C194.786 184.682 195.411 184.453 196.033 184.221L195.858 183.753C196.478 183.521 197.096 183.286 197.71 183.048L197.891 183.514C198.512 183.273 199.131 183.028 199.746 182.78L199.56 182.316C200.176 182.068 200.79 181.816 201.401 181.56L201.594 182.022C202.207 181.765 202.817 181.506 203.423 181.243L203.224 180.784C203.834 180.52 204.44 180.252 205.043 179.982L205.248 180.438C205.857 180.164 206.462 179.887 207.065 179.607L206.854 179.154C207.454 178.874 208.051 178.591 208.645 178.305L208.862 178.756C209.462 178.467 210.059 178.174 210.652 177.878L210.429 177.431C211.024 177.134 211.616 176.833 212.204 176.53L212.434 176.974C213.024 176.669 213.611 176.361 214.194 176.05L213.958 175.609C214.544 175.296 215.126 174.98 215.705 174.66L215.947 175.098C216.531 174.775 217.111 174.449 217.688 174.119L217.44 173.685C218.015 173.357 218.585 173.025 219.152 172.69L219.407 173.121C219.981 172.782 220.551 172.439 221.117 172.093L220.857 171.666C221.424 171.32 221.987 170.97 222.547 170.617L222.814 171.04C223.375 170.685 223.932 170.327 224.485 169.966L224.212 169.548C224.769 169.184 225.321 168.817 225.87 168.447L226.149 168.861C226.702 168.488 227.251 168.111 227.794 167.732L227.508 167.322C228.05 166.943 228.587 166.562 229.12 166.177L229.413 166.582C229.955 166.191 230.493 165.796 231.026 165.398L230.726 164.998C231.258 164.601 231.785 164.2 232.307 163.797L232.613 164.192C233.138 163.786 233.658 163.377 234.174 162.965L233.862 162.575C234.382 162.159 234.898 161.739 235.408 161.317L235.727 161.702C236.24 161.277 236.747 160.85 237.25 160.419L236.924 160.039C237.427 159.608 237.925 159.174 238.417 158.737L238.749 159.111C239.249 158.667 239.743 158.22 240.232 157.77L239.894 157.402C240.38 156.954 240.862 156.502 241.338 156.048L241.683 156.41C242.165 155.949 242.642 155.486 243.113 155.019L242.761 154.664C243.233 154.196 243.699 153.726 244.16 153.252L244.518 153.601C244.981 153.125 245.438 152.646 245.889 152.164L245.524 151.822C245.978 151.337 246.427 150.848 246.869 150.356L247.241 150.69C247.686 150.195 248.126 149.697 248.559 149.196L248.181 148.869C248.613 148.368 249.039 147.865 249.46 147.359L249.844 147.678C250.271 147.164 250.691 146.647 251.105 146.126L250.713 145.815C251.125 145.298 251.53 144.777 251.929 144.254L252.327 144.557C252.73 144.026 253.128 143.493 253.518 142.957L253.114 142.662C253.505 142.126 253.888 141.588 254.265 141.046L254.675 141.331C255.054 140.786 255.426 140.239 255.792 139.688L255.375 139.411C255.742 138.858 256.102 138.301 256.455 137.742L256.878 138.009C257.233 137.446 257.58 136.881 257.921 136.313L257.492 136.056C257.832 135.488 258.165 134.918 258.491 134.345L258.925 134.592C259.254 134.012 259.576 133.43 259.89 132.845L259.449 132.608C259.762 132.027 260.066 131.443 260.363 130.856L260.809 131.082C261.11 130.487 261.404 129.889 261.689 129.289L261.238 129.074C261.522 128.477 261.798 127.878 262.066 127.276L262.522 127.479C262.793 126.871 263.055 126.261 263.31 125.649L262.848 125.457C263.102 124.846 263.347 124.233 263.585 123.617L264.051 123.797C264.29 123.177 264.521 122.555 264.743 121.93L264.272 121.763C264.494 121.14 264.707 120.515 264.912 119.887L265.387 120.042C265.593 119.41 265.791 118.776 265.981 118.14L265.501 117.997C265.689 117.365 265.869 116.73 266.04 116.093L266.523 116.222C266.695 115.58 266.858 114.936 267.013 114.29L266.527 114.174C266.681 113.532 266.826 112.888 266.962 112.242L267.451 112.345C267.588 111.696 267.716 111.044 267.835 110.391L267.343 110.301C267.461 109.652 267.571 109.001 267.671 108.348L268.165 108.424C268.266 107.768 268.358 107.11 268.441 106.451L267.945 106.389C268.027 105.735 268.1 105.08 268.164 104.422L268.662 104.471C268.726 103.809 268.781 103.146 268.828 102.48L268.329 102.446C268.374 101.79 268.411 101.134 268.438 100.475L268.938 100.496Z" stroke="#EEF2F5" stroke-dasharray="2 2"/></svg>