<svg width="22" height="24" viewBox="0 0 22 24" fill="none" xmlns="http://www.w3.org/2000/svg"><path d="M12.984 0H8.26059C3.68815 0 0 3.70975 0 8.3144V11.8777C0 15.0939 1.83329 18.0172 4.72342 19.384V23.3649C4.72342 23.5656 4.90675 23.75 5.13861 23.75C5.23027 23.75 5.33811 23.712 5.4136 23.6415L8.82676 20.1867H12.984C17.5618 20.1867 21.25 16.4769 21.25 11.8723V8.30898C21.25 3.70975 17.5618 0 12.984 0ZM16.0898 15.582L14.909 16.7698C13.6364 18.0118 10.3689 16.5854 7.47875 13.6295C4.58862 10.6737 3.30532 7.3273 4.52392 6.08529L5.70477 4.89752C6.17927 4.45821 6.92337 4.4799 7.39248 4.93549L9.10175 6.72528C9.53851 7.20256 9.53851 7.91305 9.06401 8.39033C8.9346 8.5205 8.78901 8.591 8.62725 8.66693C8.02874 8.85134 7.72139 9.43166 7.86698 10.0391C8.15814 11.357 9.80811 13.0004 11.0645 13.3258C11.6468 13.4723 12.2453 13.1414 12.4448 12.5774C12.6443 11.9916 13.2968 11.6662 13.9168 11.8669C14.1002 11.9211 14.2457 12.0513 14.3913 12.1597L16.1006 13.9495C16.5266 14.378 16.5266 15.1102 16.0898 15.582ZM11.6791 5.64598C11.5497 5.64598 11.4419 5.64598 11.3341 5.68395C11.1345 5.72191 10.9189 5.55378 10.8973 5.32056C10.8757 5.08735 11.0267 4.90295 11.2424 4.88125C11.388 4.84329 11.5336 4.84329 11.6791 4.84329C13.8575 4.84329 15.6045 6.63308 15.6369 8.79168C15.6369 8.93811 15.6369 9.08455 15.5991 9.23099C15.5614 9.43166 15.3996 9.61607 15.1624 9.5781C14.9251 9.54014 14.7796 9.37743 14.8173 9.13879C14.8173 9.00862 14.855 8.90015 14.855 8.79168C14.8389 7.07239 13.4208 5.64598 11.6791 5.64598ZM14.0409 8.82422C14.0031 9.02489 13.8413 9.2093 13.6041 9.17133C13.4208 9.13336 13.259 8.98693 13.259 8.82422C13.259 7.96729 12.5527 7.25137 11.6953 7.25137C11.4958 7.28934 11.2801 7.10493 11.2586 6.88799C11.2208 6.68731 11.4041 6.47037 11.6037 6.44868H11.6576C13.0218 6.44868 14.0409 7.50628 14.0409 8.82422ZM17.055 10.0825C17.0173 10.2832 16.8178 10.4296 16.6182 10.4133C16.4187 10.3971 16.2732 10.1747 16.2893 9.97402C16.2893 9.93606 16.2893 9.93606 16.2893 9.91979C16.381 9.57268 16.4187 9.20929 16.4187 8.82422C16.4187 6.21004 14.2943 4.07313 11.6953 4.07313C11.5659 4.07313 11.4581 4.07313 11.3502 4.07313C11.1507 4.1111 10.935 3.9267 10.935 3.70975C10.8973 3.50908 11.0806 3.29213 11.2801 3.29213C11.4257 3.29213 11.5713 3.25417 11.6953 3.25417C14.731 3.25417 17.2168 5.73818 17.2168 8.80795C17.2006 9.22556 17.1467 9.68115 17.055 10.0825Z" fill="#fff"/></svg>