<svg width="35" height="35" viewBox="0 0 35 35" fill="none" xmlns="http://www.w3.org/2000/svg"><path d="M31.7188 0H3.28125C1.42188 0 0 1.42188 0 3.28125V31.7188C0 33.5781 1.42188 35 3.28125 35H31.7188C33.5781 35 35 33.5781 35 31.7188V3.28125C35 1.42188 33.5781 0 31.7188 0ZM32.8125 31.7188C32.8125 32.375 32.2656 32.8125 31.7188 32.8125H3.28125C2.625 32.8125 2.1875 32.375 2.1875 31.7188V10.9375H32.8125V31.7188ZM32.8125 8.75H2.1875V3.28125C2.1875 2.625 2.625 2.1875 3.28125 2.1875H31.7188C32.375 2.1875 32.8125 2.625 32.8125 3.28125V8.75Z" fill="#E63757"/><path d="M29.5312 6.5625C30.1353 6.5625 30.625 6.07281 30.625 5.46875C30.625 4.86469 30.1353 4.375 29.5312 4.375C28.9272 4.375 28.4375 4.86469 28.4375 5.46875C28.4375 6.07281 28.9272 6.5625 29.5312 6.5625Z" fill="#E9ADBC"/><path d="M25.1562 6.5625C25.7603 6.5625 26.25 6.07281 26.25 5.46875C26.25 4.86469 25.7603 4.375 25.1562 4.375C24.5522 4.375 24.0625 4.86469 24.0625 5.46875C24.0625 6.07281 24.5522 6.5625 25.1562 6.5625Z" fill="#E9ADBC"/><path d="M20.7812 6.5625C21.3853 6.5625 21.875 6.07281 21.875 5.46875C21.875 4.86469 21.3853 4.375 20.7812 4.375C20.1772 4.375 19.6875 4.86469 19.6875 5.46875C19.6875 6.07281 20.1772 6.5625 20.7812 6.5625Z" fill="#E9ADBC"/><path d="M15.1895 20.876L16.8748 22.6124C17.1156 22.8605 17.4767 22.8605 17.7175 22.6124L21.8105 18.3953C22.3222 17.8682 23.1047 17.8682 23.6163 18.3953C24.1279 18.9225 24.1279 19.7287 23.6163 20.2558L18.5602 25.4651C17.868 26.1783 16.7244 26.1783 16.0021 25.4651L13.3837 22.7364C12.8721 22.2093 12.8721 21.4031 13.3837 20.876C13.8953 20.3488 14.6778 20.3488 15.1895 20.876Z" fill="#E9ADBC"/></svg>