<svg width="34" height="34" viewBox="0 0 34 34" fill="none" xmlns="http://www.w3.org/2000/svg"><path d="M7.13602 3.66154L5.84696 2.37248C5.43446 1.95998 4.81571 1.95998 4.40321 2.37248C4.19696 2.57873 4.09383 2.83654 4.09383 3.09435C4.09383 7.37404 4.09383 7.27092 4.09383 7.37404C4.19696 7.88967 4.60946 8.2506 5.12508 8.2506H9.25008C9.81727 8.2506 10.2813 7.78654 10.2813 7.21935C10.2813 6.96154 10.1782 6.70373 9.97196 6.49748L8.63133 5.10529C18.0673 -2.26815 31.9376 4.5381 31.9376 16.5006C31.9376 24.4928 25.4923 30.9381 17.5001 30.9381C9.50789 30.9381 3.06258 24.4928 3.06258 16.5006C3.06258 14.8506 3.32039 13.2522 3.88758 11.7053C4.04227 11.1381 3.73289 10.5709 3.16571 10.4162C2.65008 10.2615 2.13446 10.5194 1.92821 10.9834C-1.11398 19.5944 3.42352 29.0303 11.9829 32.0725C20.5423 35.1147 29.9782 30.6287 33.072 22.0178C33.6907 20.2647 34.0001 18.4084 34.0001 16.5006C34.0001 2.68185 17.9126 -5.00096 7.13602 3.66154Z" fill="#30CC67"/><path d="M18.0156 19.5938H14.9219C14.3547 19.5938 13.8906 20.0578 13.8906 20.625C13.8906 21.1922 14.3547 21.6562 14.9219 21.6562H16.4688V22.1719C16.4688 22.7391 16.9328 23.2031 17.5 23.2031C18.0672 23.2031 18.5312 22.7391 18.5312 22.1719V21.6047C20.2328 21.2953 21.3156 19.6969 21.0578 18.0469C20.8 16.5516 19.5109 15.5203 18.0156 15.4688H16.9844C16.4172 15.4688 15.9531 15.0047 15.9531 14.4375C15.9531 13.8703 16.4172 13.4062 16.9844 13.4062H20.0781C20.6453 13.4062 21.1094 12.9422 21.1094 12.375C21.1094 11.8078 20.6453 11.3438 20.0781 11.3438H18.5312V10.8281C18.5312 10.2609 18.0672 9.79688 17.5 9.79688C16.9328 9.79688 16.4688 10.2609 16.4688 10.8281V11.3953C14.7672 11.7047 13.6844 13.3031 13.9422 14.9531C14.2 16.4484 15.4891 17.4797 16.9844 17.5312H18.0156C18.5828 17.5312 19.0469 17.9953 19.0469 18.5625C19.0469 19.1297 18.5828 19.5938 18.0156 19.5938Z" fill="#89ECBE"/></svg>