<svg width="31" height="38" viewBox="0 0 31 38" fill="none" xmlns="http://www.w3.org/2000/svg"><path d="M22.4545 38H3.54545C1.53636 38 0 36.4679 0 34.4643V8.53571C0 6.53214 1.53636 5 3.54545 5H5.90909C6.61818 5 7.09091 5.47143 7.09091 6.17857C7.09091 6.88571 6.61818 7.35714 5.90909 7.35714H3.54545C2.83636 7.35714 2.36364 7.82857 2.36364 8.53571V34.4643C2.36364 35.1714 2.83636 35.6429 3.54545 35.6429H22.4545C23.1636 35.6429 23.6364 35.1714 23.6364 34.4643V14.1929C23.6364 13.8393 23.5182 13.6036 23.2818 13.3679L17.6091 7.71071C17.3727 7.475 17.0182 7.35714 16.7818 7.35714H10.6364C9.92727 7.35714 9.45455 6.88571 9.45455 6.17857C9.45455 5.47143 9.92727 5 10.6364 5H16.7818C17.7273 5 18.6727 5.35357 19.2636 6.06071L24.9364 11.7179C25.6455 12.425 26 13.25 26 14.1929V34.4643C26 36.4679 24.4636 38 22.4545 38Z" fill="#F5803E"/><path d="M29.8182 23C29.1091 23 28.6364 22.5158 28.6364 21.7895V9.44211C28.6364 9.07895 28.5182 8.83684 28.2818 8.59474L22.6091 2.78421C22.3727 2.54211 22.0182 2.42105 21.7818 2.42105H8.54545C7.83636 2.42105 7.36364 2.90526 7.36364 3.63158V6.05263C7.36364 6.77895 6.89091 7.26316 6.18182 7.26316C5.47273 7.26316 5 6.77895 5 6.05263V3.63158C5 1.57368 6.53636 0 8.54545 0H21.7818C22.7273 0 23.6727 0.363158 24.2636 1.08947L29.9364 6.9C30.6455 7.62632 31 8.47368 31 9.44211V21.7895C31 22.5158 30.5273 23 29.8182 23Z" fill="#F5803E"/><path d="M27.5 33H25.1667C24.4667 33 24 32.5429 24 31.8571C24 31.1714 24.4667 30.7143 25.1667 30.7143H27.5C28.2 30.7143 28.6667 30.2571 28.6667 29.5714V26.1429C28.6667 25.4571 29.1333 25 29.8333 25C30.5333 25 31 25.4571 31 26.1429V29.5714C31 31.5143 29.4833 33 27.5 33Z" fill="#F5803E"/><path d="M23.8571 14H18.1429C17.4571 14 17 13.5429 17 12.8571V7.14286C17 6.45714 17.4571 6 18.1429 6C18.8286 6 19.2857 6.45714 19.2857 7.14286V11.7143H23.8571C24.5429 11.7143 25 12.1714 25 12.8571C25 13.5429 24.5429 14 23.8571 14Z" fill="#F5803E"/><path d="M12.4 27C12.07 27 11.85 26.8857 11.63 26.6571L8.33 23.2286C7.89 22.7714 7.89 22.0857 8.33 21.6286C8.77 21.1714 9.43 21.1714 9.87 21.6286L12.4 24.2571L17.13 19.3429C17.57 18.8857 18.23 18.8857 18.67 19.3429C19.11 19.8 19.11 20.4857 18.67 20.9429L13.17 26.6571C12.95 26.8857 12.73 27 12.4 27Z" fill="#FACCB1"/></svg>