<svg width="25" height="36" viewBox="0 0 25 36" fill="none" xmlns="http://www.w3.org/2000/svg"><path d="M12.4998 18L6.59069 15.2438C4.99978 14.5125 3.97705 12.9375 3.97705 11.1937V5.625H21.0225V11.1937C21.0225 12.9375 19.9998 14.5125 18.4089 15.2438L12.4998 18Z" fill="#FACCB1"/><path d="M12.4998 18L6.59069 20.7C4.99978 21.4875 3.97705 23.0625 3.97705 24.8062V30.375H21.0225V24.8062C21.0225 23.0625 19.9998 21.4875 18.4089 20.7563L12.4998 18Z" fill="#FACCB1"/><path d="M22.1591 11.1937V6.75H22.7273C23.9773 6.75 25 5.7375 25 4.5V2.25C25 1.0125 23.9773 0 22.7273 0H2.27273C1.02273 0 0 1.0125 0 2.25V4.5C0 5.7375 1.02273 6.75 2.27273 6.75H2.84091V11.1937C2.84091 13.3875 4.14773 15.3562 6.13636 16.3125L9.82955 18L6.13636 19.6875C4.14773 20.6437 2.84091 22.6125 2.84091 24.8062V29.25H2.27273C1.02273 29.25 0 30.2625 0 31.5V33.75C0 34.9875 1.02273 36 2.27273 36H22.7273C23.9773 36 25 34.9875 25 33.75V31.5C25 30.2625 23.9773 29.25 22.7273 29.25H22.1591V24.8062C22.1591 22.6125 20.8523 20.6437 18.8636 19.6875L15.1705 18L18.8636 16.3125C20.8523 15.3562 22.1591 13.3875 22.1591 11.1937ZM2.27273 2.25H22.7273V4.5H2.27273V2.25ZM22.7273 33.75H2.27273V31.5H22.7273V33.75ZM19.8864 24.8062V29.25H5.11364V24.8062C5.11364 23.5125 5.90909 22.3313 7.10227 21.7688L12.5 19.2375L17.8977 21.7688C19.0909 22.275 19.8864 23.5125 19.8864 24.8062ZM17.8977 14.2312L12.5 16.7625L7.10227 14.2312C5.90909 13.6687 5.11364 12.4875 5.11364 11.1937V6.75H19.8864V11.1937C19.8864 12.4875 19.0909 13.725 17.8977 14.2312Z" fill="#F59D3E"/></svg>