<svg width="33" height="33" viewBox="0 0 33 33" fill="none" xmlns="http://www.w3.org/2000/svg"><path d="M16.5 33C7.37344 33 0 25.6266 0 16.5C0 7.37344 7.37344 0 16.5 0C25.6266 0 33 7.37344 33 16.5C33 25.6266 25.6266 33 16.5 33ZM16.5 2.0625C8.50781 2.0625 2.0625 8.50781 2.0625 16.5C2.0625 24.4922 8.50781 30.9375 16.5 30.9375C24.4922 30.9375 30.9375 24.4922 30.9375 16.5C30.9375 8.50781 24.4922 2.0625 16.5 2.0625Z" fill="#DD1E46"/><path d="M13.1895 15.876L14.8748 17.6124C15.1156 17.8605 15.4767 17.8605 15.7175 17.6124L19.8105 13.3953C20.3222 12.8682 21.1047 12.8682 21.6163 13.3953C22.1279 13.9225 22.1279 14.7287 21.6163 15.2558L16.5602 20.4651C15.868 21.1783 14.7244 21.1783 14.0021 20.4651L11.3837 17.7364C10.8721 17.2093 10.8721 16.4031 11.3837 15.876C11.8953 15.3488 12.6778 15.3488 13.1895 15.876Z" fill="#E9ADBC"/></svg>