<svg width="34" height="29" viewBox="0 0 34 29" fill="none" xmlns="http://www.w3.org/2000/svg"><path d="M9.52005 5.66406C8.84005 5.66406 8.38672 5.21094 8.38672 4.53125V1.13281C8.38672 0.453125 8.84005 0 9.52005 0C10.2001 0 10.6534 0.453125 10.6534 1.13281V4.53125C10.6534 5.09766 10.0867 5.66406 9.52005 5.66406Z" fill="#2F63DF"/><path d="M24.48 5.66406C23.8 5.66406 23.3467 5.21094 23.3467 4.53125V1.13281C23.3467 0.453125 23.8 0 24.48 0C25.16 0 25.6133 0.453125 25.6133 1.13281V4.53125C25.6133 5.09766 25.16 5.66406 24.48 5.66406Z" fill="#2F63DF"/><path d="M28.3333 29H5.66667C2.49333 29 0 26.5078 0 23.3359V9.0625C0 5.89062 2.49333 3.39844 5.66667 3.39844H28.3333C31.5067 3.39844 34 5.89062 34 9.0625V23.3359C34 26.3945 31.5067 29 28.3333 29ZM5.66667 5.66406C3.74 5.66406 2.26667 7.13672 2.26667 9.0625V23.3359C2.26667 25.2617 3.74 26.7344 5.66667 26.7344H28.3333C30.26 26.7344 31.7333 25.2617 31.7333 23.3359V9.0625C31.7333 7.13672 30.26 5.66406 28.3333 5.66406H5.66667Z" fill="#9BBDF2"/><path d="M9.51966 17.332H6.11966C5.43966 17.332 4.98633 16.8789 4.98633 16.1992C4.98633 15.5195 5.43966 15.0664 6.11966 15.0664H9.51966C10.1997 15.0664 10.653 15.5195 10.653 16.1992C10.653 16.8789 10.0863 17.332 9.51966 17.332Z" fill="#2F63DF"/><path d="M9.51966 12.4609H6.11966C5.43966 12.4609 4.98633 12.0078 4.98633 11.3281C4.98633 10.6484 5.43966 10.1953 6.11966 10.1953H9.51966C10.1997 10.1953 10.653 10.6484 10.653 11.3281C10.653 12.0078 10.0863 12.4609 9.51966 12.4609Z" fill="#2F63DF"/><path d="M9.51966 22.3164H6.11966C5.43966 22.3164 4.98633 21.8633 4.98633 21.1836C4.98633 20.5039 5.43966 20.0508 6.11966 20.0508H9.51966C10.1997 20.0508 10.653 20.5039 10.653 21.1836C10.653 21.8633 10.0863 22.3164 9.51966 22.3164Z" fill="#2F63DF"/><path d="M18.7003 17.332H15.3003C14.6203 17.332 14.167 16.8789 14.167 16.1992C14.167 15.5195 14.6203 15.0664 15.3003 15.0664H18.7003C19.3803 15.0664 19.8337 15.5195 19.8337 16.1992C19.8337 16.8789 19.267 17.332 18.7003 17.332Z" fill="#2F63DF"/><path d="M18.7003 12.4609H15.3003C14.6203 12.4609 14.167 12.0078 14.167 11.3281C14.167 10.6484 14.6203 10.1953 15.3003 10.1953H18.7003C19.3803 10.1953 19.8337 10.6484 19.8337 11.3281C19.8337 12.0078 19.267 12.4609 18.7003 12.4609Z" fill="#2F63DF"/><path d="M18.7003 22.3164H15.3003C14.6203 22.3164 14.167 21.8633 14.167 21.1836C14.167 20.5039 14.6203 20.0508 15.3003 20.0508H18.7003C19.3803 20.0508 19.8337 20.5039 19.8337 21.1836C19.8337 21.8633 19.267 22.3164 18.7003 22.3164Z" fill="#2F63DF"/><path d="M27.88 17.332H24.48C23.8 17.332 23.3467 16.8789 23.3467 16.1992C23.3467 15.5195 23.8 15.0664 24.48 15.0664H27.88C28.56 15.0664 29.0133 15.5195 29.0133 16.1992C29.0133 16.8789 28.4467 17.332 27.88 17.332Z" fill="#2F63DF"/><path d="M27.88 12.4609H24.48C23.8 12.4609 23.3467 12.0078 23.3467 11.3281C23.3467 10.6484 23.8 10.1953 24.48 10.1953H27.88C28.56 10.1953 29.0133 10.6484 29.0133 11.3281C29.0133 12.0078 28.4467 12.4609 27.88 12.4609Z" fill="#2F63DF"/><path d="M27.88 22.3164H24.48C23.8 22.3164 23.3467 21.8633 23.3467 21.1836C23.3467 20.5039 23.8 20.0508 24.48 20.0508H27.88C28.56 20.0508 29.0133 20.5039 29.0133 21.1836C29.0133 21.8633 28.4467 22.3164 27.88 22.3164Z" fill="#2F63DF"/></svg>