<svg width="34" height="41" viewBox="0 0 34 41" fill="none" xmlns="http://www.w3.org/2000/svg"><path d="M16.5143 39.9375C6.49643 35.5625 0 25.4375 0 14.25V8.12501C0 7.62501 0.303571 7.18751 0.728571 7.00001C17.85 -0.437494 16.8179 -0.187495 17.4857 0.125005L33.2714 7.00001C33.6964 7.18751 34 7.62501 34 8.12501V14.25C34 25.4375 27.5036 35.5625 17.4857 39.9375C17.1821 40.0625 16.8179 40.0625 16.5143 39.9375ZM2.42857 9.00001V14.25C2.42857 24.25 8.13571 33.3125 17 37.375C25.8643 33.3125 31.5714 24.25 31.5714 14.25V8.93751L17 2.62501L2.42857 9.00001Z" fill="#F5803E"/><path d="M17.6071 18.75H16.3929C15.725 18.75 15.1786 18.1875 15.1786 17.5C15.1786 16.8125 15.725 16.25 16.3929 16.25H20.0357C20.7036 16.25 21.25 15.6875 21.25 15C21.25 14.3125 20.7036 13.75 20.0357 13.75H18.2143V13.125C18.2143 12.4375 17.6679 11.875 17 11.875C16.3321 11.875 15.7857 12.4375 15.7857 13.125V13.8125C13.7821 14.1875 12.5071 16.125 12.8107 18.125C13.1143 19.9375 14.6321 21.1875 16.3929 21.25H17.6071C18.275 21.25 18.8214 21.8125 18.8214 22.5C18.8214 23.1875 18.275 23.75 17.6071 23.75H13.9643C13.2964 23.75 12.75 24.3125 12.75 25C12.75 25.6875 13.2964 26.25 13.9643 26.25H15.7857V26.875C15.7857 27.5625 16.3321 28.125 17 28.125C17.6679 28.125 18.2143 27.5625 18.2143 26.875V26.1875C20.2179 25.8125 21.4929 23.875 21.1893 21.875C20.8857 20.0625 19.3679 18.75 17.6071 18.75Z" fill="#FACCB1"/></svg>