<svg width="35" height="24" viewBox="0 0 35 24" fill="none" xmlns="http://www.w3.org/2000/svg"><path d="M35 11.9447C35 16.4793 31.3906 20.129 26.9062 20.129H16.2969C15.6406 20.129 15.0938 19.576 15.0938 18.9124C15.0938 18.2488 15.6406 17.6959 16.2969 17.6959H26.9062C29.9688 17.6959 32.4844 15.1521 32.4844 12.0553C32.4844 8.95852 29.9688 6.41475 26.9062 6.41475H25.5937L27.2344 8.07373C27.6719 8.51613 27.6719 9.40092 27.2344 9.84332C26.9062 9.84332 26.5781 9.95392 26.25 9.95392C25.9219 9.95392 25.5938 9.84332 25.375 9.62212L21.6562 5.86175C21.2187 5.41935 21.2187 4.53456 21.6562 4.09217L25.375 0.331797C25.8125 -0.110599 26.6875 -0.110599 27.125 0.331797C27.5625 0.774194 27.5625 1.65899 27.125 2.10138L25.4844 3.76037H26.7969C31.3906 3.64977 35 7.41014 35 11.9447Z" fill="#30CC67"/><path d="M13.3438 17.9167L9.625 14.1563C9.1875 13.7139 8.3125 13.7139 7.875 14.1563C7.4375 14.5987 7.4375 15.4835 7.875 15.9259L9.51562 17.5849H8.09375C5.03125 17.5849 2.51562 15.0411 2.51562 11.9443C2.51562 8.84757 5.03125 6.30379 8.09375 6.30379H18.7031C19.3594 6.30379 19.9062 5.7508 19.9062 5.0872C19.9062 4.42361 19.3594 3.87061 18.7031 3.87061H8.09375C3.60938 3.64942 0 7.40979 0 11.9443C0 16.4789 3.60938 20.1287 8.09375 20.1287H9.40625L7.76562 21.7877C7.32812 22.2301 7.32812 23.1149 7.76562 23.5572C7.98438 23.7784 8.3125 23.889 8.64062 23.889C8.96875 23.889 9.29688 23.7784 9.51562 23.5572L13.2344 19.7969C13.8906 19.2439 13.8906 18.4697 13.3438 17.9167Z" fill="#8AECBF"/></svg>