<svg width="35" height="36" viewBox="0 0 35 36" fill="none" xmlns="http://www.w3.org/2000/svg"><path d="M14.9225 35.2712C6.64727 35.2712 0 28.6239 0 20.3487C0 12.0735 6.64727 5.42627 14.9225 5.42627C15.7364 5.42627 16.279 5.9689 16.279 6.78286V18.9921H28.4883C29.3023 18.9921 29.8449 19.5348 29.8449 20.3487C29.8449 28.6239 23.1976 35.2712 14.9225 35.2712ZM13.5659 8.2751C6.91859 8.9534 2.03488 15.058 2.84883 21.7053C3.66278 28.3526 9.63176 33.2363 16.279 32.4223C21.9767 31.744 26.4534 27.2673 26.9961 21.7053H16.279C14.7868 21.7053 13.5659 20.4844 13.5659 18.9921V8.2751Z" fill="#E9ADBC"/><path d="M33.6436 16.279H21.4344C19.9421 16.279 18.7212 15.0581 18.7212 13.5659V1.35659C18.7212 0.542635 19.2638 0 20.0778 0C28.353 0 35.0002 6.64727 35.0002 14.9225C35.0002 15.7364 34.4576 16.279 33.6436 16.279ZM21.4344 13.5659H32.1514C31.4731 7.8682 26.9964 3.39147 21.4344 2.84883V13.5659Z" fill="#E63757"/></svg>