<svg width="32" height="33" viewBox="0 0 32 33" fill="none" xmlns="http://www.w3.org/2000/svg"><path d="M26.3 24.7L28.3 26.7C28.5 26.9 28.7 27 29 27C29.3 27 29.5 26.9 29.7 26.7L31.7 24.7C32.1 24.3 32.1 23.7 31.7 23.3C31.3 22.9 30.7 22.9 30.3 23.3L29 24.6L27.7 23.3C27.3 22.9 26.7 22.9 26.3 23.3C25.9 23.7 25.9 24.3 26.3 24.7Z" fill="#8AECBF"/><path d="M26.2 29.2C25.1 30.3 23.6 31 22 31C20.3 31 18.9 30.3 17.8 29.2C16.7 28.1 16 26.7 16 25C16 23.3 16.7 21.9 17.8 20.8C18.9 19.7 20.4 19 22 19C23.7 19 25.1 19.7 26.2 20.8C27.3 21.9 28 23.4 28 25C28 25.3 28 25.5 27.9 25.8L29.9 26.1C29.9 25.7 30 25.4 30 25C30 22.8 29.1 20.8 27.7 19.3C26.2 17.9 24.2 17 22 17C19.8 17 17.8 17.9 16.3 19.3C14.9 20.8 14 22.8 14 25C14 27.2 14.9 29.2 16.3 30.7C17.7 32.1 19.7 33 22 33C24.2 33 26.2 32.1 27.7 30.7L26.2 29.2Z" fill="#8AECBF"/><path d="M3 33H14V31H3C2.4 31 2 30.6 2 30V4.00002C2 3.40002 2.4 3.00002 3 3.00002H16V8.00002C16 9.70002 17.3 11 19 11H24V15H26V10.8C26 10 25.7 9.20002 25.1 8.70002L17.8 1.40002C17.6 1.20002 17.4 1.10002 17.1 1.10002C16.8 1.00002 16.5 0.900024 16.1 0.900024H3C1.3 1.00002 0 2.30002 0 4.00002V30C0 31.7 1.3 33 3 33ZM18 4.40002L22.6 9.00002H19C18.4 9.00002 18 8.60002 18 8.00002V4.40002Z" fill="#30CC67"/></svg>