<svg width="35" height="26" viewBox="0 0 35 26" fill="none" xmlns="http://www.w3.org/2000/svg"><path d="M33.9062 5.4165H1.09375V10.8332H33.9062V5.4165Z" fill="#9BBDF2"/><path d="M12.0312 15.1665H5.46875V19.4998H12.0312V15.1665Z" fill="#9BBDF2"/><path d="M30.625 0H4.375C1.96875 0 0 1.95 0 4.33333V21.6667C0 24.05 1.96875 26 4.375 26H30.625C33.0312 26 35 24.05 35 21.6667V4.33333C35 1.95 33.0312 0 30.625 0ZM4.375 2.16667H30.625C31.8281 2.16667 32.8125 3.14167 32.8125 4.33333H2.1875C2.1875 3.14167 3.17188 2.16667 4.375 2.16667ZM2.1875 6.5H32.8125V9.75H2.1875V6.5ZM30.625 23.8333H4.375C3.17188 23.8333 2.1875 22.8583 2.1875 21.6667V11.9167H32.8125V21.6667C32.8125 22.8583 31.8281 23.8333 30.625 23.8333Z" fill="#2F63DF"/><path d="M12.0312 14.0835H5.46875C4.86719 14.0835 4.375 14.571 4.375 15.1668V19.5002C4.375 20.096 4.86719 20.5835 5.46875 20.5835H12.0312C12.6328 20.5835 13.125 20.096 13.125 19.5002V15.1668C13.125 14.571 12.6328 14.0835 12.0312 14.0835ZM10.9375 18.4168H6.5625V16.2502H10.9375V18.4168Z" fill="#2F63DF"/></svg>